<svg width="22" height="50" viewBox="0 0 22 50" fill="none" xmlns="http://www.w3.org/2000/svg">
<path d="M9.10162 4.58327L2.18941 10.8863C1.80765 11.2344 1.22357 11.2344 0.841818 10.8863L0.326206 10.4161C-0.108734 10.0195 -0.108734 9.33488 0.326206 8.93828L9.84208 0.261078C10.2238 -0.0870285 10.8079 -0.0870285 11.1897 0.261078L20.7055 8.93828C21.1405 9.33488 21.1405 10.0195 20.7055 10.4161L20.1899 10.8863C19.8082 11.2344 19.2241 11.2344 18.8423 10.8863L11.9301 4.58327L11.9301 48.6467C11.9301 49.199 11.4824 49.6467 10.9301 49.6467H10.1016C9.54934 49.6467 9.10162 49.199 9.10162 48.6467L9.10162 4.58327Z" fill="#E15544"/>
</svg>
