<svg width="79" height="36" viewBox="0 0 79 36" fill="none" xmlns="http://www.w3.org/2000/svg">
<path d="M1.88437 6.4029C1.08354 6.61497 0.262431 6.13769 0.0503642 5.33686C-0.161703 4.53604 0.315579 3.71493 1.1164 3.50286L1.88437 6.4029ZM70.7356 35.1225C70.2657 35.8048 69.3316 35.9768 68.6494 35.5068L57.5321 27.8482C56.8499 27.3782 56.6778 26.4442 57.1478 25.762C57.6177 25.0798 58.5518 24.9077 59.234 25.3777L69.1161 32.1854L75.9237 22.3033C76.3937 21.6211 77.3277 21.449 78.01 21.919C78.6922 22.3889 78.8642 23.323 78.3943 24.0052L70.7356 35.1225ZM1.1164 3.50286C24.3807 -2.65779 40.9507 -0.111781 52.2087 6.63247C63.4563 13.3705 69.1625 24.1573 70.9756 33.9998L68.0252 34.5433C66.3383 25.3859 61.0444 15.4227 50.667 9.20602C40.3001 2.9956 24.62 0.382259 1.88437 6.4029L1.1164 3.50286Z" fill="#E15544"/>
</svg>
