<svg width="27" height="31" viewBox="0 0 27 31" fill="none" xmlns="http://www.w3.org/2000/svg">
<path d="M7.24086 13.909C8.8159 17.557 11.3535 20.5348 14.4489 22.4039L16.8552 19.568C17.1505 19.2199 17.588 19.1039 17.9708 19.2586C19.1959 19.7355 20.5194 19.9934 21.8756 19.9934C22.4772 19.9934 22.9694 20.5734 22.9694 21.2824V25.7812C22.9694 26.4902 22.4772 27.0703 21.8756 27.0703C11.605 27.0703 3.28137 17.2605 3.28137 5.15625C3.28137 4.44727 3.77357 3.86719 4.37515 3.86719H8.20338C8.80496 3.86719 9.29716 4.44727 9.29716 5.15625C9.29716 6.76758 9.51592 8.31445 9.92062 9.7582C10.0409 10.2094 9.95343 10.7121 9.64717 11.073L7.24086 13.909Z" fill="#E15544"/>
</svg>
