<svg width="213" height="68" viewBox="0 0 213 68" fill="none" xmlns="http://www.w3.org/2000/svg">
<rect x="2" y="2" width="209" height="64" stroke="black" stroke-width="4"/>
<path d="M62.254 40V23.9H64.255V38.068H72.167V40H62.254ZM79.2877 40.276C78.2143 40.276 77.2867 40.0115 76.5047 39.4825C75.7227 38.9535 75.1208 38.2252 74.6992 37.2975C74.2775 36.3698 74.0667 35.308 74.0667 34.112C74.0667 32.8163 74.2852 31.7123 74.7222 30.8C75.1592 29.88 75.7687 29.1785 76.5507 28.6955C77.3327 28.2125 78.245 27.971 79.2877 27.971C80.1693 27.971 80.9782 28.1703 81.7142 28.569C82.4502 28.96 83.0367 29.5695 83.4737 30.3975C83.9183 31.2178 84.1407 32.272 84.1407 33.56C84.1407 33.744 84.133 33.9587 84.1177 34.204C84.11 34.4417 84.0947 34.687 84.0717 34.94H76.1137C76.1903 35.653 76.3667 36.2778 76.6427 36.8145C76.9187 37.3512 77.2828 37.7728 77.7352 38.0795C78.1875 38.3785 78.7203 38.528 79.3337 38.528C79.832 38.528 80.292 38.4398 80.7137 38.2635C81.143 38.0872 81.5417 37.815 81.9097 37.447L83.0827 38.758C82.6457 39.195 82.1013 39.5592 81.4497 39.8505C80.8057 40.1342 80.085 40.276 79.2877 40.276ZM76.0907 33.192H82.1167C82.1167 32.525 82.0055 31.9308 81.7832 31.4095C81.5685 30.8805 81.2503 30.4665 80.8287 30.1675C80.407 29.8685 79.8933 29.719 79.2877 29.719C78.4367 29.719 77.7045 29.995 77.0912 30.547C76.4855 31.099 76.152 31.9807 76.0907 33.192ZM90.174 40.276C89.369 40.276 88.7519 40.0345 88.3225 39.5515C87.9009 39.0685 87.69 38.3747 87.69 37.47V29.995H85.781V28.247H87.69V24.36L89.691 23.394V28.247H92.589V29.995H89.691V36.803C89.691 37.3627 89.7869 37.7728 89.9785 38.0335C90.1779 38.2865 90.4884 38.413 90.91 38.413C91.4467 38.413 92.0294 38.206 92.658 37.792L92.428 39.747C92.083 39.931 91.7227 40.0652 91.347 40.1495C90.979 40.2338 90.588 40.276 90.174 40.276ZM95.6694 29.65L95.0024 29.305C95.1404 29.1823 95.3052 28.9983 95.4969 28.753C95.6962 28.5 95.8726 28.2048 96.0259 27.8675C96.1792 27.5302 96.2674 27.166 96.2904 26.775C95.8457 26.752 95.4662 26.6025 95.1519 26.3265C94.8376 26.0505 94.6804 25.694 94.6804 25.257C94.6804 24.751 94.8337 24.3523 95.1404 24.061C95.4471 23.7697 95.8074 23.624 96.2214 23.624C96.6737 23.624 97.0762 23.785 97.4289 24.107C97.7892 24.429 97.9694 24.935 97.9694 25.625C97.9694 26.2153 97.8659 26.7673 97.6589 27.281C97.4596 27.7947 97.1836 28.2547 96.8309 28.661C96.4859 29.0597 96.0987 29.3893 95.6694 29.65ZM103.206 40.276C102.378 40.276 101.581 40.0997 100.814 39.747C100.055 39.3867 99.4342 38.9037 98.9512 38.298L100.377 37.079C100.791 37.5237 101.251 37.8687 101.757 38.114C102.263 38.3593 102.762 38.482 103.252 38.482C103.942 38.482 104.479 38.3517 104.862 38.091C105.246 37.8227 105.437 37.4547 105.437 36.987C105.437 36.6803 105.349 36.4043 105.173 36.159C105.004 35.9137 104.72 35.6798 104.322 35.4575C103.931 35.2352 103.406 35.0013 102.746 34.756C101.451 34.273 100.519 33.7478 99.9517 33.1805C99.3921 32.6132 99.1122 31.9117 99.1122 31.076C99.1122 30.156 99.4764 29.4085 100.205 28.8335C100.941 28.2585 101.895 27.971 103.068 27.971C103.873 27.971 104.613 28.1243 105.288 28.431C105.962 28.73 106.541 29.167 107.024 29.742L105.644 30.892C104.939 30.1407 104.073 29.765 103.045 29.765C102.44 29.765 101.96 29.8838 101.608 30.1215C101.263 30.3515 101.09 30.6697 101.09 31.076C101.09 31.467 101.286 31.812 101.677 32.111C102.075 32.4023 102.792 32.7397 103.827 33.123C104.671 33.4297 105.353 33.7632 105.874 34.1235C106.403 34.4838 106.787 34.894 107.024 35.354C107.27 35.814 107.392 36.343 107.392 36.941C107.392 37.976 107.02 38.7925 106.277 39.3905C105.533 39.9808 104.51 40.276 103.206 40.276ZM119.194 40.276C118.389 40.276 117.771 40.0345 117.342 39.5515C116.92 39.0685 116.71 38.3747 116.71 37.47V29.995H114.801V28.247H116.71V24.36L118.711 23.394V28.247H121.609V29.995H118.711V36.803C118.711 37.3627 118.806 37.7728 118.998 38.0335C119.197 38.2865 119.508 38.413 119.93 38.413C120.466 38.413 121.049 38.206 121.678 37.792L121.448 39.747C121.103 39.931 120.742 40.0652 120.367 40.1495C119.999 40.2338 119.608 40.276 119.194 40.276ZM127.799 40.276C126.527 40.276 125.526 39.9233 124.798 39.218C124.069 38.5127 123.705 37.5467 123.705 36.32C123.705 35.5303 123.885 34.8442 124.246 34.2615C124.606 33.6788 125.116 33.2303 125.775 32.916C126.435 32.594 127.209 32.433 128.098 32.433C128.673 32.433 129.21 32.4982 129.708 32.6285C130.214 32.7512 130.69 32.939 131.134 33.192V32.364C131.134 31.4517 130.927 30.7847 130.513 30.363C130.099 29.9337 129.455 29.719 128.581 29.719C128.022 29.719 127.439 29.8225 126.833 30.0295C126.235 30.2365 125.676 30.524 125.154 30.892L124.579 29.213C125.17 28.822 125.84 28.5192 126.592 28.3045C127.351 28.0822 128.098 27.971 128.834 27.971C130.23 27.971 131.276 28.3275 131.974 29.0405C132.671 29.7458 133.02 30.8 133.02 32.203V40H131.134V38.919C130.674 39.356 130.157 39.6933 129.582 39.931C129.007 40.161 128.413 40.276 127.799 40.276ZM128.098 38.528C128.643 38.528 129.179 38.3938 129.708 38.1255C130.245 37.8572 130.72 37.4777 131.134 36.987V34.963C130.743 34.7177 130.299 34.526 129.8 34.388C129.302 34.25 128.827 34.181 128.374 34.181C127.516 34.181 126.837 34.3765 126.339 34.7675C125.84 35.1508 125.591 35.676 125.591 36.343C125.591 37.0177 125.814 37.5505 126.258 37.9415C126.703 38.3325 127.316 38.528 128.098 38.528ZM136.617 40V24.337L138.618 23.394V40H136.617ZM142.521 40V24.337L144.522 23.394V32.295L148.34 28.247H150.732L147.65 31.444L152.066 40H149.881L146.247 32.893L144.522 34.687V40H142.521Z" fill="black"/>
</svg>
