<svg width="100" height="104" viewBox="0 0 100 104" fill="none" xmlns="http://www.w3.org/2000/svg">
<path d="M50 0L85 12.45L79.6634 58.6125L50 75L20.3366 58.6125L15 12.45L50 0ZM50 8.2875L28.1194 57.225H36.2785L40.678 46.275H59.2468L63.65 57.225H71.8054L50 8.2875ZM56.3903 39.525H43.6097L50 24.1875L56.3903 39.525Z" fill="black"/>
<path d="M20.4644 99L24.7284 87.8H26.6964L30.9764 99H28.7444L27.8564 96.632H23.5764L22.7044 99H20.4644ZM24.2484 94.736H27.1684L26.0484 91.736C26.011 91.6453 25.971 91.544 25.9284 91.432C25.8857 91.32 25.8457 91.208 25.8084 91.096C25.771 90.9787 25.739 90.8773 25.7124 90.792C25.6857 90.8773 25.6537 90.9787 25.6164 91.096C25.579 91.208 25.539 91.32 25.4964 91.432C25.4537 91.544 25.4137 91.6453 25.3764 91.736L24.2484 94.736ZM32.7011 99V90.824H34.7011V91.608C34.9625 91.2827 35.2745 91.04 35.6371 90.88C36.0051 90.7147 36.4238 90.632 36.8931 90.632C37.8051 90.632 38.5091 90.9147 39.0051 91.48C39.5011 92.04 39.7491 92.848 39.7491 93.904V99H37.7571V94.52C37.7571 93.832 37.6371 93.3307 37.3971 93.016C37.1625 92.696 36.7945 92.536 36.2931 92.536C35.7491 92.536 35.3465 92.696 35.0851 93.016C34.8291 93.3307 34.7011 93.8213 34.7011 94.488V99H32.7011ZM45.136 102.408L44.032 100.736C44.8107 100.677 45.4133 100.589 45.84 100.472C46.272 100.355 46.5733 100.187 46.744 99.968C46.9147 99.7493 47 99.464 47 99.112V98.52C46.584 98.968 45.9973 99.192 45.24 99.192C44.5307 99.192 43.92 99.0213 43.408 98.68C42.896 98.3333 42.5013 97.84 42.224 97.2C41.952 96.5547 41.816 95.7893 41.816 94.904C41.816 94.04 41.9573 93.288 42.24 92.648C42.528 92.008 42.928 91.512 43.44 91.16C43.9573 90.808 44.5627 90.632 45.256 90.632C45.6187 90.632 45.9493 90.688 46.248 90.8C46.552 90.912 46.8027 91.0747 47 91.288V90.824H48.992V98.264C48.992 98.9893 48.9253 99.6027 48.792 100.104C48.6587 100.605 48.44 101.016 48.136 101.336C47.8373 101.656 47.4427 101.899 46.952 102.064C46.4613 102.235 45.856 102.349 45.136 102.408ZM45.568 97.28C45.8507 97.28 46.1147 97.216 46.36 97.088C46.6107 96.9547 46.824 96.776 47 96.552V93.256C46.8507 93.048 46.6453 92.8773 46.384 92.744C46.1227 92.6053 45.8587 92.536 45.592 92.536C45.016 92.536 44.576 92.7387 44.272 93.144C43.9733 93.544 43.824 94.1307 43.824 94.904C43.824 95.4053 43.8907 95.8347 44.024 96.192C44.1627 96.544 44.3627 96.8133 44.624 97C44.8853 97.1867 45.2 97.28 45.568 97.28ZM54.2744 99.192C53.3624 99.192 52.6557 98.9093 52.1544 98.344C51.653 97.7733 51.4024 96.968 51.4024 95.928V90.824H53.4024V95.304C53.4024 95.992 53.5197 96.4933 53.7544 96.808C53.989 97.1227 54.3597 97.28 54.8664 97.28C55.4104 97.28 55.8104 97.1227 56.0664 96.808C56.3277 96.488 56.4584 95.9973 56.4584 95.336V90.824H58.4504V99H56.4584V98.232C56.2077 98.552 55.8984 98.792 55.5304 98.952C55.1677 99.112 54.749 99.192 54.2744 99.192ZM61.0311 99V88.352L63.0311 87.448V99H61.0311ZM68.0234 99.192C67.1327 99.192 66.426 98.952 65.9034 98.472C65.386 97.9867 65.1274 97.3307 65.1274 96.504C65.1274 95.9707 65.2607 95.504 65.5274 95.104C65.7994 94.6987 66.1754 94.3867 66.6554 94.168C67.1407 93.944 67.706 93.832 68.3514 93.832C68.7087 93.832 69.0527 93.8667 69.3834 93.936C69.7194 94 70.0127 94.0933 70.2634 94.216V93.704C70.2634 93.2453 70.1327 92.9013 69.8714 92.672C69.6154 92.4373 69.2367 92.32 68.7354 92.32C68.3354 92.32 67.9247 92.392 67.5034 92.536C67.082 92.68 66.6554 92.8933 66.2234 93.176L65.6234 91.6C66.0927 91.2907 66.6154 91.0533 67.1914 90.888C67.7674 90.7173 68.3487 90.632 68.9354 90.632C70.034 90.632 70.8554 90.8933 71.3994 91.416C71.9434 91.9333 72.2154 92.7067 72.2154 93.736V99H70.2634V98.344C69.986 98.6213 69.6554 98.832 69.2714 98.976C68.8927 99.12 68.4767 99.192 68.0234 99.192ZM68.4874 97.504C68.818 97.504 69.1354 97.44 69.4394 97.312C69.7487 97.1787 70.0234 96.992 70.2634 96.752V95.784C70.034 95.672 69.778 95.5867 69.4954 95.528C69.218 95.464 68.9407 95.432 68.6634 95.432C68.1674 95.432 67.7754 95.528 67.4874 95.72C67.2047 95.9067 67.0634 96.168 67.0634 96.504C67.0634 96.8187 67.1887 97.064 67.4394 97.24C67.69 97.416 68.0394 97.504 68.4874 97.504ZM74.6074 99V90.824H76.6074V91.704C76.7567 91.3893 76.9914 91.1333 77.3114 90.936C77.6314 90.7333 77.9674 90.632 78.3194 90.632C78.9007 90.632 79.3914 90.832 79.7914 91.232L79.5114 93.064C79.2927 92.8827 79.0794 92.7547 78.8714 92.68C78.6634 92.6053 78.434 92.568 78.1834 92.568C77.8527 92.568 77.57 92.6453 77.3354 92.8C77.1007 92.9547 76.9194 93.1787 76.7914 93.472C76.6687 93.7653 76.6074 94.1173 76.6074 94.528V99H74.6074Z" fill="black"/>
</svg>
