<svg width="100" height="104" viewBox="0 0 100 104" fill="none" xmlns="http://www.w3.org/2000/svg">
<path d="M17.0059 0.0132157C17.0059 0.303961 16.9927 0.502197 17.0059 0.700433C17.5067 6.19817 18.0076 11.6959 18.4952 17.2069C19.1806 25.0041 19.8528 32.8014 20.5382 40.5855C21.3158 49.3343 22.1067 58.0699 22.8579 66.8187C22.9107 67.453 23.1347 67.7305 23.7278 67.8891C32.1633 70.2151 40.5724 72.5543 49.0078 74.867C49.5746 75.0256 50.2599 75.052 50.8267 74.8934C59.2885 72.5675 67.7371 70.2019 76.1989 67.8627C76.8448 67.6777 77.0688 67.3869 77.1216 66.7261C77.3852 63.4222 77.7015 60.1051 77.9915 56.8011C78.4791 51.3298 78.9536 45.8585 79.4413 40.3872C80.0081 33.9644 80.588 27.5548 81.1548 21.1319C81.5765 16.3478 82.0247 11.577 82.4464 6.79288C82.6441 4.54621 82.8155 2.29953 83 0H17.0059V0.0132157ZM70.2678 19.0967C69.8328 23.9337 69.3979 28.7838 68.9629 33.6208C68.462 39.1846 67.9612 44.7484 67.4603 50.299C67.3154 51.8981 67.1045 53.4972 67.0649 55.1095C67.0386 55.9686 66.6695 56.1932 65.9578 56.3915C60.8701 57.7659 55.7957 59.18 50.7213 60.5808C50.4972 60.6469 50.2863 60.7262 50.0622 60.7923C49.9832 60.7526 49.9041 60.7262 49.8118 60.6866C44.3815 59.2064 38.9512 57.713 33.5209 56.2064C33.2968 56.1404 33.0068 55.7835 32.9805 55.5324C32.5982 51.4091 32.2556 47.2858 31.8865 43.0832H40.177C40.3219 44.7352 40.4801 46.4136 40.6119 48.1052C40.7305 49.6647 40.7174 49.6647 42.1804 50.0611C44.8033 50.7616 47.4393 51.4488 50.0622 52.136L50.0359 52.0699C52.9092 51.3034 55.7825 50.5501 58.6558 49.7307C58.9195 49.6514 59.2226 49.2285 59.2621 48.9378C59.4335 47.6691 59.5257 46.3872 59.6312 45.1185C59.8025 43.07 59.9739 41.0216 60.1584 38.8806H50.0359L50.0622 38.8278C49.9963 38.8278 49.9173 38.8278 49.8514 38.8278H31.5043C31.2538 36.0921 31.0166 33.3829 30.7662 30.5944H49.8645C49.9304 30.5944 50.0095 30.5944 50.0754 30.5944L50.0491 30.5415H60.8965C61.1469 27.7001 61.3974 24.9248 61.6478 22.0967H50.0359L50.0622 22.0438C49.9963 22.0438 49.9173 22.0438 49.8514 22.0438C43.3534 22.057 36.8555 22.057 30.3576 22.0702C30.2653 22.0702 30.1731 22.0306 30.0017 21.9777C29.7645 19.2817 29.514 16.5857 29.2768 13.8104H49.8514C49.9173 13.8104 49.9963 13.8104 50.0622 13.8104L50.0359 13.7576H70.7027C70.5577 15.6078 70.4127 17.3522 70.2678 19.0967Z" fill="black"/>
<path d="M40.7092 99.176C39.8399 99.176 39.1039 99.008 38.5012 98.672C37.9039 98.336 37.4212 97.8907 37.0532 97.336C36.6905 96.776 36.4265 96.1547 36.2612 95.472C36.0959 94.7893 36.0132 94.0987 36.0132 93.4C36.0132 92.7387 36.0959 92.0693 36.2612 91.392C36.4319 90.7093 36.7012 90.0827 37.0692 89.512C37.4425 88.936 37.9279 88.4747 38.5252 88.128C39.1225 87.7813 39.8505 87.608 40.7092 87.608C41.4185 87.608 42.0345 87.728 42.5572 87.968C43.0799 88.2027 43.5119 88.5093 43.8532 88.888C44.1999 89.2613 44.4639 89.6533 44.6452 90.064L42.7892 90.928C42.6079 90.6507 42.4212 90.4133 42.2292 90.216C42.0372 90.0133 41.8185 89.8587 41.5732 89.752C41.3332 89.64 41.0452 89.584 40.7092 89.584C40.2292 89.584 39.8265 89.7013 39.5012 89.936C39.1759 90.1653 38.9145 90.4693 38.7172 90.848C38.5199 91.2267 38.3785 91.64 38.2932 92.088C38.2079 92.536 38.1652 92.9733 38.1652 93.4C38.1652 93.8533 38.2132 94.304 38.3092 94.752C38.4052 95.2 38.5572 95.608 38.7652 95.976C38.9732 96.344 39.2372 96.64 39.5572 96.864C39.8772 97.0827 40.2612 97.192 40.7092 97.192C41.1892 97.192 41.5919 97.0587 41.9172 96.792C42.2479 96.52 42.5412 96.1733 42.7972 95.752L44.6932 96.464C44.4532 96.9813 44.1519 97.4453 43.7892 97.856C43.4265 98.2667 42.9919 98.5893 42.4852 98.824C41.9785 99.0587 41.3865 99.176 40.7092 99.176ZM50.2338 99.192C49.5351 99.192 48.9005 99.0693 48.3298 98.824C47.7591 98.5787 47.2685 98.232 46.8578 97.784C46.4525 97.3307 46.1485 96.7973 45.9458 96.184L47.8258 95.488C48.0658 96 48.3991 96.4213 48.8258 96.752C49.2578 97.0773 49.7431 97.24 50.2818 97.24C50.8525 97.24 51.3058 97.12 51.6418 96.88C51.9831 96.64 52.1538 96.2907 52.1538 95.832C52.1538 95.5173 52.0525 95.256 51.8498 95.048C51.6525 94.8347 51.3831 94.6533 51.0418 94.504C50.7058 94.3493 50.3245 94.2 49.8978 94.056C49.4871 93.9173 49.0738 93.7627 48.6578 93.592C48.2418 93.4213 47.8605 93.2133 47.5138 92.968C47.1671 92.7173 46.8871 92.4027 46.6738 92.024C46.4658 91.6453 46.3618 91.1813 46.3618 90.632C46.3618 90.0827 46.5085 89.5787 46.8018 89.12C47.0951 88.6613 47.5191 88.296 48.0738 88.024C48.6338 87.7467 49.3111 87.608 50.1058 87.608C50.7565 87.608 51.3325 87.72 51.8338 87.944C52.3405 88.1627 52.7591 88.4613 53.0898 88.84C53.4205 89.2187 53.6498 89.648 53.7778 90.128L51.9218 90.744C51.7725 90.408 51.5431 90.128 51.2338 89.904C50.9298 89.6747 50.5165 89.56 49.9938 89.56C49.5031 89.56 49.1218 89.656 48.8498 89.848C48.5778 90.04 48.4418 90.312 48.4418 90.664C48.4418 90.904 48.5325 91.1093 48.7138 91.28C48.9005 91.4453 49.1485 91.5947 49.4578 91.728C49.7725 91.8613 50.1271 91.9973 50.5218 92.136C50.9645 92.2853 51.4045 92.456 51.8418 92.648C52.2845 92.8347 52.6845 93.064 53.0418 93.336C53.4045 93.608 53.6951 93.9467 53.9138 94.352C54.1325 94.752 54.2418 95.2427 54.2418 95.824C54.2418 96.5387 54.0631 97.1467 53.7058 97.648C53.3538 98.1493 52.8765 98.5333 52.2738 98.8C51.6711 99.0613 50.9911 99.192 50.2338 99.192ZM60.0463 99.192C59.3476 99.192 58.713 99.0693 58.1423 98.824C57.5716 98.5787 57.081 98.232 56.6703 97.784C56.265 97.3307 55.961 96.7973 55.7583 96.184L57.6383 95.488C57.8783 96 58.2116 96.4213 58.6383 96.752C59.0703 97.0773 59.5556 97.24 60.0943 97.24C60.665 97.24 61.1183 97.12 61.4543 96.88C61.7956 96.64 61.9663 96.2907 61.9663 95.832C61.9663 95.5173 61.865 95.256 61.6623 95.048C61.465 94.8347 61.1956 94.6533 60.8543 94.504C60.5183 94.3493 60.137 94.2 59.7103 94.056C59.2996 93.9173 58.8863 93.7627 58.4703 93.592C58.0543 93.4213 57.673 93.2133 57.3263 92.968C56.9796 92.7173 56.6996 92.4027 56.4863 92.024C56.2783 91.6453 56.1743 91.1813 56.1743 90.632C56.1743 90.0827 56.321 89.5787 56.6143 89.12C56.9076 88.6613 57.3316 88.296 57.8863 88.024C58.4463 87.7467 59.1236 87.608 59.9183 87.608C60.569 87.608 61.145 87.72 61.6463 87.944C62.153 88.1627 62.5716 88.4613 62.9023 88.84C63.233 89.2187 63.4623 89.648 63.5903 90.128L61.7343 90.744C61.585 90.408 61.3556 90.128 61.0463 89.904C60.7423 89.6747 60.329 89.56 59.8063 89.56C59.3156 89.56 58.9343 89.656 58.6623 89.848C58.3903 90.04 58.2543 90.312 58.2543 90.664C58.2543 90.904 58.345 91.1093 58.5263 91.28C58.713 91.4453 58.961 91.5947 59.2703 91.728C59.585 91.8613 59.9396 91.9973 60.3343 92.136C60.777 92.2853 61.217 92.456 61.6543 92.648C62.097 92.8347 62.497 93.064 62.8543 93.336C63.217 93.608 63.5076 93.9467 63.7263 94.352C63.945 94.752 64.0543 95.2427 64.0543 95.824C64.0543 96.5387 63.8756 97.1467 63.5183 97.648C63.1663 98.1493 62.689 98.5333 62.0863 98.8C61.4836 99.0613 60.8036 99.192 60.0463 99.192Z" fill="black"/>
</svg>
