<svg width="100" height="104" viewBox="0 0 100 104" fill="none" xmlns="http://www.w3.org/2000/svg">
<path d="M24.3477 48.9649L31.8242 1.45405C32.082 -0.165154 34.2734 -0.54865 35.0469 0.900111L43.082 15.8138L24.3477 48.9649ZM77.5 60.5124L70.3672 16.7513C70.1523 15.3877 68.4336 14.8338 67.4453 15.8138L22.5 60.5124L47.3789 74.3608C48.9258 75.2131 50.8594 75.2131 52.4062 74.3608L77.5 60.5124ZM57.3047 22.3333L51.5469 11.4675C50.9023 10.2318 49.1406 10.2318 48.4961 11.4675L23.1875 56.2087L57.3047 22.3333Z" fill="black"/>
<path d="M19.4764 99V87.8H26.9244V89.768H21.5484V92.232H24.9884V94.2H21.5484V99H19.4764ZM28.5999 99V90.824H30.5999V99H28.5999ZM29.5999 89.8C29.2799 89.8 29.0026 89.6853 28.7679 89.456C28.5386 89.2213 28.4239 88.944 28.4239 88.624C28.4239 88.304 28.5386 88.032 28.7679 87.808C28.9973 87.5787 29.2746 87.464 29.5999 87.464C29.9359 87.464 30.2159 87.576 30.4399 87.8C30.6639 88.024 30.7759 88.2987 30.7759 88.624C30.7759 88.9493 30.6613 89.2267 30.4319 89.456C30.2079 89.6853 29.9306 89.8 29.5999 89.8ZM33.1152 99V90.824H35.1152V91.704C35.2645 91.3893 35.4992 91.1333 35.8192 90.936C36.1392 90.7333 36.4752 90.632 36.8272 90.632C37.4085 90.632 37.8992 90.832 38.2992 91.232L38.0192 93.064C37.8005 92.8827 37.5872 92.7547 37.3792 92.68C37.1712 92.6053 36.9419 92.568 36.6912 92.568C36.3605 92.568 36.0779 92.6453 35.8432 92.8C35.6085 92.9547 35.4272 93.1787 35.2992 93.472C35.1765 93.7653 35.1152 94.1173 35.1152 94.528V99H33.1152ZM42.7176 99.192C41.9336 99.192 41.2562 99.016 40.6856 98.664C40.1202 98.312 39.6829 97.816 39.3736 97.176C39.0696 96.5307 38.9176 95.7733 38.9176 94.904C38.9176 94.024 39.0722 93.264 39.3816 92.624C39.6962 91.984 40.1362 91.4933 40.7016 91.152C41.2722 90.8053 41.9442 90.632 42.7176 90.632C43.3789 90.632 43.9789 90.7707 44.5176 91.048C45.0562 91.3253 45.4856 91.752 45.8056 92.328C46.1256 92.8987 46.2856 93.6267 46.2856 94.512C46.2856 94.6507 46.2802 94.8213 46.2696 95.024C46.2642 95.2213 46.2509 95.4213 46.2296 95.624H40.8936C40.9149 95.9973 41.0002 96.3253 41.1496 96.608C41.3042 96.8853 41.5149 97.1013 41.7816 97.256C42.0482 97.4107 42.3629 97.488 42.7256 97.488C43.1149 97.488 43.4536 97.424 43.7416 97.296C44.0296 97.1627 44.3016 96.952 44.5576 96.664L45.7096 97.856C45.3576 98.256 44.9336 98.5787 44.4376 98.824C43.9416 99.0693 43.3682 99.192 42.7176 99.192ZM40.9016 94.064H44.3496C44.3229 93.7067 44.2429 93.4 44.1096 93.144C43.9762 92.8827 43.7896 92.6827 43.5496 92.544C43.3096 92.4053 43.0189 92.336 42.6776 92.336C42.2082 92.336 41.8082 92.48 41.4776 92.768C41.1469 93.056 40.9549 93.488 40.9016 94.064ZM51.9678 99.192C51.5945 99.192 51.2718 99.1253 50.9998 98.992C50.7331 98.8587 50.4851 98.6427 50.2558 98.344V99H48.2558V88.352L50.2558 87.448V91.464C50.4638 91.1973 50.7198 90.992 51.0238 90.848C51.3331 90.704 51.6691 90.632 52.0318 90.632C52.7091 90.632 53.3011 90.8107 53.8078 91.168C54.3145 91.5253 54.7091 92.0267 54.9918 92.672C55.2798 93.312 55.4238 94.056 55.4238 94.904C55.4238 96.2533 55.1171 97.3067 54.5038 98.064C53.8958 98.816 53.0505 99.192 51.9678 99.192ZM51.7278 97.28C52.2718 97.28 52.6878 97.0747 52.9758 96.664C53.2691 96.2533 53.4158 95.6667 53.4158 94.904C53.4158 94.1413 53.2691 93.5573 52.9758 93.152C52.6878 92.7413 52.2718 92.536 51.7278 92.536C51.4291 92.536 51.1465 92.6027 50.8798 92.736C50.6131 92.864 50.4051 93.0373 50.2558 93.256V96.56C50.4211 96.7947 50.6238 96.9733 50.8638 97.096C51.1038 97.2187 51.3918 97.28 51.7278 97.28ZM59.9687 99.192C59.078 99.192 58.3714 98.952 57.8487 98.472C57.3314 97.9867 57.0727 97.3307 57.0727 96.504C57.0727 95.9707 57.206 95.504 57.4727 95.104C57.7447 94.6987 58.1207 94.3867 58.6007 94.168C59.086 93.944 59.6514 93.832 60.2967 93.832C60.654 93.832 60.998 93.8667 61.3287 93.936C61.6647 94 61.958 94.0933 62.2087 94.216V93.704C62.2087 93.2453 62.078 92.9013 61.8167 92.672C61.5607 92.4373 61.182 92.32 60.6807 92.32C60.2807 92.32 59.87 92.392 59.4487 92.536C59.0274 92.68 58.6007 92.8933 58.1687 93.176L57.5687 91.6C58.038 91.2907 58.5607 91.0533 59.1367 90.888C59.7127 90.7173 60.294 90.632 60.8807 90.632C61.9794 90.632 62.8007 90.8933 63.3447 91.416C63.8887 91.9333 64.1607 92.7067 64.1607 93.736V99H62.2087V98.344C61.9314 98.6213 61.6007 98.832 61.2167 98.976C60.838 99.12 60.422 99.192 59.9687 99.192ZM60.4327 97.504C60.7634 97.504 61.0807 97.44 61.3847 97.312C61.694 97.1787 61.9687 96.992 62.2087 96.752V95.784C61.9794 95.672 61.7234 95.5867 61.4407 95.528C61.1634 95.464 60.886 95.432 60.6087 95.432C60.1127 95.432 59.7207 95.528 59.4327 95.72C59.15 95.9067 59.0087 96.168 59.0087 96.504C59.0087 96.8187 59.134 97.064 59.3847 97.24C59.6354 97.416 59.9847 97.504 60.4327 97.504ZM69.1309 99.192C68.4909 99.192 67.8776 99.056 67.2909 98.784C66.7096 98.512 66.2483 98.1467 65.9069 97.688L67.2189 96.584C67.4909 96.872 67.8056 97.1013 68.1629 97.272C68.5203 97.4373 68.8616 97.52 69.1869 97.52C69.5923 97.52 69.9043 97.4533 70.1229 97.32C70.3416 97.1813 70.4509 96.9893 70.4509 96.744C70.4509 96.584 70.3976 96.4427 70.2909 96.32C70.1896 96.192 70.0083 96.064 69.7469 95.936C69.4856 95.8027 69.1176 95.6507 68.6429 95.48C67.7256 95.144 67.0749 94.7813 66.6909 94.392C66.3069 93.9973 66.1149 93.4987 66.1149 92.896C66.1149 92.224 66.3869 91.68 66.9309 91.264C67.4749 90.8427 68.1843 90.632 69.0589 90.632C69.6563 90.632 70.2056 90.744 70.7069 90.968C71.2136 91.192 71.6483 91.52 72.0109 91.952L70.7069 93.032C70.2269 92.5467 69.6669 92.304 69.0269 92.304C68.7016 92.304 68.4403 92.3653 68.2429 92.488C68.0456 92.6053 67.9469 92.7653 67.9469 92.968C67.9469 93.1653 68.0616 93.3413 68.2909 93.496C68.5256 93.6507 68.9603 93.832 69.5949 94.04C70.2243 94.2373 70.7336 94.4613 71.1229 94.712C71.5176 94.9627 71.8056 95.2533 71.9869 95.584C72.1736 95.9147 72.2669 96.296 72.2669 96.728C72.2669 97.496 71.9869 98.0987 71.4269 98.536C70.8723 98.9733 70.1069 99.192 69.1309 99.192ZM77.5613 99.192C76.7773 99.192 76.1 99.016 75.5293 98.664C74.964 98.312 74.5266 97.816 74.2173 97.176C73.9133 96.5307 73.7613 95.7733 73.7613 94.904C73.7613 94.024 73.916 93.264 74.2253 92.624C74.54 91.984 74.98 91.4933 75.5453 91.152C76.116 90.8053 76.788 90.632 77.5613 90.632C78.2226 90.632 78.8226 90.7707 79.3613 91.048C79.9 91.3253 80.3293 91.752 80.6493 92.328C80.9693 92.8987 81.1293 93.6267 81.1293 94.512C81.1293 94.6507 81.124 94.8213 81.1133 95.024C81.108 95.2213 81.0946 95.4213 81.0733 95.624H75.7373C75.7586 95.9973 75.844 96.3253 75.9933 96.608C76.148 96.8853 76.3586 97.1013 76.6253 97.256C76.892 97.4107 77.2066 97.488 77.5693 97.488C77.9586 97.488 78.2973 97.424 78.5853 97.296C78.8733 97.1627 79.1453 96.952 79.4013 96.664L80.5533 97.856C80.2013 98.256 79.7773 98.5787 79.2813 98.824C78.7853 99.0693 78.212 99.192 77.5613 99.192ZM75.7453 94.064H79.1933C79.1666 93.7067 79.0866 93.4 78.9533 93.144C78.82 92.8827 78.6333 92.6827 78.3933 92.544C78.1533 92.4053 77.8626 92.336 77.5213 92.336C77.052 92.336 76.652 92.48 76.3213 92.768C75.9906 93.056 75.7986 93.488 75.7453 94.064Z" fill="black"/>
</svg>
