<svg width="100" height="104" viewBox="0 0 100 104" fill="none" xmlns="http://www.w3.org/2000/svg">
<path d="M86.1028 34.1966L53.3089 1.40701C51.4326 -0.469005 48.3327 -0.469005 46.4564 1.40701L39.6855 8.177L48.3327 16.823C50.3721 16.1705 52.6563 16.5783 54.2062 18.2096C55.8378 19.8409 56.2457 22.1248 55.593 24.1639L63.9139 32.4837C65.9533 31.8312 68.2375 32.239 69.869 33.8703C72.1532 36.0726 72.1532 39.7431 69.869 42.0269C67.5849 44.3108 63.9955 44.3108 61.7113 42.0269C59.9982 40.314 59.5903 37.8671 60.4877 35.7463L52.7379 27.9976V48.3891C53.3089 48.6338 53.7984 49.0416 54.2878 49.4494C56.572 51.6517 56.572 55.3222 54.2878 57.606C52.0037 59.8083 48.4143 59.8083 46.1301 57.606C43.846 55.3222 43.846 51.7333 46.1301 49.4494C46.7012 48.8785 47.3538 48.4706 48.0064 48.2259V27.5897C47.3538 27.345 46.7012 26.8556 46.1301 26.3662C44.417 24.6533 44.0091 22.2064 44.9065 20.0856L36.3409 11.6028L13.9072 34.0334C12.0309 35.9095 12.0309 39.009 13.9072 40.885L46.6196 73.593C48.4958 75.469 51.5958 75.469 53.472 73.593L86.0213 41.0481C87.9791 39.0905 87.9791 36.0726 86.1028 34.1966Z" fill="black"/>
<path d="M44.9166 99.192C44.058 99.192 43.3193 99.032 42.7006 98.712C42.082 98.3867 41.578 97.9493 41.1886 97.4C40.7993 96.8453 40.5086 96.224 40.3166 95.536C40.13 94.8427 40.0366 94.1307 40.0366 93.4C40.0366 92.7013 40.1326 92.0107 40.3246 91.328C40.522 90.6453 40.818 90.024 41.2126 89.464C41.6126 88.904 42.1193 88.456 42.7326 88.12C43.346 87.7787 44.074 87.608 44.9166 87.608C45.6313 87.608 46.234 87.72 46.7246 87.944C47.2206 88.168 47.6366 88.4613 47.9726 88.824C48.314 89.1813 48.61 89.56 48.8606 89.96L47.0366 91C46.7913 90.6213 46.5006 90.2907 46.1646 90.008C45.834 89.7253 45.418 89.584 44.9166 89.584C44.394 89.584 43.9566 89.7013 43.6046 89.936C43.258 90.1707 42.9806 90.4773 42.7726 90.856C42.5646 91.2347 42.4153 91.648 42.3246 92.096C42.234 92.5387 42.1886 92.9733 42.1886 93.4C42.1886 93.8853 42.2393 94.3547 42.3406 94.808C42.442 95.2613 42.602 95.6693 42.8206 96.032C43.0393 96.3947 43.322 96.6827 43.6686 96.896C44.0153 97.104 44.4313 97.208 44.9166 97.208C45.2846 97.208 45.618 97.1253 45.9166 96.96C46.2206 96.7947 46.4606 96.5733 46.6366 96.296C46.8126 96.0133 46.9006 95.696 46.9006 95.344V95.136H44.9966V93.176H49.0366V94.792C49.0366 95.7413 48.8526 96.544 48.4846 97.2C48.122 97.8507 47.6286 98.3467 47.0046 98.688C46.386 99.024 45.69 99.192 44.9166 99.192ZM51.3109 99V90.824H53.3109V99H51.3109ZM52.3109 89.8C51.9909 89.8 51.7135 89.6853 51.4789 89.456C51.2495 89.2213 51.1349 88.944 51.1349 88.624C51.1349 88.304 51.2495 88.032 51.4789 87.808C51.7082 87.5787 51.9855 87.464 52.3109 87.464C52.6469 87.464 52.9269 87.576 53.1509 87.8C53.3749 88.024 53.4869 88.2987 53.4869 88.624C53.4869 88.9493 53.3722 89.2267 53.1429 89.456C52.9189 89.6853 52.6415 89.8 52.3109 89.8ZM58.2101 99.192C57.5595 99.192 57.0715 99.0133 56.7461 98.656C56.4208 98.2987 56.2581 97.7653 56.2581 97.056V92.576H55.0661V90.824H56.2581V88.4L58.2421 87.448V90.824H60.0981V92.576H58.2421V96.696C58.2421 96.952 58.2928 97.1413 58.3941 97.264C58.5008 97.3867 58.6661 97.448 58.8901 97.448C59.2848 97.448 59.7168 97.3253 60.1861 97.08L59.9541 98.824C59.7088 98.9467 59.4421 99.0373 59.1541 99.096C58.8661 99.16 58.5515 99.192 58.2101 99.192Z" fill="black"/>
</svg>
