<svg width="100" height="104" viewBox="0 0 100 104" fill="none" xmlns="http://www.w3.org/2000/svg">
<path d="M50 60.6675L67.4533 55.9575L69.8069 30.54H38.7649L37.9942 22.0875H70.5813L71.4389 13.7962H28.5611L30.9638 38.8388H60.506L59.52 49.5863L50 52.0875L40.48 49.5863L39.8831 42.6712H31.3076L32.5504 55.9613L50 60.6675ZM16 0H84L77.8687 67.5L50 75L22.1313 67.5L16 0Z" fill="black"/>
<path d="M29.7889 99V87.8H31.8609V92.24H36.5969V87.8H38.6689V99H36.5969V94.216H31.8609V99H29.7889ZM43.7369 99V89.792H40.5609V87.8H49.0009V89.792H45.8089V99H43.7369ZM56.0347 99.192L53.1707 92.952C53.1334 92.872 53.0934 92.7787 53.0507 92.672C53.008 92.5653 52.9707 92.4587 52.9387 92.352C52.944 92.4373 52.9467 92.5387 52.9467 92.656C52.952 92.7733 52.9547 92.8773 52.9547 92.968V99H50.8827V87.8H52.9547L55.7947 94.152C55.848 94.2693 55.896 94.3867 55.9387 94.504C55.9867 94.616 56.032 94.7333 56.0747 94.856C56.1174 94.7333 56.16 94.6133 56.2027 94.496C56.2454 94.3787 56.2907 94.264 56.3387 94.152L59.2347 87.8H61.1787V99H59.1067V92.952C59.1067 92.856 59.1067 92.7493 59.1067 92.632C59.112 92.5147 59.1147 92.4187 59.1147 92.344C59.0827 92.44 59.0427 92.544 58.9947 92.656C58.952 92.7627 58.9094 92.8613 58.8667 92.952L56.0347 99.192ZM63.8046 99V87.8H65.8766V96.992H71.2926V99H63.8046Z" fill="black"/>
</svg>
