<svg width="100" height="104" viewBox="0 0 100 104" fill="none" xmlns="http://www.w3.org/2000/svg">
<path d="M12.5 0C37.5169 0 62.4831 0 87.5 0C87.5 25.0169 87.5 50.0338 87.5 75C62.5338 75 37.5169 75 12.5 75C12.5 49.9325 12.5 24.9662 12.5 0ZM79.5999 39.7029C78.0807 36.9683 76.0044 35.0945 73.0165 34.4362C70.8896 33.9298 68.7627 33.9298 66.6357 34.3856C59.7485 35.8035 56.8113 44.1087 61.2677 49.6286C62.8376 51.553 64.9139 52.7178 67.0915 53.7306C69.0159 54.6421 70.9909 55.503 72.9153 56.4652C74.2319 57.1236 74.789 58.339 74.6371 59.8076C74.4851 61.2762 73.4723 62.0864 72.2063 62.5422C69.3704 63.555 66.0787 62.6435 64.1543 60.2633C63.7492 59.7569 63.344 59.1999 62.9389 58.6428C61.0145 59.7569 59.1408 60.8204 57.267 61.9345C58.4318 64.2134 60.0523 66.0365 62.2806 67.2519C66.0787 69.3282 70.0793 69.632 74.1813 68.6192C76.8653 67.9608 79.1442 66.5935 80.5621 64.1121C83.1955 59.4024 81.6762 53.528 77.0172 50.6415C74.9409 49.3754 72.6114 48.5145 70.4338 47.4004C69.3704 46.8433 68.2562 46.3369 67.3447 45.628C65.7242 44.3113 66.028 41.6779 67.8511 40.6651C69.6236 39.6523 72.105 40.26 73.4723 42.0324C73.7762 42.3869 73.9787 42.792 74.2826 43.1972C76.0044 42.0324 77.7768 40.8677 79.5999 39.7029ZM32.2502 62.6941C33.263 64.8717 34.7316 66.5935 36.8079 67.7076C39.4919 69.1762 42.4291 69.4294 45.417 68.9737C48.1009 68.5685 50.3292 67.3531 51.7978 64.9223C53.0132 62.8967 53.3677 60.6685 53.3677 58.2883C53.3677 50.5908 53.3677 42.8933 53.3677 35.1958C53.3677 34.9932 53.3677 34.74 53.3677 34.4868C50.9875 34.4868 48.7086 34.4868 46.3285 34.4868C46.3285 34.7907 46.3285 35.0439 46.3285 35.3477C46.3285 42.944 46.3285 50.4895 46.3285 58.0858C46.3285 58.7947 46.2779 59.5544 46.1766 60.2633C45.974 61.4281 45.3663 62.289 44.2016 62.6435C42.024 63.3018 40.2515 62.6435 38.9855 60.7698C38.6816 60.2633 38.3778 59.7569 38.0233 59.2505C36.0483 60.4153 34.1745 61.5294 32.2502 62.6941Z" fill="black"/>
<path d="M14.0052 99.192C13.2052 99.192 12.4852 98.976 11.8452 98.544C11.2052 98.112 10.7145 97.512 10.3732 96.744L12.1652 95.904C12.3892 96.3147 12.6425 96.6347 12.9252 96.864C13.2079 97.088 13.5705 97.2 14.0132 97.2C14.2319 97.2 14.4399 97.168 14.6372 97.104C14.8345 97.04 15.0132 96.9307 15.1732 96.776C15.3385 96.6213 15.4665 96.4053 15.5572 96.128C15.6532 95.8453 15.7012 95.4853 15.7012 95.048V87.8H17.7812V95.136C17.7812 95.9307 17.6665 96.592 17.4372 97.12C17.2079 97.6427 16.9039 98.056 16.5252 98.36C16.1519 98.6587 15.7439 98.872 15.3012 99C14.8639 99.128 14.4319 99.192 14.0052 99.192ZM22.7031 99.192C21.8124 99.192 21.1057 98.952 20.5831 98.472C20.0657 97.9867 19.8071 97.3307 19.8071 96.504C19.8071 95.9707 19.9404 95.504 20.2071 95.104C20.4791 94.6987 20.8551 94.3867 21.3351 94.168C21.8204 93.944 22.3857 93.832 23.0311 93.832C23.3884 93.832 23.7324 93.8667 24.0631 93.936C24.3991 94 24.6924 94.0933 24.9431 94.216V93.704C24.9431 93.2453 24.8124 92.9013 24.5511 92.672C24.2951 92.4373 23.9164 92.32 23.4151 92.32C23.0151 92.32 22.6044 92.392 22.1831 92.536C21.7617 92.68 21.3351 92.8933 20.9031 93.176L20.3031 91.6C20.7724 91.2907 21.2951 91.0533 21.8711 90.888C22.4471 90.7173 23.0284 90.632 23.6151 90.632C24.7137 90.632 25.5351 90.8933 26.0791 91.416C26.6231 91.9333 26.8951 92.7067 26.8951 93.736V99H24.9431V98.344C24.6657 98.6213 24.3351 98.832 23.9511 98.976C23.5724 99.12 23.1564 99.192 22.7031 99.192ZM23.1671 97.504C23.4977 97.504 23.8151 97.44 24.1191 97.312C24.4284 97.1787 24.7031 96.992 24.9431 96.752V95.784C24.7137 95.672 24.4577 95.5867 24.1751 95.528C23.8977 95.464 23.6204 95.432 23.3431 95.432C22.8471 95.432 22.4551 95.528 22.1671 95.72C21.8844 95.9067 21.7431 96.168 21.7431 96.504C21.7431 96.8187 21.8684 97.064 22.1191 97.24C22.3697 97.416 22.7191 97.504 23.1671 97.504ZM31.2603 99L28.2683 90.824H30.3403L32.0523 95.688C32.1003 95.8053 32.143 95.9307 32.1803 96.064C32.2176 96.1973 32.255 96.3307 32.2923 96.464C32.3296 96.3307 32.367 96.1973 32.4043 96.064C32.447 95.9307 32.487 95.8053 32.5243 95.688L34.2283 90.824H36.2923L33.3003 99H31.2603ZM40.0312 99.192C39.1405 99.192 38.4339 98.952 37.9112 98.472C37.3939 97.9867 37.1352 97.3307 37.1352 96.504C37.1352 95.9707 37.2685 95.504 37.5352 95.104C37.8072 94.6987 38.1832 94.3867 38.6632 94.168C39.1485 93.944 39.7139 93.832 40.3592 93.832C40.7165 93.832 41.0605 93.8667 41.3912 93.936C41.7272 94 42.0205 94.0933 42.2712 94.216V93.704C42.2712 93.2453 42.1405 92.9013 41.8792 92.672C41.6232 92.4373 41.2445 92.32 40.7432 92.32C40.3432 92.32 39.9325 92.392 39.5112 92.536C39.0899 92.68 38.6632 92.8933 38.2312 93.176L37.6312 91.6C38.1005 91.2907 38.6232 91.0533 39.1992 90.888C39.7752 90.7173 40.3565 90.632 40.9432 90.632C42.0419 90.632 42.8632 90.8933 43.4072 91.416C43.9512 91.9333 44.2232 92.7067 44.2232 93.736V99H42.2712V98.344C41.9939 98.6213 41.6632 98.832 41.2792 98.976C40.9005 99.12 40.4845 99.192 40.0312 99.192ZM40.4952 97.504C40.8259 97.504 41.1432 97.44 41.4472 97.312C41.7565 97.1787 42.0312 96.992 42.2712 96.752V95.784C42.0419 95.672 41.7859 95.5867 41.5032 95.528C41.2259 95.464 40.9485 95.432 40.6712 95.432C40.1752 95.432 39.7832 95.528 39.4952 95.72C39.2125 95.9067 39.0712 96.168 39.0712 96.504C39.0712 96.8187 39.1965 97.064 39.4472 97.24C39.6979 97.416 40.0472 97.504 40.4952 97.504ZM50.2494 99.192C49.5508 99.192 48.9161 99.0693 48.3454 98.824C47.7748 98.5787 47.2841 98.232 46.8734 97.784C46.4681 97.3307 46.1641 96.7973 45.9614 96.184L47.8414 95.488C48.0814 96 48.4148 96.4213 48.8414 96.752C49.2734 97.0773 49.7588 97.24 50.2974 97.24C50.8681 97.24 51.3214 97.12 51.6574 96.88C51.9988 96.64 52.1694 96.2907 52.1694 95.832C52.1694 95.5173 52.0681 95.256 51.8654 95.048C51.6681 94.8347 51.3988 94.6533 51.0574 94.504C50.7214 94.3493 50.3401 94.2 49.9134 94.056C49.5028 93.9173 49.0894 93.7627 48.6734 93.592C48.2574 93.4213 47.8761 93.2133 47.5294 92.968C47.1828 92.7173 46.9028 92.4027 46.6894 92.024C46.4814 91.6453 46.3774 91.1813 46.3774 90.632C46.3774 90.0827 46.5241 89.5787 46.8174 89.12C47.1108 88.6613 47.5348 88.296 48.0894 88.024C48.6494 87.7467 49.3268 87.608 50.1214 87.608C50.7721 87.608 51.3481 87.72 51.8494 87.944C52.3561 88.1627 52.7748 88.4613 53.1054 88.84C53.4361 89.2187 53.6654 89.648 53.7934 90.128L51.9374 90.744C51.7881 90.408 51.5588 90.128 51.2494 89.904C50.9454 89.6747 50.5321 89.56 50.0094 89.56C49.5188 89.56 49.1374 89.656 48.8654 89.848C48.5934 90.04 48.4574 90.312 48.4574 90.664C48.4574 90.904 48.5481 91.1093 48.7294 91.28C48.9161 91.4453 49.1641 91.5947 49.4734 91.728C49.7881 91.8613 50.1428 91.9973 50.5374 92.136C50.9801 92.2853 51.4201 92.456 51.8574 92.648C52.3001 92.8347 52.7001 93.064 53.0574 93.336C53.4201 93.608 53.7108 93.9467 53.9294 94.352C54.1481 94.752 54.2574 95.2427 54.2574 95.824C54.2574 96.5387 54.0788 97.1467 53.7214 97.648C53.3694 98.1493 52.8921 98.5333 52.2894 98.8C51.6868 99.0613 51.0068 99.192 50.2494 99.192ZM59.2927 99.192C58.5407 99.192 57.89 99.0187 57.3407 98.672C56.7914 98.3253 56.3674 97.8347 56.0687 97.2C55.77 96.56 55.6207 95.8 55.6207 94.92C55.6207 94.04 55.77 93.28 56.0687 92.64C56.3727 92 56.802 91.5067 57.3567 91.16C57.9114 90.808 58.5647 90.632 59.3167 90.632C60.1647 90.632 60.8687 90.8293 61.4287 91.224C61.994 91.6133 62.402 92.192 62.6527 92.96L60.7567 93.6C60.6287 93.2587 60.442 92.9973 60.1967 92.816C59.9514 92.6293 59.6687 92.536 59.3487 92.536C58.8314 92.536 58.418 92.7493 58.1087 93.176C57.8047 93.6027 57.6527 94.184 57.6527 94.92C57.6527 95.6453 57.802 96.2213 58.1007 96.648C58.3994 97.0747 58.802 97.288 59.3087 97.288C59.666 97.288 59.97 97.1867 60.2207 96.984C60.4767 96.7813 60.666 96.4853 60.7887 96.096L62.6767 96.664C62.4367 97.5013 62.0287 98.1333 61.4527 98.56C60.882 98.9813 60.162 99.192 59.2927 99.192ZM64.6308 99V90.824H66.6308V91.704C66.7801 91.3893 67.0148 91.1333 67.3348 90.936C67.6548 90.7333 67.9908 90.632 68.3428 90.632C68.9241 90.632 69.4148 90.832 69.8148 91.232L69.5348 93.064C69.3161 92.8827 69.1028 92.7547 68.8948 92.68C68.6868 92.6053 68.4575 92.568 68.2068 92.568C67.8761 92.568 67.5935 92.6453 67.3588 92.8C67.1241 92.9547 66.9428 93.1787 66.8148 93.472C66.6921 93.7653 66.6308 94.1173 66.6308 94.528V99H64.6308ZM71.2249 99V90.824H73.2249V99H71.2249ZM72.2249 89.8C71.9049 89.8 71.6276 89.6853 71.3929 89.456C71.1636 89.2213 71.0489 88.944 71.0489 88.624C71.0489 88.304 71.1636 88.032 71.3929 87.808C71.6223 87.5787 71.8996 87.464 72.2249 87.464C72.5609 87.464 72.8409 87.576 73.0649 87.8C73.2889 88.024 73.4009 88.2987 73.4009 88.624C73.4009 88.9493 73.2863 89.2267 73.0569 89.456C72.8329 89.6853 72.5556 89.8 72.2249 89.8ZM75.7402 102.248V90.824H77.7402V91.424C78.1882 90.896 78.7882 90.632 79.5402 90.632C80.2389 90.632 80.8415 90.8053 81.3482 91.152C81.8549 91.4933 82.2442 91.984 82.5162 92.624C82.7882 93.264 82.9242 94.0267 82.9242 94.912C82.9242 95.7707 82.7829 96.5227 82.5002 97.168C82.2175 97.808 81.8202 98.3067 81.3082 98.664C80.7962 99.016 80.1989 99.192 79.5162 99.192C79.1429 99.192 78.8069 99.1253 78.5082 98.992C78.2095 98.8533 77.9535 98.6507 77.7402 98.384V101.344L75.7402 102.248ZM79.2202 97.28C79.7642 97.28 80.1829 97.0747 80.4762 96.664C80.7695 96.248 80.9162 95.664 80.9162 94.912C80.9162 94.16 80.7669 93.576 80.4682 93.16C80.1695 92.744 79.7535 92.536 79.2202 92.536C78.8949 92.536 78.6095 92.5947 78.3642 92.712C78.1242 92.8293 77.9162 93.008 77.7402 93.248V96.552C77.8842 96.7813 78.0869 96.96 78.3482 97.088C78.6149 97.216 78.9055 97.28 79.2202 97.28ZM87.2336 99.192C86.5829 99.192 86.0949 99.0133 85.7696 98.656C85.4442 98.2987 85.2816 97.7653 85.2816 97.056V92.576H84.0896V90.824H85.2816V88.4L87.2656 87.448V90.824H89.1216V92.576H87.2656V96.696C87.2656 96.952 87.3162 97.1413 87.4176 97.264C87.5242 97.3867 87.6896 97.448 87.9136 97.448C88.3082 97.448 88.7402 97.3253 89.2096 97.08L88.9776 98.824C88.7322 98.9467 88.4656 99.0373 88.1776 99.096C87.8896 99.16 87.5749 99.192 87.2336 99.192Z" fill="black"/>
</svg>
