<svg width="100" height="75" viewBox="0 0 100 75" fill="none" xmlns="http://www.w3.org/2000/svg">
<g clip-path="url(#clip0_105207_2189)">
<path d="M74.7862 31.5181L50.7694 45.1983C50.3371 45.4526 49.8031 45.4526 49.3582 45.1983L25.3414 31.5181C24.4005 30.9841 24.4005 29.6237 25.3414 29.077L49.3582 15.3967C49.7904 15.1424 50.3244 15.1424 50.7694 15.3967L74.7862 29.077C75.727 29.6109 75.727 30.9713 74.7862 31.5181Z" fill="black"/>
<path d="M70.6289 36.1205V47.3978C70.6289 47.9064 70.3619 48.3641 69.9169 48.6184L50.7696 59.527C50.3373 59.7813 49.8033 59.7813 49.3583 59.527L30.211 48.6184C29.766 48.3641 29.499 47.9064 29.499 47.3978V36.1205L40.1152 42.1597L49.3583 47.436C49.7906 47.6903 50.3246 47.6903 50.7696 47.436L60.0127 42.1597L70.6289 36.1205Z" fill="black"/>
<path d="M81.817 17.5072L82.4781 17.0495C83.2791 16.4901 83.1774 15.2823 82.3001 14.8627L77.0365 12.358C76.1465 11.9385 75.1421 12.6377 75.2184 13.6167L75.727 19.427C75.816 20.3933 76.9221 20.9146 77.7231 20.3552L78.6639 19.7067C87.0297 33.1836 84.7794 51.1358 73.0825 62.0699C61.5763 72.8259 43.8402 74.1355 30.9101 65.1848C30.0455 64.5872 28.8504 64.8034 28.2528 65.6679C27.6553 66.5325 27.8714 67.7276 28.736 68.3252C35.1311 72.7496 42.5688 74.9237 49.9938 74.9237C59.2878 74.9237 68.5563 71.5164 75.6888 64.8542C88.7461 52.6361 91.2635 32.5352 81.817 17.5072Z" fill="black"/>
<path d="M71.3909 6.59834C56.9986 -3.36945 37.2537 -1.90734 24.438 10.0693C11.0501 22.5926 8.64717 42.6044 18.6277 57.8867L17.6995 58.5224C16.8986 59.0818 17.0003 60.2896 17.8775 60.7092L23.1411 63.2139C24.0311 63.6334 25.0355 62.9342 24.9593 61.9552L24.4507 56.1449C24.3617 55.1786 23.2556 54.6573 22.4546 55.2167L21.768 55.6999C12.8936 41.9815 15.0423 24.0674 27.0444 12.8536C38.5505 2.09758 56.2866 0.775319 69.2168 9.7387C70.0813 10.3363 71.2764 10.1201 71.874 9.25557C72.4715 8.39102 72.2554 7.1959 71.3909 6.59834Z" fill="black"/>
</g>
<defs>
<clipPath id="clip0_105207_2189">
<rect width="75" height="74.9237" fill="white" transform="translate(12.5)"/>
</clipPath>
</defs>
</svg>
