<svg width="100" height="123" viewBox="0 0 100 123" fill="none" xmlns="http://www.w3.org/2000/svg">
<path d="M22.375 12.25V62.875C16.25 56.125 12.5 47.25 12.5 37.5C12.5 27.75 16.25 18.875 22.375 12.25Z" fill="black"/>
<path d="M26.375 17.75L48 61.125H26.375V17.75Z" fill="black"/>
<path d="M50 56.25L28.75 13.875H71.25L50 56.25Z" fill="black"/>
<path d="M50 0C59.75 0 68.625 3.75 75.25 9.875H24.75C31.375 3.75 40.25 0 50 0Z" fill="black"/>
<path d="M73.625 61.125H52L73.625 17.75V61.125Z" fill="black"/>
<path d="M75.25 65.125C68.625 71.25 59.75 75 50 75C40.25 75 31.375 71.25 24.75 65.125H75.25Z" fill="black"/>
<path d="M77.625 62.75V12.25C83.75 18.875 87.5 27.75 87.5 37.5C87.5 47.25 83.75 56.125 77.625 62.75Z" fill="black"/>
<path d="M26.375 17.75L48 61.125H26.375V17.75Z" fill="black"/>
<path d="M50 56.25L28.75 13.875H71.25L50 56.25Z" fill="black"/>
<path d="M52 61.125L73.625 17.75V61.125H52Z" fill="black"/>
<path d="M28.75 13.875H71.25L50 56.25L28.75 13.875Z" fill="black"/>
<path d="M25.7456 99.192L22.8816 92.952C22.8443 92.872 22.8043 92.7787 22.7616 92.672C22.719 92.5653 22.6816 92.4587 22.6496 92.352C22.655 92.4373 22.6576 92.5387 22.6576 92.656C22.663 92.7733 22.6656 92.8773 22.6656 92.968V99H20.5936V87.8H22.6656L25.5056 94.152C25.559 94.2693 25.607 94.3867 25.6496 94.504C25.6976 94.616 25.743 94.7333 25.7856 94.856C25.8283 94.7333 25.871 94.6133 25.9136 94.496C25.9563 94.3787 26.0016 94.264 26.0496 94.152L28.9456 87.8H30.8896V99H28.8176V92.952C28.8176 92.856 28.8176 92.7493 28.8176 92.632C28.823 92.5147 28.8256 92.4187 28.8256 92.344C28.7936 92.44 28.7536 92.544 28.7056 92.656C28.663 92.7627 28.6203 92.8613 28.5776 92.952L25.7456 99.192ZM35.8984 99.192C35.0077 99.192 34.301 98.952 33.7784 98.472C33.261 97.9867 33.0024 97.3307 33.0024 96.504C33.0024 95.9707 33.1357 95.504 33.4024 95.104C33.6744 94.6987 34.0504 94.3867 34.5304 94.168C35.0157 93.944 35.581 93.832 36.2264 93.832C36.5837 93.832 36.9277 93.8667 37.2584 93.936C37.5944 94 37.8877 94.0933 38.1384 94.216V93.704C38.1384 93.2453 38.0077 92.9013 37.7464 92.672C37.4904 92.4373 37.1117 92.32 36.6104 92.32C36.2104 92.32 35.7997 92.392 35.3784 92.536C34.957 92.68 34.5304 92.8933 34.0984 93.176L33.4984 91.6C33.9677 91.2907 34.4904 91.0533 35.0664 90.888C35.6424 90.7173 36.2237 90.632 36.8104 90.632C37.909 90.632 38.7304 90.8933 39.2744 91.416C39.8184 91.9333 40.0904 92.7067 40.0904 93.736V99H38.1384V98.344C37.861 98.6213 37.5304 98.832 37.1464 98.976C36.7677 99.12 36.3517 99.192 35.8984 99.192ZM36.3624 97.504C36.693 97.504 37.0104 97.44 37.3144 97.312C37.6237 97.1787 37.8984 96.992 38.1384 96.752V95.784C37.909 95.672 37.653 95.5867 37.3704 95.528C37.093 95.464 36.8157 95.432 36.5384 95.432C36.0424 95.432 35.6504 95.528 35.3624 95.72C35.0797 95.9067 34.9384 96.168 34.9384 96.504C34.9384 96.8187 35.0637 97.064 35.3144 97.24C35.565 97.416 35.9144 97.504 36.3624 97.504ZM44.5383 99.192C43.8876 99.192 43.3996 99.0133 43.0743 98.656C42.7489 98.2987 42.5863 97.7653 42.5863 97.056V92.576H41.3943V90.824H42.5863V88.4L44.5703 87.448V90.824H46.4263V92.576H44.5703V96.696C44.5703 96.952 44.6209 97.1413 44.7223 97.264C44.8289 97.3867 44.9943 97.448 45.2183 97.448C45.6129 97.448 46.0449 97.3253 46.5143 97.08L46.2823 98.824C46.0369 98.9467 45.7703 99.0373 45.4823 99.096C45.1943 99.16 44.8796 99.192 44.5383 99.192ZM51.7254 99.192C50.9414 99.192 50.264 99.016 49.6934 98.664C49.128 98.312 48.6907 97.816 48.3814 97.176C48.0774 96.5307 47.9254 95.7733 47.9254 94.904C47.9254 94.024 48.08 93.264 48.3894 92.624C48.704 91.984 49.144 91.4933 49.7094 91.152C50.28 90.8053 50.952 90.632 51.7254 90.632C52.3867 90.632 52.9867 90.7707 53.5254 91.048C54.064 91.3253 54.4934 91.752 54.8134 92.328C55.1334 92.8987 55.2934 93.6267 55.2934 94.512C55.2934 94.6507 55.288 94.8213 55.2774 95.024C55.272 95.2213 55.2587 95.4213 55.2374 95.624H49.9014C49.9227 95.9973 50.008 96.3253 50.1574 96.608C50.312 96.8853 50.5227 97.1013 50.7894 97.256C51.056 97.4107 51.3707 97.488 51.7334 97.488C52.1227 97.488 52.4614 97.424 52.7494 97.296C53.0374 97.1627 53.3094 96.952 53.5654 96.664L54.7174 97.856C54.3654 98.256 53.9414 98.5787 53.4454 98.824C52.9494 99.0693 52.376 99.192 51.7254 99.192ZM49.9094 94.064H53.3574C53.3307 93.7067 53.2507 93.4 53.1174 93.144C52.984 92.8827 52.7974 92.6827 52.5574 92.544C52.3174 92.4053 52.0267 92.336 51.6854 92.336C51.216 92.336 50.816 92.48 50.4854 92.768C50.1547 93.056 49.9627 93.488 49.9094 94.064ZM57.3105 99V90.824H59.3105V91.704C59.4598 91.3893 59.6945 91.1333 60.0145 90.936C60.3345 90.7333 60.6705 90.632 61.0225 90.632C61.6038 90.632 62.0945 90.832 62.4945 91.232L62.2145 93.064C61.9958 92.8827 61.7825 92.7547 61.5745 92.68C61.3665 92.6053 61.1372 92.568 60.8865 92.568C60.5558 92.568 60.2732 92.6453 60.0385 92.8C59.8038 92.9547 59.6225 93.1787 59.4945 93.472C59.3718 93.7653 59.3105 94.1173 59.3105 94.528V99H57.3105ZM63.9046 99V90.824H65.9046V99H63.9046ZM64.9046 89.8C64.5846 89.8 64.3073 89.6853 64.0726 89.456C63.8433 89.2213 63.7286 88.944 63.7286 88.624C63.7286 88.304 63.8433 88.032 64.0726 87.808C64.302 87.5787 64.5793 87.464 64.9046 87.464C65.2406 87.464 65.5206 87.576 65.7446 87.8C65.9686 88.024 66.0806 88.2987 66.0806 88.624C66.0806 88.9493 65.966 89.2267 65.7366 89.456C65.5126 89.6853 65.2353 89.8 64.9046 89.8ZM70.8359 99.192C69.9452 99.192 69.2385 98.952 68.7159 98.472C68.1985 97.9867 67.9399 97.3307 67.9399 96.504C67.9399 95.9707 68.0732 95.504 68.3399 95.104C68.6119 94.6987 68.9879 94.3867 69.4679 94.168C69.9532 93.944 70.5185 93.832 71.1639 93.832C71.5212 93.832 71.8652 93.8667 72.1959 93.936C72.5319 94 72.8252 94.0933 73.0759 94.216V93.704C73.0759 93.2453 72.9452 92.9013 72.6839 92.672C72.4279 92.4373 72.0492 92.32 71.5479 92.32C71.1479 92.32 70.7372 92.392 70.3159 92.536C69.8945 92.68 69.4679 92.8933 69.0359 93.176L68.4359 91.6C68.9052 91.2907 69.4279 91.0533 70.0039 90.888C70.5799 90.7173 71.1612 90.632 71.7479 90.632C72.8465 90.632 73.6679 90.8933 74.2119 91.416C74.7559 91.9333 75.0279 92.7067 75.0279 93.736V99H73.0759V98.344C72.7985 98.6213 72.4679 98.832 72.0839 98.976C71.7052 99.12 71.2892 99.192 70.8359 99.192ZM71.2999 97.504C71.6305 97.504 71.9479 97.44 72.2519 97.312C72.5612 97.1787 72.8359 96.992 73.0759 96.752V95.784C72.8465 95.672 72.5905 95.5867 72.3079 95.528C72.0305 95.464 71.7532 95.432 71.4759 95.432C70.9799 95.432 70.5879 95.528 70.2999 95.72C70.0172 95.9067 69.8759 96.168 69.8759 96.504C69.8759 96.8187 70.0012 97.064 70.2519 97.24C70.5025 97.416 70.8519 97.504 71.2999 97.504ZM77.4061 99V88.352L79.4061 87.448V99H77.4061ZM25.8202 118V106.8H29.5962C30.5669 106.8 31.3935 106.96 32.0762 107.28C32.7589 107.595 33.3109 108.021 33.7322 108.56C34.1589 109.093 34.4682 109.693 34.6602 110.36C34.8575 111.021 34.9562 111.701 34.9562 112.4C34.9562 113.04 34.8629 113.688 34.6762 114.344C34.4949 115 34.1962 115.605 33.7802 116.16C33.3642 116.709 32.8069 117.155 32.1082 117.496C31.4149 117.832 30.5562 118 29.5322 118H25.8202ZM27.8922 116.032H29.7482C30.3189 116.032 30.7989 115.925 31.1882 115.712C31.5775 115.493 31.8895 115.208 32.1242 114.856C32.3642 114.499 32.5375 114.107 32.6442 113.68C32.7562 113.248 32.8122 112.821 32.8122 112.4C32.8122 111.952 32.7562 111.512 32.6442 111.08C32.5322 110.648 32.3589 110.256 32.1242 109.904C31.8895 109.552 31.5909 109.272 31.2282 109.064C30.8655 108.856 30.4309 108.752 29.9242 108.752H27.8922V116.032ZM40.2332 118.192C39.4492 118.192 38.7719 118.016 38.2012 117.664C37.6359 117.312 37.1985 116.816 36.8892 116.176C36.5852 115.531 36.4332 114.773 36.4332 113.904C36.4332 113.024 36.5879 112.264 36.8972 111.624C37.2119 110.984 37.6519 110.493 38.2172 110.152C38.7879 109.805 39.4599 109.632 40.2332 109.632C40.8945 109.632 41.4945 109.771 42.0332 110.048C42.5719 110.325 43.0012 110.752 43.3212 111.328C43.6412 111.899 43.8012 112.627 43.8012 113.512C43.8012 113.651 43.7959 113.821 43.7852 114.024C43.7799 114.221 43.7665 114.421 43.7452 114.624H38.4092C38.4305 114.997 38.5159 115.325 38.6652 115.608C38.8199 115.885 39.0305 116.101 39.2972 116.256C39.5639 116.411 39.8785 116.488 40.2412 116.488C40.6305 116.488 40.9692 116.424 41.2572 116.296C41.5452 116.163 41.8172 115.952 42.0732 115.664L43.2252 116.856C42.8732 117.256 42.4492 117.579 41.9532 117.824C41.4572 118.069 40.8839 118.192 40.2332 118.192ZM38.4172 113.064H41.8652C41.8385 112.707 41.7585 112.4 41.6252 112.144C41.4919 111.883 41.3052 111.683 41.0652 111.544C40.8252 111.405 40.5345 111.336 40.1932 111.336C39.7239 111.336 39.3239 111.48 38.9932 111.768C38.6625 112.056 38.4705 112.488 38.4172 113.064ZM48.3028 118.192C47.6628 118.192 47.0495 118.056 46.4628 117.784C45.8815 117.512 45.4201 117.147 45.0788 116.688L46.3908 115.584C46.6628 115.872 46.9775 116.101 47.3348 116.272C47.6921 116.437 48.0335 116.52 48.3588 116.52C48.7641 116.52 49.0761 116.453 49.2948 116.32C49.5135 116.181 49.6228 115.989 49.6228 115.744C49.6228 115.584 49.5695 115.443 49.4628 115.32C49.3615 115.192 49.1801 115.064 48.9188 114.936C48.6575 114.803 48.2895 114.651 47.8148 114.48C46.8975 114.144 46.2468 113.781 45.8628 113.392C45.4788 112.997 45.2868 112.499 45.2868 111.896C45.2868 111.224 45.5588 110.68 46.1028 110.264C46.6468 109.843 47.3561 109.632 48.2308 109.632C48.8281 109.632 49.3775 109.744 49.8788 109.968C50.3855 110.192 50.8201 110.52 51.1828 110.952L49.8788 112.032C49.3988 111.547 48.8388 111.304 48.1988 111.304C47.8735 111.304 47.6121 111.365 47.4148 111.488C47.2175 111.605 47.1188 111.765 47.1188 111.968C47.1188 112.165 47.2335 112.341 47.4628 112.496C47.6975 112.651 48.1321 112.832 48.7668 113.04C49.3961 113.237 49.9055 113.461 50.2948 113.712C50.6895 113.963 50.9775 114.253 51.1588 114.584C51.3455 114.915 51.4388 115.296 51.4388 115.728C51.4388 116.496 51.1588 117.099 50.5988 117.536C50.0441 117.973 49.2788 118.192 48.3028 118.192ZM53.5218 118V109.824H55.5218V118H53.5218ZM54.5218 108.8C54.2018 108.8 53.9245 108.685 53.6898 108.456C53.4605 108.221 53.3458 107.944 53.3458 107.624C53.3458 107.304 53.4605 107.032 53.6898 106.808C53.9191 106.579 54.1965 106.464 54.5218 106.464C54.8578 106.464 55.1378 106.576 55.3618 106.8C55.5858 107.024 55.6978 107.299 55.6978 107.624C55.6978 107.949 55.5831 108.227 55.3538 108.456C55.1298 108.685 54.8525 108.8 54.5218 108.8ZM60.9251 121.408L59.8211 119.736C60.5997 119.677 61.2024 119.589 61.6291 119.472C62.0611 119.355 62.3624 119.187 62.5331 118.968C62.7037 118.749 62.7891 118.464 62.7891 118.112V117.52C62.3731 117.968 61.7864 118.192 61.0291 118.192C60.3197 118.192 59.7091 118.021 59.1971 117.68C58.6851 117.333 58.2904 116.84 58.0131 116.2C57.7411 115.555 57.6051 114.789 57.6051 113.904C57.6051 113.04 57.7464 112.288 58.0291 111.648C58.3171 111.008 58.7171 110.512 59.2291 110.16C59.7464 109.808 60.3517 109.632 61.0451 109.632C61.4077 109.632 61.7384 109.688 62.0371 109.8C62.3411 109.912 62.5917 110.075 62.7891 110.288V109.824H64.7811V117.264C64.7811 117.989 64.7144 118.603 64.5811 119.104C64.4477 119.605 64.2291 120.016 63.9251 120.336C63.6264 120.656 63.2317 120.899 62.7411 121.064C62.2504 121.235 61.6451 121.349 60.9251 121.408ZM61.3571 116.28C61.6397 116.28 61.9037 116.216 62.1491 116.088C62.3997 115.955 62.6131 115.776 62.7891 115.552V112.256C62.6397 112.048 62.4344 111.877 62.1731 111.744C61.9117 111.605 61.6477 111.536 61.3811 111.536C60.8051 111.536 60.3651 111.739 60.0611 112.144C59.7624 112.544 59.6131 113.131 59.6131 113.904C59.6131 114.405 59.6797 114.835 59.8131 115.192C59.9517 115.544 60.1517 115.813 60.4131 116C60.6744 116.187 60.9891 116.28 61.3571 116.28ZM67.2871 118V109.824H69.2871V110.608C69.5484 110.283 69.8604 110.04 70.2231 109.88C70.5911 109.715 71.0097 109.632 71.4791 109.632C72.3911 109.632 73.0951 109.915 73.5911 110.48C74.0871 111.04 74.3351 111.848 74.3351 112.904V118H72.3431V113.52C72.3431 112.832 72.2231 112.331 71.9831 112.016C71.7484 111.696 71.3804 111.536 70.8791 111.536C70.3351 111.536 69.9324 111.696 69.6711 112.016C69.4151 112.331 69.2871 112.821 69.2871 113.488V118H67.2871Z" fill="black"/>
</svg>
