<svg width="536" height="98" viewBox="0 0 536 98" fill="none" xmlns="http://www.w3.org/2000/svg">
<path d="M77.5913 68.072H65.8913L108.479 24.08H127.979V74H108.479V39.992L114.329 42.41L83.5193 74H60.1193L29.2313 42.488L35.1593 40.07V74H15.6593V24.08H35.1593L77.5913 68.072ZM134.615 35.78H154.505L177.281 72.44L161.135 74L134.615 35.78ZM206.375 35.78L168.389 89.6H149.279L165.581 67.526L186.485 35.78H206.375ZM235.568 60.272H252.806C253.534 61.624 254.912 62.56 256.94 63.08C259.02 63.6 261.984 63.86 265.832 63.86C268.796 63.86 270.98 63.704 272.384 63.392C273.84 63.08 274.776 62.664 275.192 62.144C275.66 61.624 275.894 61.078 275.894 60.506C275.894 59.622 275.4 59.024 274.412 58.712C273.476 58.348 271.864 58.14 269.576 58.088C267.288 57.984 264.142 57.932 260.138 57.932C256.342 57.932 252.936 57.776 249.92 57.464C246.956 57.1 244.434 56.554 242.354 55.826C240.274 55.046 238.688 53.98 237.596 52.628C236.504 51.276 235.958 49.586 235.958 47.558C235.958 45.062 236.764 42.982 238.376 41.318C239.988 39.602 242.172 38.276 244.928 37.34C247.684 36.352 250.856 35.65 254.444 35.234C258.084 34.818 261.88 34.61 265.832 34.61C272.384 34.61 277.74 35.286 281.9 36.638C286.06 37.938 289.128 39.706 291.104 41.942C293.08 44.178 294.042 46.7 293.99 49.508H277.22C276.648 48.156 275.556 47.22 273.944 46.7C272.384 46.18 269.68 45.92 265.832 45.92C262.192 45.92 259.54 46.206 257.876 46.778C256.264 47.298 255.458 48.156 255.458 49.352C255.458 50.132 255.848 50.73 256.628 51.146C257.46 51.51 258.994 51.77 261.23 51.926C263.518 52.082 266.846 52.16 271.214 52.16C274.23 52.16 277.168 52.264 280.028 52.472C282.94 52.68 285.54 53.122 287.828 53.798C290.168 54.474 292.014 55.514 293.366 56.918C294.718 58.322 295.394 60.246 295.394 62.69C295.394 65.654 294.172 68.072 291.728 69.944C289.336 71.764 285.93 73.09 281.51 73.922C277.09 74.754 271.864 75.17 265.832 75.17C260.58 75.17 256.134 74.832 252.494 74.156C248.906 73.48 245.968 72.596 243.68 71.504C241.392 70.36 239.624 69.138 238.376 67.838C237.18 66.486 236.374 65.16 235.958 63.86C235.594 62.508 235.464 61.312 235.568 60.272ZM303.178 20.18H321.898V74H303.178V20.18ZM369.322 35.78L338.434 57.23L338.824 47.09L371.974 74H348.262L322.21 52.238L344.518 35.78H369.322ZM397.276 15.734V27.434H377.464V15.734H397.276ZM378.01 35.78H396.73V74H378.01V35.78ZM407.046 20.18H425.766V74H407.046V20.18ZM435.933 20.18H454.653V74H435.933V20.18ZM463.261 60.272H480.499C481.227 61.624 482.605 62.56 484.633 63.08C486.713 63.6 489.677 63.86 493.525 63.86C496.489 63.86 498.673 63.704 500.077 63.392C501.533 63.08 502.469 62.664 502.885 62.144C503.353 61.624 503.587 61.078 503.587 60.506C503.587 59.622 503.093 59.024 502.105 58.712C501.169 58.348 499.557 58.14 497.269 58.088C494.981 57.984 491.835 57.932 487.831 57.932C484.035 57.932 480.629 57.776 477.613 57.464C474.649 57.1 472.127 56.554 470.047 55.826C467.967 55.046 466.381 53.98 465.289 52.628C464.197 51.276 463.651 49.586 463.651 47.558C463.651 45.062 464.457 42.982 466.069 41.318C467.681 39.602 469.865 38.276 472.621 37.34C475.377 36.352 478.549 35.65 482.137 35.234C485.777 34.818 489.573 34.61 493.525 34.61C500.077 34.61 505.433 35.286 509.593 36.638C513.753 37.938 516.821 39.706 518.797 41.942C520.773 44.178 521.735 46.7 521.683 49.508H504.913C504.341 48.156 503.249 47.22 501.637 46.7C500.077 46.18 497.373 45.92 493.525 45.92C489.885 45.92 487.233 46.206 485.569 46.778C483.957 47.298 483.151 48.156 483.151 49.352C483.151 50.132 483.541 50.73 484.321 51.146C485.153 51.51 486.687 51.77 488.923 51.926C491.211 52.082 494.539 52.16 498.907 52.16C501.923 52.16 504.861 52.264 507.721 52.472C510.633 52.68 513.233 53.122 515.521 53.798C517.861 54.474 519.707 55.514 521.059 56.918C522.411 58.322 523.087 60.246 523.087 62.69C523.087 65.654 521.865 68.072 519.421 69.944C517.029 71.764 513.623 73.09 509.203 73.922C504.783 74.754 499.557 75.17 493.525 75.17C488.273 75.17 483.827 74.832 480.187 74.156C476.599 73.48 473.661 72.596 471.373 71.504C469.085 70.36 467.317 69.138 466.069 67.838C464.873 66.486 464.067 65.16 463.651 63.86C463.287 62.508 463.157 61.312 463.261 60.272Z" fill="black"/>
</svg>
