<svg width="219" height="98" viewBox="0 0 219 98" fill="none" xmlns="http://www.w3.org/2000/svg">
<g filter="url(#filter0_d_353_1050)">
<rect x="12" y="12" width="185" height="64" stroke="black" stroke-width="4" shape-rendering="crispEdges"/>
<path d="M78.395 50.276C77.176 50.276 76.1333 50.046 75.267 49.586C74.4007 49.1183 73.6953 48.4897 73.151 47.7C72.6067 46.9027 72.2042 46.0095 71.9435 45.0205C71.6905 44.0238 71.564 43.0003 71.564 41.95C71.564 40.9073 71.6982 39.8915 71.9665 38.9025C72.2425 37.9135 72.6565 37.0242 73.2085 36.2345C73.7682 35.4372 74.4773 34.8047 75.336 34.337C76.1947 33.8617 77.2143 33.624 78.395 33.624C79.3917 33.624 80.2197 33.7582 80.879 34.0265C81.546 34.2948 82.0942 34.6475 82.5235 35.0845C82.9528 35.5138 83.317 35.97 83.616 36.453L81.822 37.488C81.454 36.959 81.0132 36.499 80.4995 36.108C79.9858 35.7093 79.2843 35.51 78.395 35.51C77.498 35.51 76.7428 35.7055 76.1295 36.0965C75.5238 36.4798 75.037 36.9897 74.669 37.626C74.301 38.2623 74.0365 38.96 73.8755 39.719C73.7145 40.4703 73.634 41.214 73.634 41.95C73.634 42.778 73.726 43.5753 73.91 44.342C74.094 45.1087 74.3777 45.7948 74.761 46.4005C75.1443 47.0062 75.635 47.4853 76.233 47.838C76.8387 48.1907 77.5593 48.367 78.395 48.367C79.1233 48.367 79.7558 48.2098 80.2925 47.8955C80.8368 47.5812 81.2585 47.148 81.5575 46.596C81.8565 46.0363 82.006 45.3923 82.006 44.664V44.02H79.085V42.18H84.099V44.112C84.099 45.446 83.846 46.573 83.34 47.493C82.8417 48.4053 82.1593 49.0992 81.293 49.5745C80.4343 50.0422 79.4683 50.276 78.395 50.276ZM87.767 50V38.247H89.768V50H87.767ZM88.756 36.108C88.411 36.108 88.1158 35.9892 87.8705 35.7515C87.6328 35.5062 87.514 35.211 87.514 34.866C87.514 34.5057 87.6328 34.2028 87.8705 33.9575C88.1158 33.7045 88.411 33.578 88.756 33.578C89.1163 33.578 89.4153 33.7045 89.653 33.9575C89.8983 34.2028 90.021 34.5057 90.021 34.866C90.021 35.211 89.8983 35.5062 89.653 35.7515C89.4153 35.9892 89.1163 36.108 88.756 36.108ZM96.8498 50.276C96.0448 50.276 95.4276 50.0345 94.9983 49.5515C94.5766 49.0685 94.3658 48.3747 94.3658 47.47V39.995H92.4568V38.247H94.3658V34.36L96.3668 33.394V38.247H99.2648V39.995H96.3668V46.803C96.3668 47.3627 96.4626 47.7728 96.6543 48.0335C96.8536 48.2865 97.1641 48.413 97.5858 48.413C98.1225 48.413 98.7051 48.206 99.3338 47.792L99.1038 49.747C98.7588 49.931 98.3985 50.0652 98.0228 50.1495C97.6548 50.2338 97.2638 50.276 96.8498 50.276ZM101.827 50V34.314L103.828 33.394V39.466C104.188 38.9677 104.621 38.5958 105.127 38.3505C105.641 38.0975 106.22 37.971 106.864 37.971C107.884 37.971 108.7 38.1818 109.313 38.6035C109.934 39.0252 110.383 39.6308 110.659 40.4205C110.935 41.2025 111.073 42.1417 111.073 43.238V50H109.072V42.893C109.072 41.973 108.865 41.2293 108.451 40.662C108.045 40.0947 107.408 39.811 106.542 39.811C105.645 39.811 104.966 40.0678 104.506 40.5815C104.054 41.0875 103.828 41.8427 103.828 42.847V50H101.827ZM118.95 50.276C117.501 50.276 116.424 49.8467 115.718 48.988C115.021 48.1293 114.672 46.8107 114.672 45.032V38.247H116.673V45.331C116.673 46.3277 116.891 47.0905 117.328 47.6195C117.765 48.1485 118.39 48.413 119.203 48.413C120.1 48.413 120.775 48.1562 121.227 47.6425C121.687 47.1288 121.917 46.3737 121.917 45.377V38.247H123.918V50H121.917V48.873C121.541 49.356 121.116 49.7125 120.64 49.9425C120.173 50.1648 119.609 50.276 118.95 50.276ZM132.761 50.276C132.178 50.276 131.649 50.1725 131.174 49.9655C130.699 49.7585 130.223 49.4327 129.748 48.988V50H127.747V34.337L129.748 33.394V39.259C130.116 38.8527 130.557 38.5383 131.07 38.316C131.592 38.086 132.132 37.971 132.692 37.971C133.689 37.971 134.551 38.2202 135.279 38.7185C136.008 39.2168 136.571 39.926 136.97 40.846C137.369 41.766 137.568 42.8547 137.568 44.112C137.568 46.067 137.146 47.585 136.303 48.666C135.46 49.7393 134.279 50.276 132.761 50.276ZM132.485 48.413C133.466 48.413 134.218 48.0412 134.739 47.2975C135.26 46.5538 135.521 45.492 135.521 44.112C135.521 42.709 135.26 41.6433 134.739 40.915C134.225 40.179 133.474 39.811 132.485 39.811C131.956 39.811 131.435 39.9605 130.921 40.2595C130.407 40.5508 130.016 40.9227 129.748 41.375V46.826C130.039 47.309 130.426 47.6962 130.909 47.9875C131.4 48.2712 131.925 48.413 132.485 48.413Z" fill="black"/>
</g>
<defs>
<filter id="filter0_d_353_1050" x="0" y="0" width="219" height="98" filterUnits="userSpaceOnUse" color-interpolation-filters="sRGB">
<feFlood flood-opacity="0" result="BackgroundImageFix"/>
<feColorMatrix in="SourceAlpha" type="matrix" values="0 0 0 0 0 0 0 0 0 0 0 0 0 0 0 0 0 0 127 0" result="hardAlpha"/>
<feOffset dx="5" dy="5"/>
<feGaussianBlur stdDeviation="7.5"/>
<feComposite in2="hardAlpha" operator="out"/>
<feColorMatrix type="matrix" values="0 0 0 0 0 0 0 0 0 0 0 0 0 0 0 0 0 0 0.15 0"/>
<feBlend mode="normal" in2="BackgroundImageFix" result="effect1_dropShadow_353_1050"/>
<feBlend mode="normal" in="SourceGraphic" in2="effect1_dropShadow_353_1050" result="shape"/>
</filter>
</defs>
</svg>
