<svg width="100" height="104" viewBox="0 0 100 104" fill="none" xmlns="http://www.w3.org/2000/svg">
<path d="M41.0176 68.6146C36.0249 67.1931 31.634 64.5758 27.8004 60.9206C26.5968 61.3493 25.3709 61.778 24.1227 62.1841C23.5432 62.3646 22.9637 62.2969 22.3619 62.0713C21.292 61.6652 20.6456 60.8755 20.1776 59.9052C19.5312 58.6191 18.7065 57.4458 18.0601 56.1597C17.4806 54.9639 16.6337 53.926 16.1433 52.685C15.8981 52.0758 15.2518 51.6697 15.2518 50.9025C14.6723 49.9549 15.2295 49.12 15.5638 48.2852C15.653 48.0596 15.7644 47.7662 15.965 47.676C16.7674 47.315 17.1686 46.5027 17.8373 46.0063C18.1493 45.7807 18.4836 45.5325 18.8403 45.2617C18.3276 42.667 17.8818 40.0722 17.8818 37.4097C17.8818 34.7699 18.3499 32.2202 18.8403 29.6931C17.971 28.8809 17.1686 28.0912 16.3216 27.3466C15.4524 26.5794 14.9397 25.6318 15.0512 24.639C15.118 24.0975 15.274 23.5108 15.5415 23.0596C16.3662 21.7283 17.124 20.3294 17.9264 18.9756C18.5728 17.8926 19.13 16.7644 19.8433 15.704C20.2222 15.1625 20.4451 14.5307 20.824 13.9666C21.5595 12.9061 23.0306 12.3872 24.2341 12.7482C25.304 13.0641 26.307 13.5379 27.3992 13.741C27.5106 13.7635 27.5998 13.9215 27.7112 14.0343C31.5672 10.4016 35.9581 7.80686 40.9953 6.29513C41.1959 5.68592 41.2405 5.03159 41.4857 4.39982C41.664 3.92599 41.6194 3.33935 41.7086 2.8204C41.9537 1.46661 42.7784 0.676895 43.9597 0.270758C44.3832 0.135379 44.8067 0 45.3194 0C48.4398 0.0451264 51.5602 0.0451264 54.6807 0C55.5722 0 56.33 0.361011 57.0433 0.767148C57.6896 1.1056 58.0463 1.82762 58.2246 2.50451C58.5366 3.74549 58.7149 5.00903 58.9601 6.31769C63.9751 7.76173 68.366 10.3565 72.1997 14.0117C73.4032 13.583 74.6291 13.1543 75.8773 12.7482C76.4568 12.5677 77.0363 12.6354 77.6381 12.861C78.708 13.2671 79.3544 14.0569 79.8224 15.0271C80.4688 16.3132 81.2935 17.4865 81.9399 18.7726C82.5194 19.9684 83.3663 21.0063 83.8567 22.2473C84.1019 22.8565 84.7482 23.2626 84.7482 24.0298C85.3278 24.9774 84.7705 25.8123 84.4362 26.6471C84.347 26.8727 84.2356 27.1661 84.035 27.2563C83.2326 27.6173 82.8314 28.4296 82.1627 28.926C81.8507 29.1516 81.5164 29.3998 81.1597 29.6706C81.6724 32.2653 82.1182 34.8601 82.1182 37.5226C82.1182 40.1625 81.717 42.7121 81.1597 45.2392C82.029 46.0514 82.8314 46.8412 83.6784 47.5857C84.5476 48.3529 85.0603 49.3005 84.9488 50.2933C84.882 50.8348 84.7482 51.4215 84.4585 51.8727C83.6561 53.1814 82.8983 54.5352 82.1182 55.8664C81.1375 57.5135 80.3351 59.296 79.1983 60.8529C78.9977 61.7103 78.1953 61.778 77.6158 62.0939C76.9917 62.4323 76.3677 62.3421 75.6767 62.139C74.6514 61.8457 73.6707 61.3267 72.6008 61.1913C72.4894 61.1688 72.4002 61.0108 72.2888 60.898C68.4328 64.5758 64.0642 67.1931 58.9601 68.6597C58.7149 69.8782 58.492 71.1417 58.2246 72.3827C57.9571 73.6011 57.1547 74.3682 56.018 74.7292C55.5945 74.8646 55.1487 75 54.6584 75C51.5379 74.9549 48.4175 74.9549 45.2971 75C44.4055 75 43.6477 74.639 42.9345 74.2329C42.2881 73.8944 41.9092 73.1724 41.7754 72.4955C41.5303 71.1643 41.2851 69.9233 41.0176 68.6146ZM42.4664 48.7365C42.9122 48.4883 43.4248 48.3303 43.4471 47.7888C43.4917 46.9765 43.6031 46.1417 43.4248 45.3745C43.1128 44.0659 42.5555 42.8023 42.2212 41.4937C41.9983 40.6588 41.508 39.8691 41.5303 38.9666C40.817 37.1841 40.3712 35.3114 39.7694 33.5063C39.2791 32.0171 38.9225 30.4829 38.3875 29.0162C38.0978 28.204 38.0309 27.3014 37.496 26.5794C37.4514 26.5117 37.4291 26.4666 37.4291 26.4666C36.8273 26.0605 36.2032 26.1958 35.6683 26.1958C35.3563 26.4892 35.0888 26.7374 34.8436 26.963C34.8213 27.685 34.3087 28.2491 34.3978 28.9486C33.6177 30.7085 33.2834 32.6038 32.637 34.4088C32.3027 35.3339 32.1021 36.2816 31.8346 37.2292C31.5895 38.1769 31.0545 39.0343 31.0545 40.0496C30.2075 41.9675 29.7841 44.0208 29.16 46.0289C29.0039 46.5253 28.9148 46.9991 29.2268 47.4729C29.316 47.6083 29.2714 47.8114 29.2714 47.7888C29.628 48.1724 29.8955 48.4431 30.1184 48.7139C30.5419 48.7139 30.9877 48.7139 31.4557 48.7139C31.7678 48.3078 32.0798 47.9242 32.3696 47.5406C32.3027 46.2545 32.5702 45.3971 33.1497 44.0208C35.334 44.0208 37.5183 44.0208 39.7026 44.0208C39.8809 44.7428 39.97 45.4422 40.2152 46.0966C40.3267 46.3673 40.4381 46.6381 40.3935 46.9088C40.3267 47.7437 40.5941 48.398 41.5303 48.7139C41.7531 48.7365 42.0875 48.7365 42.4664 48.7365ZM47.682 48.7365C48.2838 48.6913 48.9747 48.8718 49.4651 48.3755C49.6434 48.1498 49.7994 47.9242 50.0223 47.6083C50.0223 45.352 50.0223 42.9829 50.0223 40.6137C51.6494 40.6137 53.2542 40.546 54.8367 40.6363C55.7951 40.6814 56.5752 40.3881 57.333 39.9143C57.6896 39.6886 58.0017 39.3502 58.3137 39.0343C59.1384 38.222 59.5396 37.2292 59.5619 36.056C59.5619 34.2058 59.5619 32.3782 59.5619 30.528C59.5619 30.2572 59.495 29.9639 59.4282 29.6931C59.183 28.7229 58.6703 28.0009 57.9794 27.3691C57.177 26.6245 56.2409 26.1733 55.1264 26.1733C52.6301 26.1733 50.156 26.1733 47.6374 26.1733C47.3922 26.444 47.147 26.7148 46.8573 26.9856C46.8573 33.935 46.8573 40.9296 46.8573 47.9468C47.147 48.1949 47.4145 48.4657 47.682 48.7365ZM63.7299 48.7365C65.2678 48.7365 66.828 48.7365 68.366 48.7365C68.6334 48.4657 68.9009 48.1949 69.1684 47.9468C69.1684 47.5181 69.1684 47.1119 69.1684 46.6832C69.1684 46.6381 69.1684 46.6155 69.1684 46.593C68.834 45.9612 68.3214 45.5776 67.6527 45.5099C67.6527 40.1173 67.6527 34.7473 67.6527 29.4901C68.1431 29.2419 68.5666 29.0162 69.0569 28.7455C69.1238 28.1588 69.1684 27.5496 69.213 27.1209C68.8563 26.7148 68.6112 26.4215 68.4106 26.1958C66.8058 26.1958 65.2455 26.1958 63.8636 26.1958C63.4847 26.5343 63.2173 26.7825 62.8829 27.0984C62.9498 27.6399 63.039 28.2491 63.1058 28.7681C63.6407 29.0388 64.0642 29.2644 64.4431 29.4675C64.4431 34.8375 64.4431 40.2076 64.4431 45.5325C64.2203 45.5776 63.9751 45.5325 63.8859 45.6453C63.5739 45.9612 63.039 46.0514 62.9275 46.5704C62.9275 47.0217 62.9275 47.4729 62.9275 47.9242C63.195 48.1949 63.4624 48.4657 63.7299 48.7365Z" fill="black"/>
<path d="M38.5213 40.5683C37.2063 40.6134 35.8243 40.636 34.4424 40.6811C34.3979 40.6811 34.331 40.7714 34.1973 40.8842C34.2196 39.4853 34.9997 38.3571 35.0888 37.071C35.7575 35.9428 35.8243 34.6116 36.2701 33.3481C36.4039 33.4835 36.6045 33.6188 36.6045 33.7317C36.6267 34.7019 37.184 35.5367 37.3623 36.4618C37.496 37.0936 37.8526 37.7028 37.9418 38.3345C38.0309 39.1468 38.5659 39.756 38.5213 40.5683Z" fill="black"/>
<path d="M56.4631 36.1917C56.3071 36.4399 56.1734 36.6881 55.9951 36.9138C55.683 37.2748 55.2818 37.4778 54.7692 37.4553C53.209 37.4327 51.6487 37.4553 50.0439 37.4553C50.0439 34.7703 50.0439 32.0852 50.0439 29.3325C51.671 29.3325 53.3427 29.31 54.9921 29.3325C55.7722 29.3551 56.4408 30.1674 56.4631 31.0248C56.4631 32.4463 56.4631 33.8677 56.4631 35.2892C56.4631 35.6051 56.4631 35.8984 56.4631 36.1917Z" fill="black"/>
<path d="M15.3983 99V87.8H20.4943C21.4276 87.8 22.1636 87.9627 22.7023 88.288C23.2463 88.608 23.633 89.032 23.8623 89.56C24.097 90.088 24.2143 90.656 24.2143 91.264C24.2143 91.6853 24.1316 92.112 23.9663 92.544C23.8063 92.976 23.561 93.3653 23.2303 93.712C22.8996 94.0587 22.4836 94.3147 21.9823 94.48L24.1903 99H21.8623L19.7423 94.76H17.4703V99H15.3983ZM17.4703 92.808H20.5263C20.9156 92.808 21.2223 92.736 21.4463 92.592C21.6756 92.4427 21.8383 92.2507 21.9343 92.016C22.0303 91.7813 22.0783 91.5333 22.0783 91.272C22.0783 91.0373 22.033 90.8027 21.9423 90.568C21.8516 90.3333 21.6943 90.1387 21.4703 89.984C21.2463 89.8293 20.9316 89.752 20.5263 89.752H17.4703V92.808ZM26.4296 99V87.8H33.9976V89.768H28.5016V92.232H31.7576V94.2H28.5016V97.016H34.3336V99H26.4296ZM39.9057 99.192C39.207 99.192 38.5724 99.0693 38.0017 98.824C37.431 98.5787 36.9404 98.232 36.5297 97.784C36.1244 97.3307 35.8204 96.7973 35.6177 96.184L37.4977 95.488C37.7377 96 38.071 96.4213 38.4977 96.752C38.9297 97.0773 39.415 97.24 39.9537 97.24C40.5244 97.24 40.9777 97.12 41.3137 96.88C41.655 96.64 41.8257 96.2907 41.8257 95.832C41.8257 95.5173 41.7244 95.256 41.5217 95.048C41.3244 94.8347 41.055 94.6533 40.7137 94.504C40.3777 94.3493 39.9964 94.2 39.5697 94.056C39.159 93.9173 38.7457 93.7627 38.3297 93.592C37.9137 93.4213 37.5324 93.2133 37.1857 92.968C36.839 92.7173 36.559 92.4027 36.3457 92.024C36.1377 91.6453 36.0337 91.1813 36.0337 90.632C36.0337 90.0827 36.1804 89.5787 36.4737 89.12C36.767 88.6613 37.191 88.296 37.7457 88.024C38.3057 87.7467 38.983 87.608 39.7777 87.608C40.4284 87.608 41.0044 87.72 41.5057 87.944C42.0124 88.1627 42.431 88.4613 42.7617 88.84C43.0924 89.2187 43.3217 89.648 43.4497 90.128L41.5937 90.744C41.4444 90.408 41.215 90.128 40.9057 89.904C40.6017 89.6747 40.1884 89.56 39.6657 89.56C39.175 89.56 38.7937 89.656 38.5217 89.848C38.2497 90.04 38.1137 90.312 38.1137 90.664C38.1137 90.904 38.2044 91.1093 38.3857 91.28C38.5724 91.4453 38.8204 91.5947 39.1297 91.728C39.4444 91.8613 39.799 91.9973 40.1937 92.136C40.6364 92.2853 41.0764 92.456 41.5137 92.648C41.9564 92.8347 42.3564 93.064 42.7137 93.336C43.0764 93.608 43.367 93.9467 43.5857 94.352C43.8044 94.752 43.9137 95.2427 43.9137 95.824C43.9137 96.5387 43.735 97.1467 43.3777 97.648C43.0257 98.1493 42.5484 98.5333 41.9457 98.8C41.343 99.0613 40.663 99.192 39.9057 99.192ZM48.2057 99V89.792H45.0297V87.8H53.4697V89.792H50.2777V99H48.2057ZM54.4902 95.224V93.312H58.6342V95.224H54.4902ZM60.1128 99L64.3768 87.8H66.3448L70.6248 99H68.3928L67.5048 96.632H63.2248L62.3528 99H60.1128ZM63.8968 94.736H66.8168L65.6968 91.736C65.6595 91.6453 65.6195 91.544 65.5768 91.432C65.5341 91.32 65.4941 91.208 65.4568 91.096C65.4195 90.9787 65.3875 90.8773 65.3608 90.792C65.3341 90.8773 65.3021 90.9787 65.2648 91.096C65.2275 91.208 65.1875 91.32 65.1448 91.432C65.1021 91.544 65.0621 91.6453 65.0248 91.736L63.8968 94.736ZM72.2733 99V87.8H77.0013C77.9453 87.8 78.6946 87.9733 79.2493 88.32C79.804 88.6613 80.2013 89.1013 80.4413 89.64C80.6813 90.1733 80.8013 90.7307 80.8013 91.312C80.8013 91.7173 80.7293 92.128 80.5853 92.544C80.4466 92.9547 80.2253 93.3333 79.9213 93.68C79.6226 94.0213 79.2306 94.2987 78.7453 94.512C78.2653 94.72 77.684 94.824 77.0013 94.824H74.3453V99H72.2733ZM74.3453 92.872H77.0973C77.4813 92.872 77.788 92.7947 78.0173 92.64C78.252 92.48 78.42 92.28 78.5213 92.04C78.6226 91.8 78.6733 91.5573 78.6733 91.312C78.6733 91.088 78.6253 90.856 78.5293 90.616C78.4386 90.3707 78.2786 90.1653 78.0493 90C77.82 89.8347 77.5026 89.752 77.0973 89.752H74.3453V92.872ZM82.5233 99V87.8H84.5953V99H82.5233Z" fill="black"/>
</svg>
