<svg width="116" height="230" viewBox="0 0 116 230" fill="none" xmlns="http://www.w3.org/2000/svg">
<style>
  #scroll-arrow {
    transform-box: fill-box;
    transform-origin: center;
    animation: scrollDownArrow 1.6s ease-in-out infinite;
  }

  @keyframes scrollDownArrow {
    0% {
      transform: translateY(-14px);
      opacity: 0;
    }
    15% {
      transform: translateY(0);
      opacity: 1;
    }
    72% {
      transform: translateY(18px);
      opacity: 0;
    }
    73% {
      transform: translateY(-14px);
      opacity: 0;
    }
    100% {
      transform: translateY(-14px);
      opacity: 0;
    }
  }
</style>
<g id="scroll-arrow">
<path d="M33 145.105L58 170.105L83 145.105" stroke="black" stroke-width="4"/>
<path d="M58 78V170.105" stroke="black" stroke-width="4"/>
</g>
<path d="M36.089 203.264C35.231 203.264 34.4537 203.117 33.757 202.824C33.0603 202.523 32.4663 202.12 31.975 201.614C31.491 201.101 31.1317 200.529 30.897 199.898L32.382 199.37C32.712 200.096 33.2033 200.683 33.856 201.13C34.5087 201.577 35.2677 201.801 36.133 201.801C37.1083 201.801 37.8893 201.559 38.476 201.075C39.07 200.591 39.367 199.887 39.367 198.963C39.367 198.34 39.1983 197.808 38.861 197.368C38.5237 196.921 38.0837 196.547 37.541 196.246C36.9983 195.938 36.419 195.67 35.803 195.443C35.275 195.245 34.747 195.025 34.219 194.783C33.6983 194.534 33.2217 194.244 32.789 193.914C32.3637 193.577 32.0227 193.17 31.766 192.693C31.5093 192.216 31.381 191.652 31.381 190.999C31.381 190.324 31.557 189.712 31.909 189.162C32.2683 188.605 32.7853 188.161 33.46 187.831C34.1347 187.501 34.9523 187.336 35.913 187.336C36.6683 187.336 37.343 187.45 37.937 187.677C38.531 187.904 39.026 188.22 39.422 188.623C39.818 189.026 40.0967 189.488 40.258 190.009L38.817 190.493C38.6117 189.987 38.2523 189.576 37.739 189.261C37.233 188.938 36.5877 188.777 35.803 188.777C34.923 188.777 34.23 188.979 33.724 189.382C33.2253 189.778 32.976 190.321 32.976 191.01C32.976 191.545 33.141 191.993 33.471 192.352C33.801 192.711 34.23 193.019 34.758 193.276C35.2933 193.533 35.858 193.778 36.452 194.013C36.9727 194.211 37.497 194.442 38.025 194.706C38.5603 194.97 39.048 195.293 39.488 195.674C39.928 196.048 40.2837 196.503 40.555 197.038C40.8263 197.566 40.962 198.2 40.962 198.941C40.962 199.865 40.7493 200.65 40.324 201.295C39.906 201.933 39.3303 202.421 38.597 202.758C37.8637 203.095 37.0277 203.264 36.089 203.264ZM47.3353 203.264C46.4113 203.264 45.6156 203.029 44.9483 202.56C44.281 202.083 43.7676 201.409 43.4083 200.536C43.0563 199.656 42.8803 198.607 42.8803 197.39C42.8803 196.165 43.0636 195.113 43.4303 194.233C43.797 193.353 44.3213 192.678 45.0033 192.209C45.6853 191.732 46.4993 191.494 47.4453 191.494C48.3473 191.494 49.1173 191.714 49.7553 192.154C50.4006 192.587 50.87 193.21 51.1633 194.024L49.7003 194.563C49.5096 194.042 49.22 193.643 48.8313 193.364C48.4426 193.085 47.988 192.946 47.4673 192.946C46.492 192.946 45.7476 193.324 45.2343 194.079C44.7283 194.834 44.4753 195.938 44.4753 197.39C44.4753 198.783 44.7283 199.869 45.2343 200.646C45.7403 201.416 46.4516 201.801 47.3683 201.801C47.9696 201.801 48.4866 201.64 48.9193 201.317C49.352 200.994 49.6526 200.554 49.8213 199.997L51.2733 200.481C51.0166 201.361 50.54 202.047 49.8433 202.538C49.154 203.022 48.318 203.264 47.3353 203.264ZM53.8944 203V191.758H55.4344V193.54C55.7131 192.88 56.0981 192.374 56.5894 192.022C57.0881 191.67 57.6637 191.494 58.3164 191.494C58.9911 191.494 59.5411 191.674 59.9664 192.033L59.7354 193.496C59.5154 193.342 59.2734 193.228 59.0094 193.155C58.7527 193.082 58.4741 193.045 58.1734 193.045C57.6307 193.045 57.1541 193.199 56.7434 193.507C56.3327 193.815 56.0101 194.244 55.7754 194.794C55.5481 195.337 55.4344 195.971 55.4344 196.697V203H53.8944ZM65.3966 203.264C63.9153 203.264 62.7456 202.74 61.8876 201.691C61.0296 200.635 60.6006 199.201 60.6006 197.39C60.6006 196.18 60.7949 195.135 61.1836 194.255C61.5723 193.375 62.1259 192.697 62.8446 192.22C63.5633 191.736 64.4139 191.494 65.3966 191.494C66.3866 191.494 67.2409 191.732 67.9596 192.209C68.6783 192.678 69.2283 193.353 69.6096 194.233C69.9983 195.113 70.1926 196.158 70.1926 197.368C70.1926 198.578 69.9983 199.627 69.6096 200.514C69.2209 201.394 68.6673 202.072 67.9486 202.549C67.2299 203.026 66.3793 203.264 65.3966 203.264ZM65.3966 201.812C66.4086 201.812 67.1969 201.42 67.7616 200.635C68.3336 199.85 68.6196 198.761 68.6196 197.368C68.6196 195.967 68.3336 194.878 67.7616 194.101C67.1969 193.324 66.4086 192.935 65.3966 192.935C64.3699 192.935 63.5743 193.324 63.0096 194.101C62.4523 194.871 62.1736 195.967 62.1736 197.39C62.1736 198.791 62.4559 199.88 63.0206 200.657C63.5853 201.427 64.3773 201.812 65.3966 201.812ZM72.9593 203V187.853L74.4993 187.116V203H72.9593ZM78.0382 203V187.853L79.5782 187.116V203H78.0382ZM31.744 225V209.6H35.715C37.0203 209.6 38.124 209.82 39.026 210.26C39.928 210.7 40.6503 211.29 41.193 212.031C41.743 212.764 42.139 213.589 42.381 214.506C42.6303 215.415 42.755 216.347 42.755 217.3C42.755 218.187 42.6413 219.082 42.414 219.984C42.1867 220.886 41.8053 221.718 41.27 222.481C40.7347 223.236 40.005 223.845 39.081 224.307C38.1643 224.769 37.013 225 35.627 225H31.744ZM33.284 223.548H35.792C36.826 223.548 37.6877 223.365 38.377 222.998C39.0663 222.624 39.6163 222.133 40.027 221.524C40.4377 220.908 40.7273 220.233 40.896 219.5C41.072 218.759 41.16 218.026 41.16 217.3C41.16 216.515 41.0647 215.753 40.874 215.012C40.6907 214.264 40.39 213.593 39.972 212.999C39.5613 212.398 39.026 211.921 38.366 211.569C37.7133 211.217 36.9177 211.041 35.979 211.041H33.284V223.548ZM49.6958 225.264C48.2145 225.264 47.0448 224.74 46.1868 223.691C45.3288 222.635 44.8998 221.201 44.8998 219.39C44.8998 218.18 45.0942 217.135 45.4828 216.255C45.8715 215.375 46.4252 214.697 47.1438 214.22C47.8625 213.736 48.7132 213.494 49.6958 213.494C50.6858 213.494 51.5402 213.732 52.2588 214.209C52.9775 214.678 53.5275 215.353 53.9088 216.233C54.2975 217.113 54.4918 218.158 54.4918 219.368C54.4918 220.578 54.2975 221.627 53.9088 222.514C53.5202 223.394 52.9665 224.072 52.2478 224.549C51.5292 225.026 50.6785 225.264 49.6958 225.264ZM49.6958 223.812C50.7078 223.812 51.4962 223.42 52.0608 222.635C52.6328 221.85 52.9188 220.761 52.9188 219.368C52.9188 217.967 52.6328 216.878 52.0608 216.101C51.4962 215.324 50.7078 214.935 49.6958 214.935C48.6692 214.935 47.8735 215.324 47.3088 216.101C46.7515 216.871 46.4728 217.967 46.4728 219.39C46.4728 220.791 46.7552 221.88 47.3198 222.657C47.8845 223.427 48.6765 223.812 49.6958 223.812ZM58.8147 225L55.9327 213.758H57.4617L59.3207 221.678C59.372 221.876 59.416 222.074 59.4527 222.272C59.4967 222.463 59.537 222.653 59.5737 222.844C59.6177 222.653 59.6653 222.459 59.7167 222.261C59.768 222.063 59.8193 221.869 59.8707 221.678L62.1807 213.758H63.4237L65.7227 221.678C65.7813 221.883 65.8363 222.085 65.8877 222.283C65.9463 222.481 65.9977 222.679 66.0417 222.877C66.0783 222.679 66.115 222.481 66.1517 222.283C66.1957 222.085 66.2433 221.883 66.2947 221.678L68.1427 213.758H69.6607L66.7897 225H65.4587L63.2147 217.795C63.1487 217.568 63.0753 217.322 62.9947 217.058C62.9213 216.794 62.8517 216.545 62.7857 216.31C62.727 216.545 62.661 216.794 62.5877 217.058C62.5143 217.322 62.441 217.568 62.3677 217.795L60.1457 225H58.8147ZM72.0358 225V213.758H73.5758V215.199C73.8911 214.649 74.3091 214.227 74.8298 213.934C75.3578 213.641 75.9555 213.494 76.6228 213.494C77.9355 213.494 78.9108 213.901 79.5488 214.715C80.1868 215.522 80.5058 216.75 80.5058 218.4V225H78.9658V218.125C78.9658 217.076 78.7458 216.281 78.3058 215.738C77.8658 215.188 77.2278 214.913 76.3918 214.913C75.4678 214.913 74.7675 215.195 74.2908 215.76C73.8141 216.325 73.5758 217.157 73.5758 218.257V225H72.0358Z" fill="black"/>
</svg>
