<svg width="190" height="430" fill="none" xmlns="http://www.w3.org/2000/svg">
    <style>
        @keyframes scrollDownArrow {

            0%,
            73%,
            to {
                transform: translateY(-14px);
                opacity: 0
            }

            15% {
                transform: translateY(0);
                opacity: 1
            }

            72% {
                transform: translateY(18px);
                opacity: 0
            }
        }
    </style>
    <g style="transform-box:fill-box;transform-origin:center;animation:scrollDownArrow 1.6s ease-in-out infinite"
        stroke="#ff6e8a" stroke-width="4">
        <path d="M33 145.105l25 25 25-25M58 78v92.105" />
    </g>
    <!-- <path
        d="M36.089 203.264c-.858 0-1.635-.147-2.332-.44a5.478 5.478 0 01-1.782-1.21 5.049 5.049 0 01-1.078-1.716l1.485-.528c.33.726.821 1.313 1.474 1.76.653.447 1.412.671 2.277.671.975 0 1.756-.242 2.343-.726.594-.484.891-1.188.891-2.112 0-.623-.169-1.155-.506-1.595a4.139 4.139 0 00-1.32-1.122 11.735 11.735 0 00-1.738-.803 24.173 24.173 0 01-1.584-.66 8.141 8.141 0 01-1.43-.869 3.9 3.9 0 01-1.023-1.221c-.257-.477-.385-1.041-.385-1.694 0-.675.176-1.287.528-1.837.36-.557.876-1.001 1.551-1.331.675-.33 1.492-.495 2.453-.495.755 0 1.43.114 2.024.341a4.1 4.1 0 011.485.946c.396.403.675.865.836 1.386l-1.441.484c-.205-.506-.565-.917-1.078-1.232-.506-.323-1.151-.484-1.936-.484-.88 0-1.573.202-2.079.605-.499.396-.748.939-.748 1.628 0 .535.165.983.495 1.342.33.359.759.667 1.287.924.535.257 1.1.502 1.694.737.52.198 1.045.429 1.573.693a6.86 6.86 0 011.463.968c.44.374.796.829 1.067 1.364.271.528.407 1.162.407 1.903 0 .924-.213 1.709-.638 2.354a4.02 4.02 0 01-1.727 1.463c-.733.337-1.57.506-2.508.506zm11.246 0c-.924 0-1.72-.235-2.387-.704-.667-.477-1.18-1.151-1.54-2.024-.352-.88-.528-1.929-.528-3.146 0-1.225.184-2.277.55-3.157.367-.88.891-1.555 1.573-2.024.682-.477 1.496-.715 2.442-.715.902 0 1.672.22 2.31.66.646.433 1.115 1.056 1.408 1.87l-1.463.539c-.19-.521-.48-.92-.869-1.199-.388-.279-.843-.418-1.364-.418-.975 0-1.72.378-2.233 1.133-.506.755-.759 1.859-.759 3.311 0 1.393.253 2.479.76 3.256.505.77 1.217 1.155 2.133 1.155.602 0 1.119-.161 1.551-.484.433-.323.734-.763.902-1.32l1.452.484c-.256.88-.733 1.566-1.43 2.057-.689.484-1.525.726-2.508.726zm6.56-.264v-11.242h1.54v1.782c.278-.66.663-1.166 1.154-1.518.5-.352 1.075-.528 1.727-.528.675 0 1.225.18 1.65.539l-.23 1.463a2.348 2.348 0 00-.727-.341 3.046 3.046 0 00-.836-.11c-.542 0-1.019.154-1.43.462-.41.308-.733.737-.968 1.287-.227.543-.34 1.177-.34 1.903V203h-1.54zm11.502.264c-1.482 0-2.651-.524-3.51-1.573-.857-1.056-1.286-2.49-1.286-4.301 0-1.21.194-2.255.583-3.135.388-.88.942-1.558 1.66-2.035.72-.484 1.57-.726 2.553-.726.99 0 1.844.238 2.563.715.718.469 1.268 1.144 1.65 2.024.388.88.583 1.925.583 3.135 0 1.21-.195 2.259-.583 3.146-.39.88-.943 1.558-1.661 2.035-.72.477-1.57.715-2.552.715zm0-1.452c1.012 0 1.8-.392 2.365-1.177.572-.785.858-1.874.858-3.267 0-1.401-.286-2.49-.858-3.267-.565-.777-1.353-1.166-2.365-1.166-1.027 0-1.823.389-2.387 1.166-.558.77-.836 1.866-.836 3.289 0 1.401.282 2.49.847 3.267.564.77 1.356 1.155 2.376 1.155zM72.959 203v-15.147l1.54-.737V203h-1.54zm5.08 0v-15.147l1.54-.737V203h-1.54zm-46.295 22v-15.4h3.971c1.305 0 2.409.22 3.311.66.902.44 1.624 1.03 2.167 1.771.55.733.946 1.558 1.188 2.475.25.909.374 1.841.374 2.794 0 .887-.114 1.782-.341 2.684a7.505 7.505 0 01-1.144 2.497c-.535.755-1.265 1.364-2.189 1.826-.917.462-2.068.693-3.454.693h-3.883zm1.54-1.452h2.508c1.034 0 1.896-.183 2.585-.55a4.588 4.588 0 001.65-1.474c.41-.616.7-1.291.869-2.024a9.493 9.493 0 00.264-2.2 9.14 9.14 0 00-.286-2.288 5.903 5.903 0 00-.902-2.013 4.448 4.448 0 00-1.606-1.43c-.653-.352-1.448-.528-2.387-.528h-2.695v12.507zm16.412 1.716c-1.481 0-2.651-.524-3.51-1.573-.857-1.056-1.286-2.49-1.286-4.301 0-1.21.194-2.255.583-3.135.389-.88.942-1.558 1.66-2.035.72-.484 1.57-.726 2.553-.726.99 0 1.844.238 2.563.715.718.469 1.269 1.144 1.65 2.024.389.88.583 1.925.583 3.135 0 1.21-.194 2.259-.583 3.146-.389.88-.942 1.558-1.661 2.035-.719.477-1.57.715-2.552.715zm0-1.452c1.012 0 1.8-.392 2.365-1.177.572-.785.858-1.874.858-3.267 0-1.401-.286-2.49-.858-3.267-.565-.777-1.353-1.166-2.365-1.166-1.027 0-1.822.389-2.387 1.166-.557.77-.836 1.866-.836 3.289 0 1.401.282 2.49.847 3.267.565.77 1.356 1.155 2.376 1.155zM58.815 225l-2.882-11.242h1.529l1.859 7.92c.051.198.095.396.132.594.044.191.084.381.12.572.045-.191.092-.385.144-.583.051-.198.102-.392.154-.583l2.31-7.92h1.243l2.299 7.92c.058.205.113.407.165.605.058.198.11.396.154.594l.11-.594c.044-.198.091-.4.143-.605l1.848-7.92h1.518L66.79 225h-1.331l-2.244-7.205c-.066-.227-.14-.473-.22-.737l-.21-.748a29.79 29.79 0 01-.197.748c-.074.264-.147.51-.22.737L60.146 225h-1.331zm13.22 0v-11.242h1.54v1.441c.316-.55.734-.972 1.255-1.265.528-.293 1.126-.44 1.793-.44 1.313 0 2.288.407 2.926 1.221.638.807.957 2.035.957 3.685v6.6h-1.54v-6.875c0-1.049-.22-1.844-.66-2.387-.44-.55-1.078-.825-1.914-.825-.924 0-1.624.282-2.101.847-.477.565-.715 1.397-.715 2.497V225h-1.54z"
        fill="#b42424" /> -->
</svg>