<svg width="100" height="104" viewBox="0 0 100 104" fill="none" xmlns="http://www.w3.org/2000/svg">
<path fill-rule="evenodd" clip-rule="evenodd" d="M88.3013 19.7049L81.2114 29.6354L74.1215 19.7049H77.9871C77.6924 12.3264 71.6079 6.42361 64.1713 6.42361C57.8961 6.42361 52.5743 10.6424 50.8929 16.3889C48.8474 15.7292 46.7325 15.3125 44.583 15.1215C44.8257 14.2014 45.1377 13.2812 45.5191 12.3958C46.5418 9.98264 47.998 7.8125 49.8528 5.95486C51.7076 4.09722 53.8744 2.62153 56.284 1.61458C58.7802 0.538194 61.4324 0 64.1713 0C66.9102 0 69.5624 0.538194 72.0586 1.59722C74.4682 2.62153 76.635 4.07986 78.4898 5.9375C80.3447 7.79514 81.8008 9.96528 82.8235 12.3785C83.8116 14.7049 84.349 17.1701 84.401 19.7049H88.3013Z" fill="black"/>
<path fill-rule="evenodd" clip-rule="evenodd" d="M78.3854 74.9999V70.729H53.9434C54.1167 70.6422 54.2901 70.5728 54.4634 70.486C57.1156 69.2186 59.5598 67.5693 61.744 65.5554C62.0387 65.2776 62.3161 65.0172 62.5761 64.7568C62.8708 64.4617 63.1828 64.1492 63.4775 63.8193C63.8242 63.4374 64.1709 63.0381 64.4829 62.6387H78.3854V58.3679L89.9997 66.6839L78.3854 74.9999Z" fill="black"/>
<path fill-rule="evenodd" clip-rule="evenodd" d="M69.3716 44.1493C69.3716 47.8473 68.6435 51.441 67.2221 54.8264C66.0087 57.7084 64.3099 60.3473 62.195 62.6563C61.9177 62.9514 61.6403 63.2466 61.3629 63.5417C61.1029 63.8021 60.8429 64.0452 60.5829 64.3056C58.5374 66.198 56.2492 67.7431 53.753 68.941C53.4063 69.1146 53.0422 69.2709 52.6782 69.4271C52.6609 69.4271 52.6609 69.4445 52.6435 69.4445C50.5634 70.3299 48.3272 70.7639 46.0563 70.7639H10V62.691H43.4735C53.597 62.691 61.9003 54.5834 62.039 44.4445C62.039 44.3577 62.039 44.2709 62.039 44.1841C62.039 33.1077 53.0596 24.1146 42 24.1146C30.9404 24.0799 21.961 33.0556 21.961 44.1493H26.6067L18.3034 55.7813L10 44.1493H14.6457C14.6457 40.4514 15.3738 36.8577 16.7952 33.4723C18.182 30.2084 20.1408 27.2743 22.6544 24.757C25.1679 22.2396 28.0975 20.2605 31.3564 18.8889C34.7367 17.4653 38.325 16.7361 42.0173 16.7361C42.7627 16.7361 43.4908 16.7709 44.2188 16.823C46.3684 16.9966 48.4659 17.4132 50.5114 18.0903C51.2394 18.3334 51.9502 18.5938 52.6609 18.9063C55.9198 20.2952 58.8494 22.257 61.3629 24.7743C63.8765 27.2917 65.8526 30.2257 67.2221 33.4896C68.6435 36.8577 69.3716 40.4514 69.3716 44.1493Z" fill="black"/>
<path d="M30.8354 99.192C30.1367 99.192 29.502 99.0693 28.9314 98.824C28.3607 98.5787 27.87 98.232 27.4594 97.784C27.054 97.3307 26.75 96.7973 26.5474 96.184L28.4274 95.488C28.6674 96 29.0007 96.4213 29.4274 96.752C29.8594 97.0773 30.3447 97.24 30.8834 97.24C31.454 97.24 31.9074 97.12 32.2434 96.88C32.5847 96.64 32.7554 96.2907 32.7554 95.832C32.7554 95.5173 32.654 95.256 32.4514 95.048C32.254 94.8347 31.9847 94.6533 31.6434 94.504C31.3074 94.3493 30.926 94.2 30.4994 94.056C30.0887 93.9173 29.6754 93.7627 29.2594 93.592C28.8434 93.4213 28.462 93.2133 28.1154 92.968C27.7687 92.7173 27.4887 92.4027 27.2754 92.024C27.0674 91.6453 26.9634 91.1813 26.9634 90.632C26.9634 90.0827 27.11 89.5787 27.4034 89.12C27.6967 88.6613 28.1207 88.296 28.6754 88.024C29.2354 87.7467 29.9127 87.608 30.7074 87.608C31.358 87.608 31.934 87.72 32.4354 87.944C32.942 88.1627 33.3607 88.4613 33.6914 88.84C34.022 89.2187 34.2514 89.648 34.3794 90.128L32.5234 90.744C32.374 90.408 32.1447 90.128 31.8354 89.904C31.5314 89.6747 31.118 89.56 30.5954 89.56C30.1047 89.56 29.7234 89.656 29.4514 89.848C29.1794 90.04 29.0434 90.312 29.0434 90.664C29.0434 90.904 29.134 91.1093 29.3154 91.28C29.502 91.4453 29.75 91.5947 30.0594 91.728C30.374 91.8613 30.7287 91.9973 31.1234 92.136C31.566 92.2853 32.006 92.456 32.4434 92.648C32.886 92.8347 33.286 93.064 33.6434 93.336C34.006 93.608 34.2967 93.9467 34.5154 94.352C34.734 94.752 34.8434 95.2427 34.8434 95.824C34.8434 96.5387 34.6647 97.1467 34.3074 97.648C33.9554 98.1493 33.478 98.5333 32.8754 98.8C32.2727 99.0613 31.5927 99.192 30.8354 99.192ZM39.8786 99.192C39.1266 99.192 38.476 99.0187 37.9266 98.672C37.3773 98.3253 36.9533 97.8347 36.6546 97.2C36.356 96.56 36.2066 95.8 36.2066 94.92C36.2066 94.04 36.356 93.28 36.6546 92.64C36.9586 92 37.388 91.5067 37.9426 91.16C38.4973 90.808 39.1506 90.632 39.9026 90.632C40.7506 90.632 41.4546 90.8293 42.0146 91.224C42.58 91.6133 42.988 92.192 43.2386 92.96L41.3426 93.6C41.2146 93.2587 41.028 92.9973 40.7826 92.816C40.5373 92.6293 40.2546 92.536 39.9346 92.536C39.4173 92.536 39.004 92.7493 38.6946 93.176C38.3906 93.6027 38.2386 94.184 38.2386 94.92C38.2386 95.6453 38.388 96.2213 38.6866 96.648C38.9853 97.0747 39.388 97.288 39.8946 97.288C40.252 97.288 40.556 97.1867 40.8066 96.984C41.0626 96.7813 41.252 96.4853 41.3746 96.096L43.2626 96.664C43.0226 97.5013 42.6146 98.1333 42.0386 98.56C41.468 98.9813 40.748 99.192 39.8786 99.192ZM45.2168 99V90.824H47.2168V91.704C47.3661 91.3893 47.6008 91.1333 47.9208 90.936C48.2408 90.7333 48.5768 90.632 48.9288 90.632C49.5101 90.632 50.0008 90.832 50.4008 91.232L50.1208 93.064C49.9021 92.8827 49.6888 92.7547 49.4808 92.68C49.2728 92.6053 49.0434 92.568 48.7928 92.568C48.4621 92.568 48.1794 92.6453 47.9448 92.8C47.7101 92.9547 47.5288 93.1787 47.4008 93.472C47.2781 93.7653 47.2168 94.1173 47.2168 94.528V99H45.2168ZM54.6806 99.192C53.7686 99.192 53.062 98.9093 52.5606 98.344C52.0593 97.7733 51.8086 96.968 51.8086 95.928V90.824H53.8086V95.304C53.8086 95.992 53.926 96.4933 54.1606 96.808C54.3953 97.1227 54.766 97.28 55.2726 97.28C55.8166 97.28 56.2166 97.1227 56.4726 96.808C56.734 96.488 56.8646 95.9973 56.8646 95.336V90.824H58.8566V99H56.8646V98.232C56.614 98.552 56.3046 98.792 55.9366 98.952C55.574 99.112 55.1553 99.192 54.6806 99.192ZM61.373 99V90.824H63.373V91.584C63.6343 91.2533 63.9277 91.0133 64.253 90.864C64.5837 90.7093 64.957 90.632 65.373 90.632C65.8583 90.632 66.2743 90.7307 66.621 90.928C66.9677 91.1253 67.237 91.4133 67.429 91.792C67.701 91.4187 68.0503 91.1333 68.477 90.936C68.9037 90.7333 69.3863 90.632 69.925 90.632C70.9277 90.632 71.685 90.9013 72.197 91.44C72.709 91.9787 72.965 92.7787 72.965 93.84V99H70.973V94.528C70.973 93.8453 70.861 93.344 70.637 93.024C70.413 92.6987 70.0663 92.536 69.597 92.536C69.277 92.536 69.0103 92.608 68.797 92.752C68.589 92.896 68.4317 93.1147 68.325 93.408C68.2183 93.696 68.165 94.0613 68.165 94.504V99H66.173V94.528C66.173 93.84 66.0637 93.336 65.845 93.016C65.6263 92.696 65.2797 92.536 64.805 92.536C64.3197 92.536 63.9597 92.6933 63.725 93.008C63.4903 93.3227 63.373 93.8107 63.373 94.472V99H61.373Z" fill="black"/>
</svg>
