<svg width="100" height="104" viewBox="0 0 100 104" fill="none" xmlns="http://www.w3.org/2000/svg">
<path d="M87.4317 5.96862C86.8855 3.10368 84.6666 0.784447 81.8332 0.170532C81.6966 0.136426 81.5601 0.136426 81.3894 0.102319C81.3553 0.102319 81.3211 0.0341064 81.287 0H18.6789C18.6447 0.0341064 18.6106 0.102319 18.5423 0.102319C15.7089 0.579809 13.3193 2.83083 12.6707 5.69577C12.6365 5.79809 12.5683 5.93452 12.5 6.07094V68.7926C12.5341 68.8608 12.6024 68.895 12.6024 68.9632C13.2852 72.101 15.1969 74.045 18.3034 74.8295C18.4058 74.8636 18.4741 74.9318 18.5423 75H81.3894C81.4577 74.9659 81.4918 74.8977 81.5601 74.8636C84.6666 74.1473 86.5783 72.2715 87.3634 69.1678C87.3976 69.0655 87.3634 68.9291 87.3976 68.8267C87.3976 68.7926 87.4659 68.7585 87.5 68.7244V6.17326C87.5 6.10505 87.4317 6.07094 87.4317 5.96862ZM56.0253 41.5757H55.6497C52.8163 41.5757 49.9488 41.5757 47.1154 41.5757C46.9788 41.5757 46.8423 41.5757 46.7057 41.5757C46.7057 41.6098 46.6716 41.6098 46.6716 41.6439C46.6716 41.7804 46.6716 41.9168 46.6716 42.0532V68.3493H39.1955V41.6098H29.8077V35.6412H55.9911V41.5757H56.0253ZM81.2187 59.4134C81.1504 60.573 80.9797 61.6985 80.5018 62.7899C80.3653 63.131 80.2629 63.4379 80.0922 63.779C79.4777 65.075 78.4536 65.9959 77.2588 66.7462C75.8933 67.5989 74.3912 68.0764 72.8209 68.3834C71.0799 68.7244 69.3389 68.8267 67.5637 68.7585C66.7103 68.7244 65.8569 68.7244 65.0034 68.6221C62.9893 68.3834 61.0093 67.94 59.1659 67.0532C59.0635 67.0191 58.9269 66.8486 58.9269 66.7462C58.9269 64.5293 58.9269 62.3124 58.9269 60.0955C58.9269 60.0614 58.9269 60.0273 58.9269 59.9591C59.4731 60.3342 60.0193 60.7094 60.5655 61.0164C61.8969 61.8008 63.3648 62.3465 64.8669 62.6876C66.1641 62.9945 67.4613 63.0287 68.7585 62.9604C69.7485 62.9263 70.7385 62.6876 71.6261 62.2442C72.4112 61.8349 73.0599 61.2892 73.2305 60.3684C73.4012 59.5498 73.333 58.7312 72.855 58.015C72.1723 56.9918 71.2164 56.3438 70.1582 55.7981C68.9634 55.2183 67.7686 54.7067 66.5396 54.161C64.7303 53.3424 62.9552 52.4557 61.4873 51.0914C60.2924 49.9659 59.4049 48.6357 58.9952 47.0327C58.7563 46.0778 58.688 45.1228 58.7221 44.1678C58.7563 41.8145 59.6097 39.8022 61.2824 38.131C62.6479 36.7667 64.3207 35.9482 66.1641 35.4707C67.4272 35.1637 68.6903 34.925 69.9875 34.8909C70.9092 34.8909 71.8309 34.7885 72.7185 34.8226C74.1181 34.8568 75.4836 34.925 76.8491 35.266C77.7367 35.5048 78.6584 35.7435 79.546 35.9482C79.7167 35.9823 79.7849 36.0846 79.7849 36.2892C79.7849 38.4038 79.7849 40.5525 79.7849 42.6671C79.7849 42.7353 79.7849 42.8035 79.7508 42.9059C79.4777 42.7353 79.2387 42.5989 78.9998 42.4625C77.9074 41.8486 76.7467 41.4393 75.5519 41.1323C74.2205 40.8254 72.8892 40.6207 71.5237 40.6548C70.602 40.6889 69.6461 40.8254 68.7927 41.1323C67.7344 41.5075 66.881 42.1214 66.5055 43.2469C66.1982 44.1337 66.4372 44.884 66.9834 45.6003C67.6661 46.487 68.5878 47.101 69.5778 47.5784C70.9092 48.2265 72.2747 48.7722 73.5719 49.3861C75.074 50.1023 76.576 50.8186 77.8391 51.8759C78.9315 52.7967 79.9215 53.8199 80.4677 55.1842C80.7749 56.0027 81.048 56.8554 81.048 57.7763C81.1846 58.322 81.2528 58.8677 81.2187 59.4134Z" fill="black"/>
<path d="M13.2838 99V89.792H10.1078V87.8H18.5478V89.792H15.3558V99H13.2838ZM20.7642 102.104L22.0042 98.856L18.9402 90.824H20.9962L22.7802 95.608C22.8282 95.72 22.8735 95.8427 22.9162 95.976C22.9589 96.1093 22.9989 96.2427 23.0362 96.376C23.0682 96.2427 23.1055 96.112 23.1482 95.984C23.1962 95.8507 23.2442 95.7253 23.2922 95.608L25.0762 90.824H27.1322L22.8282 102.104H20.7642ZM28.8808 102.248V90.824H30.8808V91.424C31.3288 90.896 31.9288 90.632 32.6808 90.632C33.3795 90.632 33.9821 90.8053 34.4888 91.152C34.9955 91.4933 35.3848 91.984 35.6568 92.624C35.9288 93.264 36.0648 94.0267 36.0648 94.912C36.0648 95.7707 35.9235 96.5227 35.6408 97.168C35.3581 97.808 34.9608 98.3067 34.4488 98.664C33.9368 99.016 33.3395 99.192 32.6568 99.192C32.2835 99.192 31.9475 99.1253 31.6488 98.992C31.3501 98.8533 31.0941 98.6507 30.8808 98.384V101.344L28.8808 102.248ZM32.3608 97.28C32.9048 97.28 33.3235 97.0747 33.6168 96.664C33.9101 96.248 34.0568 95.664 34.0568 94.912C34.0568 94.16 33.9075 93.576 33.6088 93.16C33.3101 92.744 32.8941 92.536 32.3608 92.536C32.0355 92.536 31.7501 92.5947 31.5048 92.712C31.2648 92.8293 31.0568 93.008 30.8808 93.248V96.552C31.0248 96.7813 31.2275 96.96 31.4888 97.088C31.7555 97.216 32.0461 97.28 32.3608 97.28ZM41.5926 99.192C40.8086 99.192 40.1312 99.016 39.5606 98.664C38.9952 98.312 38.5579 97.816 38.2486 97.176C37.9446 96.5307 37.7926 95.7733 37.7926 94.904C37.7926 94.024 37.9472 93.264 38.2566 92.624C38.5712 91.984 39.0112 91.4933 39.5766 91.152C40.1472 90.8053 40.8192 90.632 41.5926 90.632C42.2539 90.632 42.8539 90.7707 43.3926 91.048C43.9312 91.3253 44.3606 91.752 44.6806 92.328C45.0006 92.8987 45.1606 93.6267 45.1606 94.512C45.1606 94.6507 45.1552 94.8213 45.1446 95.024C45.1392 95.2213 45.1259 95.4213 45.1046 95.624H39.7686C39.7899 95.9973 39.8752 96.3253 40.0246 96.608C40.1792 96.8853 40.3899 97.1013 40.6566 97.256C40.9232 97.4107 41.2379 97.488 41.6006 97.488C41.9899 97.488 42.3286 97.424 42.6166 97.296C42.9046 97.1627 43.1766 96.952 43.4326 96.664L44.5846 97.856C44.2326 98.256 43.8086 98.5787 43.3126 98.824C42.8166 99.0693 42.2432 99.192 41.5926 99.192ZM39.7766 94.064H43.2246C43.1979 93.7067 43.1179 93.4 42.9846 93.144C42.8512 92.8827 42.6646 92.6827 42.4246 92.544C42.1846 92.4053 41.8939 92.336 41.5526 92.336C41.0832 92.336 40.6832 92.48 40.3526 92.768C40.0219 93.056 39.8299 93.488 39.7766 94.064ZM50.8588 99.192C50.1601 99.192 49.5255 99.0693 48.9548 98.824C48.3841 98.5787 47.8935 98.232 47.4828 97.784C47.0775 97.3307 46.7735 96.7973 46.5708 96.184L48.4508 95.488C48.6908 96 49.0241 96.4213 49.4508 96.752C49.8828 97.0773 50.3681 97.24 50.9068 97.24C51.4775 97.24 51.9308 97.12 52.2668 96.88C52.6081 96.64 52.7788 96.2907 52.7788 95.832C52.7788 95.5173 52.6775 95.256 52.4748 95.048C52.2775 94.8347 52.0081 94.6533 51.6668 94.504C51.3308 94.3493 50.9495 94.2 50.5228 94.056C50.1121 93.9173 49.6988 93.7627 49.2828 93.592C48.8668 93.4213 48.4855 93.2133 48.1388 92.968C47.7921 92.7173 47.5121 92.4027 47.2988 92.024C47.0908 91.6453 46.9868 91.1813 46.9868 90.632C46.9868 90.0827 47.1335 89.5787 47.4268 89.12C47.7201 88.6613 48.1441 88.296 48.6988 88.024C49.2588 87.7467 49.9361 87.608 50.7308 87.608C51.3815 87.608 51.9575 87.72 52.4588 87.944C52.9655 88.1627 53.3841 88.4613 53.7148 88.84C54.0455 89.2187 54.2748 89.648 54.4028 90.128L52.5468 90.744C52.3975 90.408 52.1681 90.128 51.8588 89.904C51.5548 89.6747 51.1415 89.56 50.6188 89.56C50.1281 89.56 49.7468 89.656 49.4748 89.848C49.2028 90.04 49.0668 90.312 49.0668 90.664C49.0668 90.904 49.1575 91.1093 49.3388 91.28C49.5255 91.4453 49.7735 91.5947 50.0828 91.728C50.3975 91.8613 50.7521 91.9973 51.1468 92.136C51.5895 92.2853 52.0295 92.456 52.4668 92.648C52.9095 92.8347 53.3095 93.064 53.6668 93.336C54.0295 93.608 54.3201 93.9467 54.5388 94.352C54.7575 94.752 54.8668 95.2427 54.8668 95.824C54.8668 96.5387 54.6881 97.1467 54.3308 97.648C53.9788 98.1493 53.5015 98.5333 52.8988 98.8C52.2961 99.0613 51.6161 99.192 50.8588 99.192ZM59.9021 99.192C59.1501 99.192 58.4994 99.0187 57.9501 98.672C57.4007 98.3253 56.9767 97.8347 56.6781 97.2C56.3794 96.56 56.2301 95.8 56.2301 94.92C56.2301 94.04 56.3794 93.28 56.6781 92.64C56.9821 92 57.4114 91.5067 57.9661 91.16C58.5207 90.808 59.1741 90.632 59.9261 90.632C60.7741 90.632 61.4781 90.8293 62.0381 91.224C62.6034 91.6133 63.0114 92.192 63.2621 92.96L61.3661 93.6C61.2381 93.2587 61.0514 92.9973 60.8061 92.816C60.5607 92.6293 60.2781 92.536 59.9581 92.536C59.4407 92.536 59.0274 92.7493 58.7181 93.176C58.4141 93.6027 58.2621 94.184 58.2621 94.92C58.2621 95.6453 58.4114 96.2213 58.7101 96.648C59.0087 97.0747 59.4114 97.288 59.9181 97.288C60.2754 97.288 60.5794 97.1867 60.8301 96.984C61.0861 96.7813 61.2754 96.4853 61.3981 96.096L63.2861 96.664C63.0461 97.5013 62.6381 98.1333 62.0621 98.56C61.4914 98.9813 60.7714 99.192 59.9021 99.192ZM65.2402 99V90.824H67.2402V91.704C67.3895 91.3893 67.6242 91.1333 67.9442 90.936C68.2642 90.7333 68.6002 90.632 68.9522 90.632C69.5335 90.632 70.0242 90.832 70.4242 91.232L70.1442 93.064C69.9255 92.8827 69.7122 92.7547 69.5042 92.68C69.2962 92.6053 69.0669 92.568 68.8162 92.568C68.4855 92.568 68.2029 92.6453 67.9682 92.8C67.7335 92.9547 67.5522 93.1787 67.4242 93.472C67.3015 93.7653 67.2402 94.1173 67.2402 94.528V99H65.2402ZM71.8343 99V90.824H73.8343V99H71.8343ZM72.8343 89.8C72.5143 89.8 72.237 89.6853 72.0023 89.456C71.773 89.2213 71.6583 88.944 71.6583 88.624C71.6583 88.304 71.773 88.032 72.0023 87.808C72.2316 87.5787 72.509 87.464 72.8343 87.464C73.1703 87.464 73.4503 87.576 73.6743 87.8C73.8983 88.024 74.0103 88.2987 74.0103 88.624C74.0103 88.9493 73.8956 89.2267 73.6663 89.456C73.4423 89.6853 73.165 89.8 72.8343 89.8ZM76.3496 102.248V90.824H78.3496V91.424C78.7976 90.896 79.3976 90.632 80.1496 90.632C80.8482 90.632 81.4509 90.8053 81.9576 91.152C82.4642 91.4933 82.8536 91.984 83.1256 92.624C83.3976 93.264 83.5336 94.0267 83.5336 94.912C83.5336 95.7707 83.3922 96.5227 83.1096 97.168C82.8269 97.808 82.4296 98.3067 81.9176 98.664C81.4056 99.016 80.8082 99.192 80.1256 99.192C79.7522 99.192 79.4162 99.1253 79.1176 98.992C78.8189 98.8533 78.5629 98.6507 78.3496 98.384V101.344L76.3496 102.248ZM79.8296 97.28C80.3736 97.28 80.7922 97.0747 81.0856 96.664C81.3789 96.248 81.5256 95.664 81.5256 94.912C81.5256 94.16 81.3762 93.576 81.0776 93.16C80.7789 92.744 80.3629 92.536 79.8296 92.536C79.5042 92.536 79.2189 92.5947 78.9736 92.712C78.7336 92.8293 78.5256 93.008 78.3496 93.248V96.552C78.4936 96.7813 78.6962 96.96 78.9576 97.088C79.2242 97.216 79.5149 97.28 79.8296 97.28ZM87.8429 99.192C87.1923 99.192 86.7043 99.0133 86.3789 98.656C86.0536 98.2987 85.8909 97.7653 85.8909 97.056V92.576H84.6989V90.824H85.8909V88.4L87.8749 87.448V90.824H89.7309V92.576H87.8749V96.696C87.8749 96.952 87.9256 97.1413 88.0269 97.264C88.1336 97.3867 88.2989 97.448 88.5229 97.448C88.9176 97.448 89.3496 97.3253 89.8189 97.08L89.5869 98.824C89.3416 98.9467 89.0749 99.0373 88.7869 99.096C88.4989 99.16 88.1843 99.192 87.8429 99.192Z" fill="black"/>
</svg>
