<svg width="390" height="92" viewBox="0 0 390 92" fill="none" xmlns="http://www.w3.org/2000/svg">
<rect width="390" height="92" fill="#FFFCF3"/>
<g clip-path="url(#clip0_164356_2793)">
<path d="M25 31H37.4069V35.6667H31.0794V56.3333H37.4069V61H25V31Z" fill="black"/>
<path d="M50.0619 36.8333C52.1297 36.8333 54.4871 37.5833 56.679 39.0417L57.7129 32.5833C55.6037 31.5417 53.1223 31 50.2687 31C44.2307 31 40.5499 34.4167 40.5499 39.0833V39.1667C40.5499 44.375 44.6856 45.875 50.0206 47.125C53.4118 47.9167 54.2389 48.5 54.2389 49.5417V49.625C54.2389 50.7083 53.2464 51.375 51.3853 51.375C48.4904 51.375 45.7195 50.3333 43.2381 48.3333L39.3506 53C42.4523 55.7917 46.6707 57.2083 51.1372 57.2083C52.0884 57.2083 52.9569 57.125 53.8254 57L56.224 42.25C54.9833 41.75 53.5772 41.3333 51.9643 41C48.4077 40.1667 47.5805 39.6667 47.5805 38.5V38.4167C47.5805 37.5417 48.4077 36.8333 50.0619 36.8333Z" fill="black"/>
<path d="M76.3233 55.0413V60.9997H56.7617L57.1753 58.5413L58.54 50.083L60.8974 35.708H76.1579V41.6663H62.8411V45.4997H74.8759V50.9997H62.8411V55.0413H76.3233Z" fill="black"/>
<path d="M79.2598 56.3333H85.5873V35.6667H79.2598V31H91.6667V61H79.2598V56.3333Z" fill="black"/>
</g>
<path d="M325 29H365" stroke="black" stroke-width="4" stroke-linecap="square"/>
<path d="M325 46H365" stroke="black" stroke-width="4" stroke-linecap="square"/>
<path d="M325 63H365" stroke="black" stroke-width="4" stroke-linecap="square"/>
<defs>
<clipPath id="clip0_164356_2793">
<rect width="66.6667" height="30" fill="white" transform="translate(25 31)"/>
</clipPath>
</defs>
</svg>
