<svg width="390" height="530" viewBox="0 0 390 530" fill="none" xmlns="http://www.w3.org/2000/svg">
<path d="M81.8967 11.2V19.75H47.7867V23.575H75.6867V31.225H47.7867V40H36.5367V11.2H81.8967ZM83.2418 17.95H94.0418V40H83.2418V17.95ZM105.652 26.275C103.702 26.275 101.917 26.455 100.297 26.815C98.6768 27.175 97.2968 27.61 96.1568 28.12C95.0168 28.6 94.1618 29.08 93.5918 29.56L93.5018 27.4C93.5918 26.77 93.8318 26.035 94.2218 25.195C94.6118 24.325 95.1368 23.44 95.7968 22.54C96.4568 21.61 97.2668 20.755 98.2268 19.975C99.1868 19.165 100.282 18.52 101.512 18.04C102.772 17.53 104.152 17.275 105.652 17.275V26.275ZM128.398 40.675C123.628 40.675 119.653 40.285 116.473 39.505C113.323 38.725 110.953 37.48 109.363 35.77C107.803 34.06 107.023 31.81 107.023 29.02C107.023 26.23 107.803 23.98 109.363 22.27C110.953 20.53 113.323 19.27 116.473 18.49C119.653 17.68 123.628 17.275 128.398 17.275C133.138 17.275 137.068 17.68 140.188 18.49C143.338 19.27 145.693 20.53 147.253 22.27C148.813 23.98 149.593 26.23 149.593 29.02C149.593 31.81 148.813 34.06 147.253 35.77C145.693 37.48 143.338 38.725 140.188 39.505C137.068 40.285 133.138 40.675 128.398 40.675ZM128.398 34.15C130.618 34.15 132.478 33.97 133.978 33.61C135.478 33.22 136.618 32.65 137.398 31.9C138.178 31.12 138.568 30.16 138.568 29.02C138.568 27.88 138.178 26.92 137.398 26.14C136.648 25.36 135.523 24.775 134.023 24.385C132.523 23.995 130.648 23.8 128.398 23.8C126.178 23.8 124.288 23.995 122.728 24.385C121.198 24.775 120.028 25.36 119.218 26.14C118.438 26.89 118.048 27.85 118.048 29.02C118.048 30.16 118.438 31.12 119.218 31.9C119.998 32.65 121.153 33.22 122.683 33.61C124.243 33.97 126.148 34.15 128.398 34.15ZM152.051 17.95H162.851V40H152.051V17.95ZM179.051 17.275C180.821 17.275 182.531 17.47 184.181 17.86C185.831 18.22 187.301 18.85 188.591 19.75C189.911 20.65 190.961 21.88 191.741 23.44C192.521 25 192.911 26.965 192.911 29.335V40H182.111V30.685C182.111 28.435 181.526 26.845 180.356 25.915C179.186 24.955 177.071 24.475 174.011 24.475C172.391 24.475 170.816 24.655 169.286 25.015C167.786 25.375 166.436 25.81 165.236 26.32C164.036 26.8 163.091 27.28 162.401 27.76L162.311 26.05C162.431 25.51 162.836 24.76 163.526 23.8C164.246 22.81 165.281 21.82 166.631 20.83C167.981 19.84 169.676 19 171.716 18.31C173.786 17.62 176.231 17.275 179.051 17.275ZM194.713 17.95H221.173V24.7H194.713V17.95ZM202.543 11.2H213.343V40H202.543V11.2ZM253.39 32.08H264.01C263.74 33.82 262.87 35.335 261.4 36.625C259.96 37.915 257.845 38.92 255.055 39.64C252.295 40.33 248.77 40.675 244.48 40.675C239.95 40.675 236.035 40.315 232.735 39.595C229.465 38.875 226.945 37.66 225.175 35.95C223.405 34.24 222.52 31.93 222.52 29.02C222.52 26.14 223.375 23.845 225.085 22.135C226.825 20.395 229.33 19.15 232.6 18.4C235.87 17.65 239.83 17.275 244.48 17.275C249.04 17.275 252.775 17.68 255.685 18.49C258.595 19.3 260.74 20.62 262.12 22.45C263.5 24.25 264.16 26.695 264.1 29.785H233.5C233.65 30.565 234.07 31.285 234.76 31.945C235.48 32.605 236.575 33.145 238.045 33.565C239.545 33.955 241.54 34.15 244.03 34.15C246.61 34.15 248.725 33.97 250.375 33.61C252.055 33.25 253.06 32.74 253.39 32.08ZM244.03 23.8C240.85 23.8 238.42 24.145 236.74 24.835C235.09 25.525 234.115 26.215 233.815 26.905H253.615C253.405 26.125 252.565 25.42 251.095 24.79C249.625 24.13 247.27 23.8 244.03 23.8ZM266.582 17.95H277.382V40H266.582V17.95ZM293.582 17.275C295.352 17.275 297.062 17.47 298.712 17.86C300.362 18.22 301.832 18.85 303.122 19.75C304.442 20.65 305.492 21.88 306.272 23.44C307.052 25 307.442 26.965 307.442 29.335V40H296.642V30.685C296.642 28.435 296.057 26.845 294.887 25.915C293.717 24.955 291.602 24.475 288.542 24.475C286.922 24.475 285.347 24.655 283.817 25.015C282.317 25.375 280.967 25.81 279.767 26.32C278.567 26.8 277.622 27.28 276.932 27.76L276.842 26.05C276.962 25.51 277.367 24.76 278.057 23.8C278.777 22.81 279.812 21.82 281.162 20.83C282.512 19.84 284.207 19 286.247 18.31C288.317 17.62 290.762 17.275 293.582 17.275ZM326.704 40.63C323.464 40.63 320.584 40.18 318.064 39.28C315.544 38.35 313.549 37.015 312.079 35.275C310.639 33.535 309.919 31.435 309.919 28.975C309.919 26.395 310.639 24.235 312.079 22.495C313.549 20.755 315.544 19.45 318.064 18.58C320.584 17.71 323.464 17.275 326.704 17.275C329.404 17.275 331.834 17.56 333.994 18.13C336.154 18.67 337.999 19.465 339.529 20.515C341.059 21.535 342.229 22.765 343.039 24.205C343.849 25.645 344.254 27.235 344.254 28.975C344.254 30.715 343.849 32.305 343.039 33.745C342.229 35.155 341.059 36.385 339.529 37.435C337.999 38.455 336.154 39.25 333.994 39.82C331.834 40.36 329.404 40.63 326.704 40.63ZM330.754 33.79C333.034 33.79 335.119 33.655 337.009 33.385C338.929 33.085 340.459 32.59 341.599 31.9C342.769 31.21 343.354 30.235 343.354 28.975C343.354 27.685 342.769 26.695 341.599 26.005C340.459 25.315 338.929 24.835 337.009 24.565C335.119 24.295 333.034 24.16 330.754 24.16C327.694 24.16 325.324 24.565 323.644 25.375C321.964 26.155 321.124 27.355 321.124 28.975C321.124 30.025 321.499 30.91 322.249 31.63C322.999 32.35 324.094 32.89 325.534 33.25C326.974 33.61 328.714 33.79 330.754 33.79ZM343.354 8.95H354.154V40H343.984C343.864 39.31 343.729 38.2 343.579 36.67C343.429 35.11 343.354 33.37 343.354 31.45V8.95Z" fill="black"/>
<path d="M51.9958 66.2C56.0458 66.2 59.3908 66.59 62.0308 67.37C64.6708 68.15 66.7408 69.215 68.2408 70.565C69.7408 71.915 70.7908 73.46 71.3908 75.2C72.0208 76.91 72.3358 78.71 72.3358 80.6C72.3358 82.49 71.9908 84.305 71.3008 86.045C70.6108 87.755 69.4708 89.285 67.8808 90.635C66.3208 91.985 64.2358 93.05 61.6258 93.83C59.0458 94.61 55.8358 95 51.9958 95H19.5958V66.2H51.9958ZM30.8458 86H51.5458C53.2258 86 54.6508 85.895 55.8208 85.685C56.9908 85.445 57.9208 85.1 58.6108 84.65C59.3308 84.2 59.8408 83.645 60.1408 82.985C60.4708 82.295 60.6358 81.5 60.6358 80.6C60.6358 79.7 60.4708 78.92 60.1408 78.26C59.8408 77.57 59.3308 77 58.6108 76.55C57.9208 76.1 56.9908 75.77 55.8208 75.56C54.6508 75.32 53.2258 75.2 51.5458 75.2H30.8458V86ZM106.345 87.08H116.965C116.695 88.82 115.825 90.335 114.355 91.625C112.915 92.915 110.8 93.92 108.01 94.64C105.25 95.33 101.725 95.675 97.4349 95.675C92.9049 95.675 88.9899 95.315 85.6899 94.595C82.4199 93.875 79.8999 92.66 78.1299 90.95C76.3599 89.24 75.4749 86.93 75.4749 84.02C75.4749 81.14 76.3299 78.845 78.0399 77.135C79.7799 75.395 82.2849 74.15 85.5549 73.4C88.8249 72.65 92.7849 72.275 97.4349 72.275C101.995 72.275 105.73 72.68 108.64 73.49C111.55 74.3 113.695 75.62 115.075 77.45C116.455 79.25 117.115 81.695 117.055 84.785H86.4549C86.6049 85.565 87.0249 86.285 87.7149 86.945C88.4349 87.605 89.5299 88.145 90.9999 88.565C92.4999 88.955 94.4949 89.15 96.9849 89.15C99.5649 89.15 101.68 88.97 103.33 88.61C105.01 88.25 106.015 87.74 106.345 87.08ZM96.9849 78.8C93.8049 78.8 91.3749 79.145 89.6949 79.835C88.0449 80.525 87.0699 81.215 86.7699 81.905H106.57C106.36 81.125 105.52 80.42 104.05 79.79C102.58 79.13 100.225 78.8 96.9849 78.8ZM139.143 90.95L134.013 90.86L145.353 72.95H157.278L141.573 95H131.403L116.418 72.95H128.298L139.143 90.95ZM187.02 87.08H197.64C197.37 88.82 196.5 90.335 195.03 91.625C193.59 92.915 191.475 93.92 188.685 94.64C185.925 95.33 182.4 95.675 178.11 95.675C173.58 95.675 169.665 95.315 166.365 94.595C163.095 93.875 160.575 92.66 158.805 90.95C157.035 89.24 156.15 86.93 156.15 84.02C156.15 81.14 157.005 78.845 158.715 77.135C160.455 75.395 162.96 74.15 166.23 73.4C169.5 72.65 173.46 72.275 178.11 72.275C182.67 72.275 186.405 72.68 189.315 73.49C192.225 74.3 194.37 75.62 195.75 77.45C197.13 79.25 197.79 81.695 197.73 84.785H167.13C167.28 85.565 167.7 86.285 168.39 86.945C169.11 87.605 170.205 88.145 171.675 88.565C173.175 88.955 175.17 89.15 177.66 89.15C180.24 89.15 182.355 88.97 184.005 88.61C185.685 88.25 186.69 87.74 187.02 87.08ZM177.66 78.8C174.48 78.8 172.05 79.145 170.37 79.835C168.72 80.525 167.745 81.215 167.445 81.905H187.245C187.035 81.125 186.195 80.42 184.725 79.79C183.255 79.13 180.9 78.8 177.66 78.8ZM200.886 63.95H211.686V95H200.886V63.95ZM236.227 95.675C231.457 95.675 227.482 95.285 224.302 94.505C221.152 93.725 218.782 92.48 217.192 90.77C215.632 89.06 214.852 86.81 214.852 84.02C214.852 81.23 215.632 78.98 217.192 77.27C218.782 75.53 221.152 74.27 224.302 73.49C227.482 72.68 231.457 72.275 236.227 72.275C240.967 72.275 244.897 72.68 248.017 73.49C251.167 74.27 253.522 75.53 255.082 77.27C256.642 78.98 257.422 81.23 257.422 84.02C257.422 86.81 256.642 89.06 255.082 90.77C253.522 92.48 251.167 93.725 248.017 94.505C244.897 95.285 240.967 95.675 236.227 95.675ZM236.227 89.15C238.447 89.15 240.307 88.97 241.807 88.61C243.307 88.22 244.447 87.65 245.227 86.9C246.007 86.12 246.397 85.16 246.397 84.02C246.397 82.88 246.007 81.92 245.227 81.14C244.477 80.36 243.352 79.775 241.852 79.385C240.352 78.995 238.477 78.8 236.227 78.8C234.007 78.8 232.117 78.995 230.557 79.385C229.027 79.775 227.857 80.36 227.047 81.14C226.267 81.89 225.877 82.85 225.877 84.02C225.877 85.16 226.267 86.12 227.047 86.9C227.827 87.65 228.982 88.22 230.512 88.61C232.072 88.97 233.977 89.15 236.227 89.15ZM287.33 95.675C284.63 95.675 282.2 95.405 280.04 94.865C277.88 94.295 276.035 93.5 274.505 92.48C272.975 91.43 271.805 90.185 270.995 88.745C270.185 87.305 269.78 85.715 269.78 83.975C269.78 82.235 270.185 80.66 270.995 79.25C271.805 77.81 272.975 76.58 274.505 75.56C276.035 74.51 277.88 73.715 280.04 73.175C282.2 72.605 284.63 72.32 287.33 72.32C290.57 72.32 293.45 72.785 295.97 73.715C298.52 74.615 300.515 75.935 301.955 77.675C303.395 79.415 304.115 81.515 304.115 83.975C304.115 86.555 303.395 88.715 301.955 90.455C300.515 92.195 298.52 93.5 295.97 94.37C293.45 95.24 290.57 95.675 287.33 95.675ZM283.28 88.79C285.32 88.79 287.06 88.61 288.5 88.25C289.94 87.89 291.035 87.365 291.785 86.675C292.535 85.955 292.91 85.055 292.91 83.975C292.91 82.385 292.07 81.185 290.39 80.375C288.71 79.565 286.34 79.16 283.28 79.16C281 79.16 278.9 79.295 276.98 79.565C275.09 79.835 273.56 80.33 272.39 81.05C271.25 81.74 270.68 82.715 270.68 83.975C270.68 85.235 271.25 86.225 272.39 86.945C273.56 87.635 275.09 88.115 276.98 88.385C278.9 88.655 281 88.79 283.28 88.79ZM259.88 72.95H270.05L270.68 81.5V104H259.88V72.95ZM337.031 87.08H347.651C347.381 88.82 346.511 90.335 345.041 91.625C343.601 92.915 341.486 93.92 338.696 94.64C335.936 95.33 332.411 95.675 328.121 95.675C323.591 95.675 319.676 95.315 316.376 94.595C313.106 93.875 310.586 92.66 308.816 90.95C307.046 89.24 306.161 86.93 306.161 84.02C306.161 81.14 307.016 78.845 308.726 77.135C310.466 75.395 312.971 74.15 316.241 73.4C319.511 72.65 323.471 72.275 328.121 72.275C332.681 72.275 336.416 72.68 339.326 73.49C342.236 74.3 344.381 75.62 345.761 77.45C347.141 79.25 347.801 81.695 347.741 84.785H317.141C317.291 85.565 317.711 86.285 318.401 86.945C319.121 87.605 320.216 88.145 321.686 88.565C323.186 88.955 325.181 89.15 327.671 89.15C330.251 89.15 332.366 88.97 334.016 88.61C335.696 88.25 336.701 87.74 337.031 87.08ZM327.671 78.8C324.491 78.8 322.061 79.145 320.381 79.835C318.731 80.525 317.756 81.215 317.456 81.905H337.256C337.046 81.125 336.206 80.42 334.736 79.79C333.266 79.13 330.911 78.8 327.671 78.8ZM350.223 72.95H361.023V95H350.223V72.95ZM372.633 81.275C370.683 81.275 368.898 81.455 367.278 81.815C365.658 82.175 364.278 82.61 363.138 83.12C361.998 83.6 361.143 84.08 360.573 84.56L360.483 82.4C360.573 81.77 360.813 81.035 361.203 80.195C361.593 79.325 362.118 78.44 362.778 77.54C363.438 76.61 364.248 75.755 365.208 74.975C366.168 74.165 367.263 73.52 368.493 73.04C369.753 72.53 371.133 72.275 372.633 72.275V81.275Z" fill="black"/>
<path d="M233.135 129.276C232.131 129.276 231.219 129.1 230.398 128.747C229.578 128.394 228.873 127.896 228.282 127.252C227.7 126.6 227.263 125.834 226.971 124.952L229.674 123.951C230.019 124.687 230.498 125.293 231.111 125.768C231.732 126.236 232.43 126.47 233.204 126.47C234.025 126.47 234.676 126.297 235.159 125.952C235.65 125.607 235.895 125.105 235.895 124.446C235.895 123.994 235.75 123.618 235.458 123.319C235.175 123.012 234.787 122.752 234.297 122.537C233.814 122.315 233.266 122.1 232.652 121.893C232.062 121.694 231.468 121.471 230.87 121.226C230.272 120.981 229.724 120.682 229.225 120.329C228.727 119.969 228.324 119.516 228.018 118.972C227.719 118.428 227.569 117.761 227.569 116.971C227.569 116.181 227.78 115.457 228.202 114.797C228.623 114.138 229.233 113.613 230.03 113.222C230.835 112.823 231.809 112.624 232.951 112.624C233.887 112.624 234.715 112.785 235.435 113.107C236.164 113.421 236.765 113.851 237.241 114.395C237.716 114.939 238.046 115.556 238.23 116.246L235.562 117.132C235.347 116.649 235.017 116.246 234.573 115.924C234.136 115.595 233.542 115.43 232.79 115.43C232.085 115.43 231.537 115.568 231.146 115.844C230.755 116.12 230.559 116.511 230.559 117.017C230.559 117.362 230.69 117.657 230.95 117.902C231.219 118.14 231.575 118.355 232.02 118.546C232.472 118.738 232.982 118.934 233.549 119.133C234.186 119.348 234.818 119.593 235.447 119.869C236.083 120.137 236.658 120.467 237.172 120.858C237.693 121.249 238.111 121.736 238.425 122.318C238.74 122.893 238.897 123.599 238.897 124.434C238.897 125.462 238.64 126.336 238.126 127.056C237.62 127.777 236.934 128.329 236.068 128.712C235.201 129.088 234.224 129.276 233.135 129.276ZM244.509 129.276C243.574 129.276 242.872 129.019 242.405 128.505C241.937 127.992 241.703 127.225 241.703 126.205V119.765H239.99V117.247H241.703V113.762L244.555 112.394V117.247H247.223V119.765H244.555V125.688C244.555 126.056 244.628 126.328 244.774 126.504C244.927 126.681 245.165 126.769 245.487 126.769C246.054 126.769 246.675 126.593 247.35 126.24L247.016 128.747C246.664 128.923 246.28 129.054 245.866 129.138C245.452 129.23 245 129.276 244.509 129.276ZM254.266 129.276C253.139 129.276 252.165 129.023 251.345 128.517C250.532 128.011 249.903 127.298 249.459 126.378C249.022 125.45 248.803 124.362 248.803 123.112C248.803 121.847 249.026 120.754 249.47 119.834C249.923 118.914 250.555 118.209 251.368 117.718C252.188 117.22 253.154 116.971 254.266 116.971C255.216 116.971 256.079 117.17 256.853 117.569C257.628 117.968 258.245 118.581 258.705 119.409C259.165 120.229 259.395 121.276 259.395 122.548C259.395 122.748 259.387 122.993 259.372 123.284C259.364 123.568 259.345 123.856 259.314 124.147H251.644C251.674 124.684 251.797 125.155 252.012 125.561C252.234 125.96 252.537 126.271 252.92 126.493C253.304 126.715 253.756 126.826 254.277 126.826C254.837 126.826 255.324 126.734 255.738 126.55C256.152 126.359 256.543 126.056 256.911 125.642L258.567 127.355C258.061 127.93 257.451 128.394 256.738 128.747C256.025 129.1 255.201 129.276 254.266 129.276ZM251.655 121.904H256.612C256.573 121.391 256.458 120.95 256.267 120.582C256.075 120.206 255.807 119.919 255.462 119.719C255.117 119.52 254.699 119.42 254.208 119.42C253.534 119.42 252.959 119.627 252.483 120.041C252.008 120.455 251.732 121.076 251.655 121.904ZM262.004 129V119.765H260.348V117.247H262.004V115.43C262.004 114.51 262.245 113.812 262.728 113.337C263.219 112.862 263.928 112.624 264.856 112.624C265.377 112.624 265.841 112.674 266.247 112.773C266.661 112.865 267.056 113.007 267.432 113.199V115.545C267.118 115.415 266.819 115.315 266.535 115.246C266.251 115.169 265.991 115.131 265.753 115.131C265.462 115.131 265.243 115.204 265.097 115.349C264.952 115.487 264.879 115.702 264.879 115.993V117.247H267.432V119.765H264.879V129H262.004ZM272.524 129.276C271.243 129.276 270.227 128.931 269.476 128.241C268.732 127.543 268.361 126.6 268.361 125.412C268.361 124.645 268.552 123.974 268.936 123.399C269.327 122.817 269.867 122.368 270.557 122.054C271.255 121.732 272.067 121.571 272.995 121.571C273.509 121.571 274.003 121.621 274.479 121.72C274.962 121.812 275.383 121.947 275.744 122.123V121.387C275.744 120.728 275.556 120.233 275.18 119.903C274.812 119.566 274.268 119.397 273.547 119.397C272.972 119.397 272.382 119.501 271.776 119.708C271.17 119.915 270.557 120.222 269.936 120.628L269.074 118.362C269.748 117.918 270.5 117.577 271.328 117.339C272.156 117.094 272.991 116.971 273.835 116.971C275.414 116.971 276.595 117.347 277.377 118.098C278.159 118.842 278.55 119.953 278.55 121.433V129H275.744V128.057C275.345 128.456 274.87 128.758 274.318 128.965C273.773 129.173 273.175 129.276 272.524 129.276ZM273.191 126.849C273.666 126.849 274.122 126.757 274.559 126.573C275.004 126.382 275.399 126.113 275.744 125.768V124.377C275.414 124.216 275.046 124.093 274.64 124.009C274.241 123.917 273.842 123.871 273.444 123.871C272.731 123.871 272.167 124.009 271.753 124.285C271.347 124.553 271.144 124.929 271.144 125.412C271.144 125.864 271.324 126.217 271.684 126.47C272.044 126.723 272.547 126.849 273.191 126.849ZM281.413 129V117.247H284.288V118.374C284.664 117.906 285.112 117.557 285.634 117.327C286.163 117.09 286.764 116.971 287.439 116.971C288.75 116.971 289.762 117.377 290.475 118.19C291.188 118.995 291.545 120.156 291.545 121.674V129H288.681V122.56C288.681 121.571 288.509 120.85 288.164 120.398C287.826 119.938 287.297 119.708 286.577 119.708C285.795 119.708 285.216 119.938 284.84 120.398C284.472 120.85 284.288 121.556 284.288 122.514V129H281.413ZM299.739 129V112.9H310.618V115.729H302.718V119.271H307.398V122.1H302.718V126.148H311.101V129H299.739ZM313.267 129V117.247H316.142V118.374C316.518 117.906 316.966 117.557 317.488 117.327C318.017 117.09 318.618 116.971 319.293 116.971C320.604 116.971 321.616 117.377 322.329 118.19C323.042 118.995 323.399 120.156 323.399 121.674V129H320.535V122.56C320.535 121.571 320.363 120.85 320.018 120.398C319.68 119.938 319.151 119.708 318.431 119.708C317.649 119.708 317.07 119.938 316.694 120.398C316.326 120.85 316.142 121.556 316.142 122.514V129H313.267ZM330.567 133.899L328.98 131.496C330.1 131.411 330.966 131.285 331.579 131.116C332.2 130.947 332.633 130.706 332.879 130.392C333.124 130.077 333.247 129.667 333.247 129.161V128.31C332.649 128.954 331.805 129.276 330.717 129.276C329.697 129.276 328.819 129.031 328.083 128.54C327.347 128.042 326.78 127.332 326.381 126.412C325.99 125.485 325.795 124.385 325.795 123.112C325.795 121.87 325.998 120.789 326.404 119.869C326.818 118.949 327.393 118.236 328.129 117.73C328.873 117.224 329.743 116.971 330.74 116.971C331.261 116.971 331.736 117.051 332.166 117.212C332.603 117.373 332.963 117.607 333.247 117.914V117.247H336.11V127.942C336.11 128.985 336.014 129.866 335.823 130.587C335.631 131.308 335.317 131.898 334.88 132.358C334.45 132.818 333.883 133.167 333.178 133.405C332.472 133.65 331.602 133.815 330.567 133.899ZM331.188 126.527C331.595 126.527 331.974 126.435 332.327 126.251C332.687 126.06 332.994 125.803 333.247 125.481V120.743C333.032 120.444 332.737 120.199 332.361 120.007C331.986 119.808 331.606 119.708 331.223 119.708C330.395 119.708 329.762 119.999 329.325 120.582C328.896 121.157 328.681 122 328.681 123.112C328.681 123.833 328.777 124.45 328.969 124.963C329.168 125.469 329.456 125.857 329.831 126.125C330.207 126.393 330.659 126.527 331.188 126.527ZM343.732 129.276C342.605 129.276 341.631 129.023 340.811 128.517C339.998 128.011 339.37 127.298 338.925 126.378C338.488 125.45 338.27 124.362 338.27 123.112C338.27 121.847 338.492 120.754 338.937 119.834C339.389 118.914 340.021 118.209 340.834 117.718C341.654 117.22 342.62 116.971 343.732 116.971C344.683 116.971 345.545 117.17 346.32 117.569C347.094 117.968 347.711 118.581 348.171 119.409C348.631 120.229 348.861 121.276 348.861 122.548C348.861 122.748 348.853 122.993 348.838 123.284C348.83 123.568 348.811 123.856 348.781 124.147H341.11C341.141 124.684 341.263 125.155 341.478 125.561C341.7 125.96 342.003 126.271 342.387 126.493C342.77 126.715 343.222 126.826 343.744 126.826C344.303 126.826 344.79 126.734 345.204 126.55C345.618 126.359 346.009 126.056 346.377 125.642L348.033 127.355C347.527 127.93 346.918 128.394 346.205 128.747C345.492 129.1 344.667 129.276 343.732 129.276ZM341.122 121.904H346.078C346.04 121.391 345.925 120.95 345.733 120.582C345.541 120.206 345.273 119.919 344.928 119.719C344.583 119.52 344.165 119.42 343.675 119.42C343 119.42 342.425 119.627 341.95 120.041C341.474 120.455 341.198 121.076 341.122 121.904ZM351.233 129V113.693L354.108 112.394V129H351.233Z" fill="#00BC8F"/>
<path d="M219 123L39 123" stroke="black" stroke-width="3" stroke-linecap="square"/>
<path d="M313 435.105L338 460.105L363 435.105" stroke="black" stroke-width="4"/>
<path d="M338 368V460.105" stroke="black" stroke-width="4"/>
<path d="M317.99 491.24C317.21 491.24 316.503 491.107 315.87 490.84C315.237 490.567 314.697 490.2 314.25 489.74C313.81 489.273 313.483 488.753 313.27 488.18L314.62 487.7C314.92 488.36 315.367 488.893 315.96 489.3C316.553 489.707 317.243 489.91 318.03 489.91C318.917 489.91 319.627 489.69 320.16 489.25C320.7 488.81 320.97 488.17 320.97 487.33C320.97 486.763 320.817 486.28 320.51 485.88C320.203 485.473 319.803 485.133 319.31 484.86C318.817 484.58 318.29 484.337 317.73 484.13C317.25 483.95 316.77 483.75 316.29 483.53C315.817 483.303 315.383 483.04 314.99 482.74C314.603 482.433 314.293 482.063 314.06 481.63C313.827 481.197 313.71 480.683 313.71 480.09C313.71 479.477 313.87 478.92 314.19 478.42C314.517 477.913 314.987 477.51 315.6 477.21C316.213 476.91 316.957 476.76 317.83 476.76C318.517 476.76 319.13 476.863 319.67 477.07C320.21 477.277 320.66 477.563 321.02 477.93C321.38 478.297 321.633 478.717 321.78 479.19L320.47 479.63C320.283 479.17 319.957 478.797 319.49 478.51C319.03 478.217 318.443 478.07 317.73 478.07C316.93 478.07 316.3 478.253 315.84 478.62C315.387 478.98 315.16 479.473 315.16 480.1C315.16 480.587 315.31 480.993 315.61 481.32C315.91 481.647 316.3 481.927 316.78 482.16C317.267 482.393 317.78 482.617 318.32 482.83C318.793 483.01 319.27 483.22 319.75 483.46C320.237 483.7 320.68 483.993 321.08 484.34C321.48 484.68 321.803 485.093 322.05 485.58C322.297 486.06 322.42 486.637 322.42 487.31C322.42 488.15 322.227 488.863 321.84 489.45C321.46 490.03 320.937 490.473 320.27 490.78C319.603 491.087 318.843 491.24 317.99 491.24ZM328.214 491.24C327.374 491.24 326.651 491.027 326.044 490.6C325.437 490.167 324.971 489.553 324.644 488.76C324.324 487.96 324.164 487.007 324.164 485.9C324.164 484.787 324.331 483.83 324.664 483.03C324.997 482.23 325.474 481.617 326.094 481.19C326.714 480.757 327.454 480.54 328.314 480.54C329.134 480.54 329.834 480.74 330.414 481.14C331.001 481.533 331.427 482.1 331.694 482.84L330.364 483.33C330.191 482.857 329.927 482.493 329.574 482.24C329.221 481.987 328.807 481.86 328.334 481.86C327.447 481.86 326.771 482.203 326.304 482.89C325.844 483.577 325.614 484.58 325.614 485.9C325.614 487.167 325.844 488.153 326.304 488.86C326.764 489.56 327.411 489.91 328.244 489.91C328.791 489.91 329.261 489.763 329.654 489.47C330.047 489.177 330.321 488.777 330.474 488.27L331.794 488.71C331.561 489.51 331.127 490.133 330.494 490.58C329.867 491.02 329.107 491.24 328.214 491.24ZM334.177 491V480.78H335.577V482.4C335.83 481.8 336.18 481.34 336.627 481.02C337.08 480.7 337.603 480.54 338.197 480.54C338.81 480.54 339.31 480.703 339.697 481.03L339.487 482.36C339.287 482.22 339.067 482.117 338.827 482.05C338.593 481.983 338.34 481.95 338.067 481.95C337.573 481.95 337.14 482.09 336.767 482.37C336.393 482.65 336.1 483.04 335.887 483.54C335.68 484.033 335.577 484.61 335.577 485.27V491H334.177ZM344.633 491.24C343.287 491.24 342.223 490.763 341.443 489.81C340.663 488.85 340.273 487.547 340.273 485.9C340.273 484.8 340.45 483.85 340.803 483.05C341.157 482.25 341.66 481.633 342.313 481.2C342.967 480.76 343.74 480.54 344.633 480.54C345.533 480.54 346.31 480.757 346.963 481.19C347.617 481.617 348.117 482.23 348.463 483.03C348.817 483.83 348.993 484.78 348.993 485.88C348.993 486.98 348.817 487.933 348.463 488.74C348.11 489.54 347.607 490.157 346.953 490.59C346.3 491.023 345.527 491.24 344.633 491.24ZM344.633 489.92C345.553 489.92 346.27 489.563 346.783 488.85C347.303 488.137 347.563 487.147 347.563 485.88C347.563 484.607 347.303 483.617 346.783 482.91C346.27 482.203 345.553 481.85 344.633 481.85C343.7 481.85 342.977 482.203 342.463 482.91C341.957 483.61 341.703 484.607 341.703 485.9C341.703 487.173 341.96 488.163 342.473 488.87C342.987 489.57 343.707 489.92 344.633 489.92ZM351.508 491V477.23L352.908 476.56V491H351.508ZM356.126 491V477.23L357.526 476.56V491H356.126ZM314.04 511V497H317.65C318.837 497 319.84 497.2 320.66 497.6C321.48 498 322.137 498.537 322.63 499.21C323.13 499.877 323.49 500.627 323.71 501.46C323.937 502.287 324.05 503.133 324.05 504C324.05 504.807 323.947 505.62 323.74 506.44C323.533 507.26 323.187 508.017 322.7 508.71C322.213 509.397 321.55 509.95 320.71 510.37C319.877 510.79 318.83 511 317.57 511H314.04ZM315.44 509.68H317.72C318.66 509.68 319.443 509.513 320.07 509.18C320.697 508.84 321.197 508.393 321.57 507.84C321.943 507.28 322.207 506.667 322.36 506C322.52 505.327 322.6 504.66 322.6 504C322.6 503.287 322.513 502.593 322.34 501.92C322.173 501.24 321.9 500.63 321.52 500.09C321.147 499.543 320.66 499.11 320.06 498.79C319.467 498.47 318.743 498.31 317.89 498.31H315.44V509.68ZM330.36 511.24C329.013 511.24 327.95 510.763 327.17 509.81C326.39 508.85 326 507.547 326 505.9C326 504.8 326.177 503.85 326.53 503.05C326.883 502.25 327.387 501.633 328.04 501.2C328.693 500.76 329.467 500.54 330.36 500.54C331.26 500.54 332.037 500.757 332.69 501.19C333.343 501.617 333.843 502.23 334.19 503.03C334.543 503.83 334.72 504.78 334.72 505.88C334.72 506.98 334.543 507.933 334.19 508.74C333.837 509.54 333.333 510.157 332.68 510.59C332.027 511.023 331.253 511.24 330.36 511.24ZM330.36 509.92C331.28 509.92 331.997 509.563 332.51 508.85C333.03 508.137 333.29 507.147 333.29 505.88C333.29 504.607 333.03 503.617 332.51 502.91C331.997 502.203 331.28 501.85 330.36 501.85C329.427 501.85 328.703 502.203 328.19 502.91C327.683 503.61 327.43 504.607 327.43 505.9C327.43 507.173 327.687 508.163 328.2 508.87C328.713 509.57 329.433 509.92 330.36 509.92ZM338.65 511L336.03 500.78H337.42L339.11 507.98C339.156 508.16 339.196 508.34 339.23 508.52C339.27 508.693 339.306 508.867 339.34 509.04C339.38 508.867 339.423 508.69 339.47 508.51C339.516 508.33 339.563 508.153 339.61 507.98L341.71 500.78H342.84L344.93 507.98C344.983 508.167 345.033 508.35 345.08 508.53C345.133 508.71 345.18 508.89 345.22 509.07C345.253 508.89 345.286 508.71 345.32 508.53C345.36 508.35 345.403 508.167 345.45 507.98L347.13 500.78H348.51L345.9 511H344.69L342.65 504.45C342.59 504.243 342.523 504.02 342.45 503.78C342.383 503.54 342.32 503.313 342.26 503.1C342.206 503.313 342.146 503.54 342.08 503.78C342.013 504.02 341.946 504.243 341.88 504.45L339.86 511H338.65ZM350.669 511V500.78H352.069V502.09C352.356 501.59 352.736 501.207 353.209 500.94C353.689 500.673 354.232 500.54 354.839 500.54C356.032 500.54 356.919 500.91 357.499 501.65C358.079 502.383 358.369 503.5 358.369 505V511H356.969V504.75C356.969 503.797 356.769 503.073 356.369 502.58C355.969 502.08 355.389 501.83 354.629 501.83C353.789 501.83 353.152 502.087 352.719 502.6C352.286 503.113 352.069 503.87 352.069 504.87V511H350.669Z" fill="black"/>
<path d="M44.24 525.31C44.24 525.99 44.0933 526.643 43.8 527.27C43.5067 527.897 43.1 528.423 42.58 528.85L41.71 527.83C42.11 527.463 42.42 527.057 42.64 526.61C42.86 526.163 42.97 525.723 42.97 525.29C42.97 524.637 42.8367 524.133 42.57 523.78C42.3033 523.42 41.93 523.24 41.45 523.24C41.15 523.24 40.8767 523.323 40.63 523.49C40.3833 523.65 40.1533 523.913 39.94 524.28C39.72 524.647 39.4967 525.13 39.27 525.73C38.87 526.81 38.4333 527.587 37.96 528.06C37.48 528.533 36.8867 528.77 36.18 528.77C35.3933 528.77 34.7567 528.467 34.27 527.86C33.7833 527.247 33.54 526.45 33.54 525.47C33.54 524.823 33.6667 524.217 33.92 523.65C34.1667 523.083 34.5233 522.6 34.99 522.2L35.81 523.18C35.1433 523.833 34.81 524.603 34.81 525.49C34.81 526.07 34.9333 526.53 35.18 526.87C35.42 527.203 35.7533 527.37 36.18 527.37C36.5733 527.37 36.9133 527.197 37.2 526.85C37.48 526.503 37.79 525.87 38.13 524.95C38.41 524.203 38.7067 523.603 39.02 523.15C39.3267 522.697 39.6767 522.37 40.07 522.17C40.4633 521.963 40.9167 521.86 41.43 521.86C42.3033 521.86 42.99 522.167 43.49 522.78C43.99 523.393 44.24 524.237 44.24 525.31ZM44.24 515.848C44.24 516.755 44.0167 517.538 43.57 518.198C43.1167 518.852 42.4867 519.355 41.68 519.708C40.8733 520.062 39.94 520.238 38.88 520.238C37.7533 520.238 36.7933 520.055 36 519.688C35.2 519.315 34.59 518.798 34.17 518.138C33.75 517.478 33.54 516.715 33.54 515.848C33.54 515.095 33.7167 514.412 34.07 513.798C34.4233 513.185 34.97 512.698 35.71 512.338C36.45 511.978 37.4 511.798 38.56 511.798C38.68 511.798 38.8167 511.802 38.97 511.808C39.1167 511.815 39.27 511.825 39.43 511.838L39.43 518.788C40.1367 518.735 40.7567 518.592 41.29 518.358C41.8167 518.118 42.2333 517.788 42.54 517.368C42.84 516.942 42.99 516.418 42.99 515.798C42.99 515.378 42.9167 514.975 42.77 514.588C42.6167 514.202 42.3833 513.842 42.07 513.508L43.01 512.688C43.3633 513.062 43.6567 513.522 43.89 514.068C44.1233 514.608 44.24 515.202 44.24 515.848ZM38.2 518.808L38.2 513.228C37.5667 513.228 36.99 513.325 36.47 513.518C35.95 513.705 35.5367 513.995 35.23 514.388C34.9233 514.775 34.77 515.262 34.77 515.848C34.77 516.642 35.0433 517.318 35.59 517.878C36.1367 518.432 37.0067 518.742 38.2 518.808ZM44 509.355L35.01 509.355L35.01 510.955L33.78 510.955L33.78 509.355L32.03 509.355C31.2967 509.355 30.7367 509.171 30.35 508.805C29.9567 508.431 29.76 507.901 29.76 507.215C29.76 506.928 29.7967 506.645 29.87 506.365C29.9433 506.078 30.05 505.805 30.19 505.545L31.37 505.545C31.2433 505.818 31.1533 506.061 31.1 506.275C31.0467 506.488 31.02 506.705 31.02 506.925C31.02 507.291 31.1167 507.555 31.31 507.715C31.4967 507.875 31.8133 507.955 32.26 507.955L33.78 507.955L33.78 505.545L35.01 505.545L35.01 507.955L44 507.955L44 509.355ZM44.24 501.088C44.24 502.168 43.94 503.015 43.34 503.628C42.7333 504.242 41.9 504.548 40.84 504.548C40.16 504.548 39.57 504.398 39.07 504.098C38.57 503.792 38.1867 503.362 37.92 502.808C37.6467 502.248 37.51 501.588 37.51 500.828C37.51 500.328 37.5733 499.852 37.7 499.398C37.8267 498.938 38.0167 498.495 38.27 498.068L37.29 498.068C36.4233 498.068 35.7867 498.258 35.38 498.638C34.9733 499.012 34.77 499.595 34.77 500.388C34.77 500.862 34.86 501.365 35.04 501.898C35.2133 502.425 35.46 502.925 35.78 503.398L34.6 503.808C34.26 503.268 34 502.685 33.82 502.058C33.6333 501.432 33.54 500.818 33.54 500.218C33.54 499.072 33.84 498.205 34.44 497.618C35.04 497.032 35.9233 496.738 37.09 496.738L44 496.738L44 498.068L42.84 498.068C43.2867 498.475 43.6333 498.942 43.88 499.468C44.12 499.988 44.24 500.528 44.24 501.088ZM43.01 500.908C43.01 500.395 42.8767 499.895 42.61 499.408C42.3367 498.922 41.9467 498.475 41.44 498.068L39.53 498.068C39.2767 498.462 39.0833 498.888 38.95 499.348C38.81 499.802 38.74 500.242 38.74 500.668C38.74 501.435 38.9333 502.048 39.32 502.508C39.7 502.962 40.21 503.188 40.85 503.188C41.51 503.188 42.0367 502.985 42.43 502.578C42.8167 502.172 43.01 501.615 43.01 500.908ZM44 493.745L33.78 493.745L33.78 492.345L35.09 492.345C34.59 492.058 34.2067 491.678 33.94 491.205C33.6733 490.725 33.54 490.182 33.54 489.575C33.54 488.382 33.91 487.495 34.65 486.915C35.3833 486.335 36.5 486.045 38 486.045L44 486.045L44 487.445L37.75 487.445C36.7967 487.445 36.0733 487.645 35.58 488.045C35.08 488.445 34.83 489.025 34.83 489.785C34.83 490.625 35.0867 491.262 35.6 491.695C36.1133 492.128 36.87 492.345 37.87 492.345L44 492.345L44 493.745ZM44.24 476.754C44.24 478.054 43.97 479.23 43.43 480.284C42.8833 481.33 42.0933 482.16 41.06 482.774C40.0267 483.387 38.77 483.694 37.29 483.694C36.1833 483.694 35.1733 483.504 34.26 483.124C33.34 482.737 32.5433 482.21 31.87 481.544C31.1967 480.87 30.6767 480.097 30.31 479.224C29.9433 478.35 29.76 477.424 29.76 476.444C29.76 475.144 30.0167 474.004 30.53 473.024C31.0433 472.037 31.7467 471.27 32.64 470.724C33.5333 470.177 34.5567 469.904 35.71 469.904C36.6967 469.904 37.5733 470.057 38.34 470.364C39.1 470.67 39.7 471.08 40.14 471.594C40.5733 472.1 40.79 472.657 40.79 473.264C40.79 473.557 40.7367 473.824 40.63 474.064C40.5167 474.297 40.3567 474.49 40.15 474.644C39.9367 474.79 39.6833 474.887 39.39 474.934C39.75 475.134 40.0433 475.367 40.27 475.634C40.4967 475.894 40.6633 476.18 40.77 476.494C40.8767 476.8 40.93 477.114 40.93 477.434C40.93 478 40.79 478.5 40.51 478.934C40.2233 479.367 39.8267 479.707 39.32 479.954C38.8067 480.2 38.2067 480.324 37.52 480.324C36.86 480.324 36.21 480.177 35.57 479.884C34.93 479.584 34.4033 479.164 33.99 478.624C33.5767 478.077 33.37 477.434 33.37 476.694C33.37 476.114 33.5233 475.637 33.83 475.264C34.1367 474.884 34.5433 474.62 35.05 474.474L33.63 474.234L33.63 472.984L37.67 473.694C37.9033 473.74 38.12 473.777 38.32 473.804C38.52 473.824 38.6833 473.834 38.81 473.834C39.1033 473.834 39.3267 473.77 39.48 473.644C39.6333 473.51 39.71 473.33 39.71 473.104C39.71 472.744 39.5367 472.414 39.19 472.114C38.8367 471.814 38.3567 471.574 37.75 471.394C37.1433 471.207 36.4567 471.114 35.69 471.114C34.7367 471.114 33.9067 471.34 33.2 471.794C32.4867 472.24 31.9367 472.86 31.55 473.654C31.1567 474.447 30.96 475.36 30.96 476.394C30.96 477.274 31.12 478.08 31.44 478.814C31.7533 479.547 32.1967 480.18 32.77 480.714C33.3433 481.247 34.0167 481.66 34.79 481.954C35.5633 482.247 36.4033 482.394 37.31 482.394C38.4167 482.394 39.4033 482.167 40.27 481.714C41.13 481.254 41.8067 480.6 42.3 479.754C42.7933 478.9 43.04 477.874 43.04 476.674C43.04 476.234 43.0133 475.784 42.96 475.324C42.9067 474.857 42.83 474.44 42.73 474.074L44.01 474.374C44.09 474.714 44.1467 475.087 44.18 475.494C44.22 475.9 44.24 476.32 44.24 476.754ZM39.72 477.184C39.72 476.704 39.58 476.287 39.3 475.934C39.02 475.58 38.6533 475.307 38.2 475.114C37.7467 474.92 37.2633 474.824 36.75 474.824C36.0967 474.824 35.5733 474.994 35.18 475.334C34.7867 475.667 34.59 476.08 34.59 476.574C34.59 477.08 34.7267 477.514 35 477.874C35.2667 478.234 35.6267 478.51 36.08 478.704C36.5267 478.897 37.0133 478.994 37.54 478.994C38.2067 478.994 38.7367 478.83 39.13 478.504C39.5233 478.17 39.72 477.73 39.72 477.184ZM48.26 465.223L47.14 465.913C47.0867 464.986 46.9533 464.23 46.74 463.643C46.5333 463.056 46.2367 462.623 45.85 462.343C45.4633 462.063 44.9733 461.923 44.38 461.923L42.77 461.923C43.75 462.536 44.24 463.463 44.24 464.703C44.24 465.523 44.0167 466.24 43.57 466.853C43.1233 467.466 42.5 467.943 41.7 468.283C40.8933 468.623 39.9533 468.793 38.88 468.793C37.7933 468.793 36.85 468.623 36.05 468.283C35.25 467.936 34.6333 467.453 34.2 466.833C33.76 466.213 33.54 465.48 33.54 464.633C33.54 464.08 33.6567 463.563 33.89 463.083C34.1167 462.596 34.43 462.21 34.83 461.923L33.78 461.923L33.78 460.523L43.97 460.523C44.65 460.523 45.2467 460.62 45.76 460.813C46.28 461 46.7167 461.29 47.07 461.683C47.4233 462.07 47.6967 462.56 47.89 463.153C48.09 463.74 48.2133 464.43 48.26 465.223ZM42.92 464.453C42.92 463.953 42.7667 463.473 42.46 463.013C42.1467 462.553 41.7367 462.19 41.23 461.923L36.41 461.923C35.9433 462.183 35.5667 462.546 35.28 463.013C34.9933 463.473 34.85 463.946 34.85 464.433C34.85 465.38 35.1967 466.106 35.89 466.613C36.5767 467.113 37.5733 467.363 38.88 467.363C39.6933 467.363 40.4033 467.243 41.01 467.003C41.61 466.756 42.08 466.416 42.42 465.983C42.7533 465.543 42.92 465.033 42.92 464.453ZM44 457.355L33.78 457.355L33.78 455.955L34.98 455.955C34.5133 455.661 34.1567 455.278 33.91 454.805C33.6633 454.331 33.54 453.801 33.54 453.215C33.54 452.568 33.7 452.005 34.02 451.525C34.34 451.038 34.79 450.678 35.37 450.445C34.7967 450.158 34.35 449.751 34.03 449.225C33.7033 448.691 33.54 448.098 33.54 447.445C33.54 446.385 33.87 445.541 34.53 444.915C35.1833 444.288 36.07 443.975 37.19 443.975L44 443.975L44 445.375L37.73 445.375C36.7833 445.375 36.0633 445.565 35.57 445.945C35.0767 446.325 34.83 446.875 34.83 447.595C34.83 448.068 34.9533 448.485 35.2 448.845C35.4467 449.198 35.7933 449.475 36.24 449.675C36.68 449.875 37.19 449.975 37.77 449.975L44 449.975L44 451.375L37.73 451.375C36.7767 451.375 36.0567 451.558 35.57 451.925C35.0767 452.291 34.83 452.838 34.83 453.565C34.83 454.305 35.0933 454.888 35.62 455.315C36.14 455.741 36.8533 455.955 37.76 455.955L44 455.955L44 457.355ZM44.24 438.061C44.24 439.141 43.94 439.988 43.34 440.601C42.7333 441.214 41.9 441.521 40.84 441.521C40.16 441.521 39.57 441.371 39.07 441.071C38.57 440.764 38.1867 440.334 37.92 439.781C37.6467 439.221 37.51 438.561 37.51 437.801C37.51 437.301 37.5733 436.824 37.7 436.371C37.8267 435.911 38.0167 435.468 38.27 435.041L37.29 435.041C36.4233 435.041 35.7867 435.231 35.38 435.611C34.9733 435.984 34.77 436.568 34.77 437.361C34.77 437.834 34.86 438.338 35.04 438.871C35.2133 439.398 35.46 439.898 35.78 440.371L34.6 440.781C34.26 440.241 34 439.658 33.82 439.031C33.6333 438.404 33.54 437.791 33.54 437.191C33.54 436.044 33.84 435.178 34.44 434.591C35.04 434.004 35.9233 433.711 37.09 433.711L44 433.711L44 435.041L42.84 435.041C43.2867 435.448 43.6333 435.914 43.88 436.441C44.12 436.961 44.24 437.501 44.24 438.061ZM43.01 437.881C43.01 437.368 42.8767 436.868 42.61 436.381C42.3367 435.894 41.9467 435.448 41.44 435.041L39.53 435.041C39.2767 435.434 39.0833 435.861 38.95 436.321C38.81 436.774 38.74 437.214 38.74 437.641C38.74 438.408 38.9333 439.021 39.32 439.481C39.7 439.934 40.21 440.161 40.85 440.161C41.51 440.161 42.0367 439.958 42.43 439.551C42.8167 439.144 43.01 438.588 43.01 437.881ZM44 430.912L33.78 430.912L33.78 429.512L44 429.512L44 430.912ZM31.73 430.222C31.73 430.476 31.64 430.692 31.46 430.872C31.28 431.046 31.0633 431.132 30.81 431.132C30.5433 431.132 30.32 431.046 30.14 430.872C29.9533 430.692 29.86 430.476 29.86 430.222C29.86 429.956 29.9533 429.736 30.14 429.562C30.32 429.382 30.5433 429.292 30.81 429.292C31.0633 429.292 31.28 429.382 31.46 429.562C31.64 429.736 31.73 429.956 31.73 430.222ZM44 426.343L30.23 426.343L29.56 424.943L44 424.943L44 426.343ZM44.27 421.416C44.27 421.729 44.16 421.996 43.94 422.216C43.72 422.429 43.4633 422.536 43.17 422.536C42.87 422.536 42.6067 422.429 42.38 422.216C42.1533 421.996 42.04 421.729 42.04 421.416C42.04 421.096 42.1533 420.829 42.38 420.616C42.6067 420.403 42.87 420.296 43.17 420.296C43.4633 420.296 43.72 420.403 43.94 420.616C44.16 420.829 44.27 421.096 44.27 421.416ZM44.24 415.224C44.24 416.064 44.0267 416.787 43.6 417.394C43.1667 418 42.5533 418.467 41.76 418.794C40.96 419.114 40.0067 419.274 38.9 419.274C37.7867 419.274 36.83 419.107 36.03 418.774C35.23 418.44 34.6167 417.964 34.19 417.344C33.7567 416.724 33.54 415.984 33.54 415.124C33.54 414.304 33.74 413.604 34.14 413.024C34.5333 412.437 35.1 412.01 35.84 411.744L36.33 413.074C35.8567 413.247 35.4933 413.51 35.24 413.864C34.9867 414.217 34.86 414.63 34.86 415.104C34.86 415.99 35.2033 416.667 35.89 417.134C36.5767 417.594 37.58 417.824 38.9 417.824C40.1667 417.824 41.1533 417.594 41.86 417.134C42.56 416.674 42.91 416.027 42.91 415.194C42.91 414.647 42.7633 414.177 42.47 413.784C42.1767 413.39 41.7767 413.117 41.27 412.964L41.71 411.644C42.51 411.877 43.1333 412.31 43.58 412.944C44.02 413.57 44.24 414.33 44.24 415.224ZM44.24 405.55C44.24 406.897 43.7633 407.96 42.81 408.74C41.85 409.52 40.5467 409.91 38.9 409.91C37.8 409.91 36.85 409.734 36.05 409.38C35.25 409.027 34.6333 408.524 34.2 407.87C33.76 407.217 33.54 406.444 33.54 405.55C33.54 404.65 33.7567 403.874 34.19 403.22C34.6167 402.567 35.23 402.067 36.03 401.72C36.83 401.367 37.78 401.19 38.88 401.19C39.98 401.19 40.9333 401.367 41.74 401.72C42.54 402.074 43.1567 402.577 43.59 403.23C44.0233 403.884 44.24 404.657 44.24 405.55ZM42.92 405.55C42.92 404.63 42.5633 403.914 41.85 403.4C41.1367 402.88 40.1467 402.62 38.88 402.62C37.6067 402.62 36.6167 402.88 35.91 403.4C35.2033 403.914 34.85 404.63 34.85 405.55C34.85 406.484 35.2033 407.207 35.91 407.72C36.61 408.227 37.6067 408.48 38.9 408.48C40.1733 408.48 41.1633 408.224 41.87 407.71C42.57 407.197 42.92 406.477 42.92 405.55ZM44 398.823L33.78 398.823L33.78 397.423L34.98 397.423C34.5133 397.13 34.1567 396.747 33.91 396.273C33.6633 395.8 33.54 395.27 33.54 394.683C33.54 394.037 33.7 393.473 34.02 392.993C34.34 392.507 34.79 392.147 35.37 391.913C34.7967 391.627 34.35 391.22 34.03 390.693C33.7033 390.16 33.54 389.567 33.54 388.913C33.54 387.853 33.87 387.01 34.53 386.383C35.1833 385.757 36.07 385.443 37.19 385.443L44 385.443L44 386.843L37.73 386.843C36.7833 386.843 36.0633 387.033 35.57 387.413C35.0767 387.793 34.83 388.343 34.83 389.063C34.83 389.537 34.9533 389.953 35.2 390.313C35.4467 390.667 35.7933 390.943 36.24 391.143C36.68 391.343 37.19 391.443 37.77 391.443L44 391.443L44 392.843L37.73 392.843C36.7767 392.843 36.0567 393.027 35.57 393.393C35.0767 393.76 34.83 394.307 34.83 395.033C34.83 395.773 35.0933 396.357 35.62 396.783C36.14 397.21 36.8533 397.423 37.76 397.423L44 397.423L44 398.823Z" fill="black"/>
</svg>
