<svg width="72" height="86" viewBox="0 0 72 86" fill="none" xmlns="http://www.w3.org/2000/svg">
<path d="M3.80261 1.65257C3.88681 0.828434 3.28698 0.0920779 2.46285 0.00787109C1.63871 -0.0763347 0.902352 0.523498 0.818146 1.34763L3.80261 1.65257ZM71.2713 72.8306C71.6804 72.1103 71.4281 71.1947 70.7077 70.7855L58.9687 64.1187C58.2483 63.7096 57.3327 63.962 56.9236 64.6823C56.5145 65.4027 56.7668 66.3183 57.4872 66.7274L67.9218 72.6535L61.9958 83.0881C61.5867 83.8085 61.839 84.7241 62.5594 85.1332C63.2797 85.5423 64.1954 85.29 64.6045 84.5696L71.2713 72.8306ZM0.818146 1.34763C-1.47113 23.7532 0.750117 45.9043 11.2388 60.4525C16.5165 67.773 23.8656 73.133 33.6677 75.5992C43.4387 78.0576 55.5519 77.6182 70.3654 73.536L69.5684 70.6438C55.0829 74.6356 43.5199 74.9845 34.3997 72.6899C25.3106 70.4031 18.5535 65.4687 13.6723 58.6981C3.84292 45.0643 1.53496 23.8464 3.80261 1.65257L0.818146 1.34763Z" fill="#E15544"/>
</svg>
