<svg width="64" height="66" viewBox="18 3 64 66" fill="none" xmlns="http://www.w3.org/2000/svg">
  <g fill="#00f5d4">
    <polygon points="50,8 61,14.2 50,20.4 39,14.2"/>
    <polygon points="34,18 45,24.2 34,30.4 23,24.2"/>
    <polygon points="66,18 77,24.2 66,30.4 55,24.2"/>
    <polygon points="23,25.8 34,32 34,45.6 23,39.4"/>
    <polygon points="77,25.8 66,32 66,45.6 77,39.4"/>
    <polygon points="50,27.5 61,33.7 50,39.9 39,33.7"/>
    <polygon points="39,35.1 50,41.3 50,54.6 39,48.4"/>
    <polygon points="61,35.1 50,41.3 50,54.6 61,48.4"/>
  </g>
</svg>
