<svg width="100" height="104" viewBox="0 0 100 104" fill="none" xmlns="http://www.w3.org/2000/svg">
<path d="M17.0059 0.0132157C17.0059 0.303961 16.9927 0.502197 17.0059 0.700433C17.5067 6.19817 18.0076 11.6959 18.4952 17.2069C19.1806 25.0041 19.8528 32.8014 20.5382 40.5855C21.3158 49.3343 22.1067 58.0699 22.8579 66.8187C22.9107 67.453 23.1347 67.7305 23.7278 67.8891C32.1633 70.2151 40.5724 72.5543 49.0078 74.867C49.5746 75.0256 50.2599 75.052 50.8267 74.8934C59.2885 72.5675 67.7371 70.2019 76.1989 67.8627C76.8448 67.6777 77.0688 67.3869 77.1216 66.7261C77.3852 63.4222 77.7015 60.1051 77.9915 56.8011C78.4791 51.3298 78.9536 45.8585 79.4413 40.3872C80.0081 33.9644 80.588 27.5548 81.1548 21.1319C81.5765 16.3478 82.0247 11.577 82.4464 6.79288C82.6441 4.54621 82.8155 2.29953 83 0H17.0059V0.0132157ZM70.2678 19.0967C69.8328 23.9337 69.3979 28.7838 68.9629 33.6208C68.462 39.1846 67.9612 44.7484 67.4603 50.299C67.3154 51.8981 67.1045 53.4972 67.0649 55.1095C67.0386 55.9686 66.6695 56.1932 65.9578 56.3915C60.8701 57.7659 55.7957 59.18 50.7213 60.5808C50.4972 60.6469 50.2863 60.7262 50.0622 60.7923C49.9832 60.7526 49.9041 60.7262 49.8118 60.6866C44.3815 59.2064 38.9512 57.713 33.5209 56.2064C33.2968 56.1404 33.0068 55.7835 32.9805 55.5324C32.5982 51.4091 32.2556 47.2858 31.8865 43.0832H40.177C40.3219 44.7352 40.4801 46.4136 40.6119 48.1052C40.7305 49.6647 40.7174 49.6647 42.1804 50.0611C44.8033 50.7616 47.4393 51.4488 50.0622 52.136L50.0359 52.0699C52.9092 51.3034 55.7825 50.5501 58.6558 49.7307C58.9195 49.6514 59.2226 49.2285 59.2621 48.9378C59.4335 47.6691 59.5257 46.3872 59.6312 45.1185C59.8025 43.07 59.9739 41.0216 60.1584 38.8806H50.0359L50.0622 38.8278C49.9963 38.8278 49.9173 38.8278 49.8514 38.8278H31.5043C31.2538 36.0921 31.0166 33.3829 30.7662 30.5944H49.8645C49.9304 30.5944 50.0095 30.5944 50.0754 30.5944L50.0491 30.5415H60.8965C61.1469 27.7001 61.3974 24.9248 61.6478 22.0967H50.0359L50.0622 22.0438C49.9963 22.0438 49.9173 22.0438 49.8514 22.0438C43.3534 22.057 36.8555 22.057 30.3576 22.0702C30.2653 22.0702 30.1731 22.0306 30.0017 21.9777C29.7645 19.2817 29.514 16.5857 29.2768 13.8104H49.8514C49.9173 13.8104 49.9963 13.8104 50.0622 13.8104L50.0359 13.7576H70.7027C70.5577 15.6078 70.4127 17.3522 70.2678 19.0967Z" fill="#00f5d4"/>
</svg>
