<svg width="100" height="104" viewBox="0 0 100 104" fill="none" xmlns="http://www.w3.org/2000/svg">
<path d="M86.1028 34.1966L53.3089 1.40701C51.4326 -0.469005 48.3327 -0.469005 46.4564 1.40701L39.6855 8.177L48.3327 16.823C50.3721 16.1705 52.6563 16.5783 54.2062 18.2096C55.8378 19.8409 56.2457 22.1248 55.593 24.1639L63.9139 32.4837C65.9533 31.8312 68.2375 32.239 69.869 33.8703C72.1532 36.0726 72.1532 39.7431 69.869 42.0269C67.5849 44.3108 63.9955 44.3108 61.7113 42.0269C59.9982 40.314 59.5903 37.8671 60.4877 35.7463L52.7379 27.9976V48.3891C53.3089 48.6338 53.7984 49.0416 54.2878 49.4494C56.572 51.6517 56.572 55.3222 54.2878 57.606C52.0037 59.8083 48.4143 59.8083 46.1301 57.606C43.846 55.3222 43.846 51.7333 46.1301 49.4494C46.7012 48.8785 47.3538 48.4706 48.0064 48.2259V27.5897C47.3538 27.345 46.7012 26.8556 46.1301 26.3662C44.417 24.6533 44.0091 22.2064 44.9065 20.0856L36.3409 11.6028L13.9072 34.0334C12.0309 35.9095 12.0309 39.009 13.9072 40.885L46.6196 73.593C48.4958 75.469 51.5958 75.469 53.472 73.593L86.0213 41.0481C87.9791 39.0905 87.9791 36.0726 86.1028 34.1966Z" fill="#00f5d4"/>
</svg>
