<svg width="100" height="104" viewBox="0 0 100 104" fill="none" xmlns="http://www.w3.org/2000/svg">
<path d="M12.5 0C37.5169 0 62.4831 0 87.5 0C87.5 25.0169 87.5 50.0338 87.5 75C62.5338 75 37.5169 75 12.5 75C12.5 49.9325 12.5 24.9662 12.5 0ZM79.5999 39.7029C78.0807 36.9683 76.0044 35.0945 73.0165 34.4362C70.8896 33.9298 68.7627 33.9298 66.6357 34.3856C59.7485 35.8035 56.8113 44.1087 61.2677 49.6286C62.8376 51.553 64.9139 52.7178 67.0915 53.7306C69.0159 54.6421 70.9909 55.503 72.9153 56.4652C74.2319 57.1236 74.789 58.339 74.6371 59.8076C74.4851 61.2762 73.4723 62.0864 72.2063 62.5422C69.3704 63.555 66.0787 62.6435 64.1543 60.2633C63.7492 59.7569 63.344 59.1999 62.9389 58.6428C61.0145 59.7569 59.1408 60.8204 57.267 61.9345C58.4318 64.2134 60.0523 66.0365 62.2806 67.2519C66.0787 69.3282 70.0793 69.632 74.1813 68.6192C76.8653 67.9608 79.1442 66.5935 80.5621 64.1121C83.1955 59.4024 81.6762 53.528 77.0172 50.6415C74.9409 49.3754 72.6114 48.5145 70.4338 47.4004C69.3704 46.8433 68.2562 46.3369 67.3447 45.628C65.7242 44.3113 66.028 41.6779 67.8511 40.6651C69.6236 39.6523 72.105 40.26 73.4723 42.0324C73.7762 42.3869 73.9787 42.792 74.2826 43.1972C76.0044 42.0324 77.7768 40.8677 79.5999 39.7029ZM32.2502 62.6941C33.263 64.8717 34.7316 66.5935 36.8079 67.7076C39.4919 69.1762 42.4291 69.4294 45.417 68.9737C48.1009 68.5685 50.3292 67.3531 51.7978 64.9223C53.0132 62.8967 53.3677 60.6685 53.3677 58.2883C53.3677 50.5908 53.3677 42.8933 53.3677 35.1958C53.3677 34.9932 53.3677 34.74 53.3677 34.4868C50.9875 34.4868 48.7086 34.4868 46.3285 34.4868C46.3285 34.7907 46.3285 35.0439 46.3285 35.3477C46.3285 42.944 46.3285 50.4895 46.3285 58.0858C46.3285 58.7947 46.2779 59.5544 46.1766 60.2633C45.974 61.4281 45.3663 62.289 44.2016 62.6435C42.024 63.3018 40.2515 62.6435 38.9855 60.7698C38.6816 60.2633 38.3778 59.7569 38.0233 59.2505C36.0483 60.4153 34.1745 61.5294 32.2502 62.6941Z" fill="#00f5d4"/>
</svg>
