<svg width="59" height="58" viewBox="0 0 59 58" fill="none" xmlns="http://www.w3.org/2000/svg">
<path d="M4 1.5L54.7578 1.5C56.1385 1.5 57.2578 2.61929 57.2578 4L57.2578 54C57.2578 55.3807 56.1385 56.5 54.7578 56.5L4 56.5C2.61929 56.5 1.5 55.3807 1.5 54L1.5 4C1.5 2.61929 2.61929 1.5 4 1.5Z" fill="#E15544" stroke="#E15544" stroke-width="3"/>
<path d="M26.6953 37.6406C26.6953 36.5625 26.7188 35.6484 26.7656 34.8984C26.8281 34.1484 26.9609 33.4688 27.1641 32.8594C27.3672 32.2656 27.6719 31.7188 28.0781 31.2188C28.4844 30.7031 29.0547 30.1563 29.7891 29.5781C30.3203 29.0938 30.8516 28.5859 31.3828 28.0547C31.9141 27.5078 32.3984 26.9453 32.8359 26.3672C33.2578 25.8047 33.6016 25.2266 33.8672 24.6328C34.1328 24.0391 34.2656 23.4453 34.2656 22.8516C34.2656 22.1328 34.1641 21.5156 33.9609 21C33.7578 20.4688 33.4688 20.0313 33.0938 19.6875C32.7031 19.375 32.2266 19.1406 31.6641 18.9844C31.1172 18.8281 30.4844 18.75 29.7656 18.75C29.2031 18.75 28.6563 18.8281 28.125 18.9844C27.5938 19.125 27.125 19.3594 26.7188 19.6875C26.2969 20.0156 25.9531 20.4375 25.6875 20.9531C25.4375 21.4688 25.3047 22.0859 25.2891 22.8047L18.75 22.8047C18.7656 21.2109 19.0625 19.8281 19.6406 18.6563C20.2188 17.4688 21 16.4844 21.9844 15.7031C22.9688 14.9219 24.125 14.3438 25.4531 13.9688C26.7813 13.5781 28.2188 13.3828 29.7656 13.3828C31.5 13.3828 33.0547 13.5781 34.4297 13.9688C35.8047 14.3594 36.9688 14.9375 37.9219 15.7031C38.8594 16.4844 39.5781 17.4453 40.0781 18.5859C40.5781 19.7266 40.8281 21.0469 40.8281 22.5469C40.8281 23.6563 40.6406 24.6719 40.2656 25.5938C39.8906 26.5 39.4063 27.3438 38.8125 28.125C38.2188 28.9219 37.5391 29.6797 36.7734 30.3984C36.0234 31.1016 35.2656 31.7891 34.5 32.4609C34.0313 32.9297 33.6641 33.3438 33.3984 33.7031C33.1328 34.0625 32.9453 34.4297 32.8359 34.8047C32.7109 35.1797 32.6328 35.5938 32.6016 36.0469C32.5703 36.4844 32.5547 37.0156 32.5547 37.6406L26.6953 37.6406ZM25.7344 44.7422C25.7344 43.7109 26.0703 42.8516 26.7422 42.1641C27.4141 41.4609 28.3438 41.1094 29.5313 41.1094C30.6875 41.1094 31.6094 41.4609 32.2969 42.1641C33 42.8516 33.3516 43.7109 33.3516 44.7422C33.3516 45.7422 33 46.5859 32.2969 47.2734C31.6094 47.9453 30.6875 48.2813 29.5313 48.2813C28.3438 48.2813 27.4141 47.9453 26.7422 47.2734C26.0703 46.5859 25.7344 45.7422 25.7344 44.7422Z" fill="#02F4BF"/>
</svg>
