<svg width="100" height="104" viewBox="0 0 100 104" fill="none" xmlns="http://www.w3.org/2000/svg">
<path d="M41.0176 68.6146C36.0249 67.1931 31.634 64.5758 27.8004 60.9206C26.5968 61.3493 25.3709 61.778 24.1227 62.1841C23.5432 62.3646 22.9637 62.2969 22.3619 62.0713C21.292 61.6652 20.6456 60.8755 20.1776 59.9052C19.5312 58.6191 18.7065 57.4458 18.0601 56.1597C17.4806 54.9639 16.6337 53.926 16.1433 52.685C15.8981 52.0758 15.2518 51.6697 15.2518 50.9025C14.6723 49.9549 15.2295 49.12 15.5638 48.2852C15.653 48.0596 15.7644 47.7662 15.965 47.676C16.7674 47.315 17.1686 46.5027 17.8373 46.0063C18.1493 45.7807 18.4836 45.5325 18.8403 45.2617C18.3276 42.667 17.8818 40.0722 17.8818 37.4097C17.8818 34.7699 18.3499 32.2202 18.8403 29.6931C17.971 28.8809 17.1686 28.0912 16.3216 27.3466C15.4524 26.5794 14.9397 25.6318 15.0512 24.639C15.118 24.0975 15.274 23.5108 15.5415 23.0596C16.3662 21.7283 17.124 20.3294 17.9264 18.9756C18.5728 17.8926 19.13 16.7644 19.8433 15.704C20.2222 15.1625 20.4451 14.5307 20.824 13.9666C21.5595 12.9061 23.0306 12.3872 24.2341 12.7482C25.304 13.0641 26.307 13.5379 27.3992 13.741C27.5106 13.7635 27.5998 13.9215 27.7112 14.0343C31.5672 10.4016 35.9581 7.80686 40.9953 6.29513C41.1959 5.68592 41.2405 5.03159 41.4857 4.39982C41.664 3.92599 41.6194 3.33935 41.7086 2.8204C41.9537 1.46661 42.7784 0.676895 43.9597 0.270758C44.3832 0.135379 44.8067 0 45.3194 0C48.4398 0.0451264 51.5602 0.0451264 54.6807 0C55.5722 0 56.33 0.361011 57.0433 0.767148C57.6896 1.1056 58.0463 1.82762 58.2246 2.50451C58.5366 3.74549 58.7149 5.00903 58.9601 6.31769C63.9751 7.76173 68.366 10.3565 72.1997 14.0117C73.4032 13.583 74.6291 13.1543 75.8773 12.7482C76.4568 12.5677 77.0363 12.6354 77.6381 12.861C78.708 13.2671 79.3544 14.0569 79.8224 15.0271C80.4688 16.3132 81.2935 17.4865 81.9399 18.7726C82.5194 19.9684 83.3663 21.0063 83.8567 22.2473C84.1019 22.8565 84.7482 23.2626 84.7482 24.0298C85.3278 24.9774 84.7705 25.8123 84.4362 26.6471C84.347 26.8727 84.2356 27.1661 84.035 27.2563C83.2326 27.6173 82.8314 28.4296 82.1627 28.926C81.8507 29.1516 81.5164 29.3998 81.1597 29.6706C81.6724 32.2653 82.1182 34.8601 82.1182 37.5226C82.1182 40.1625 81.717 42.7121 81.1597 45.2392C82.029 46.0514 82.8314 46.8412 83.6784 47.5857C84.5476 48.3529 85.0603 49.3005 84.9488 50.2933C84.882 50.8348 84.7482 51.4215 84.4585 51.8727C83.6561 53.1814 82.8983 54.5352 82.1182 55.8664C81.1375 57.5135 80.3351 59.296 79.1983 60.8529C78.9977 61.7103 78.1953 61.778 77.6158 62.0939C76.9917 62.4323 76.3677 62.3421 75.6767 62.139C74.6514 61.8457 73.6707 61.3267 72.6008 61.1913C72.4894 61.1688 72.4002 61.0108 72.2888 60.898C68.4328 64.5758 64.0642 67.1931 58.9601 68.6597C58.7149 69.8782 58.492 71.1417 58.2246 72.3827C57.9571 73.6011 57.1547 74.3682 56.018 74.7292C55.5945 74.8646 55.1487 75 54.6584 75C51.5379 74.9549 48.4175 74.9549 45.2971 75C44.4055 75 43.6477 74.639 42.9345 74.2329C42.2881 73.8944 41.9092 73.1724 41.7754 72.4955C41.5303 71.1643 41.2851 69.9233 41.0176 68.6146ZM42.4664 48.7365C42.9122 48.4883 43.4248 48.3303 43.4471 47.7888C43.4917 46.9765 43.6031 46.1417 43.4248 45.3745C43.1128 44.0659 42.5555 42.8023 42.2212 41.4937C41.9983 40.6588 41.508 39.8691 41.5303 38.9666C40.817 37.1841 40.3712 35.3114 39.7694 33.5063C39.2791 32.0171 38.9225 30.4829 38.3875 29.0162C38.0978 28.204 38.0309 27.3014 37.496 26.5794C37.4514 26.5117 37.4291 26.4666 37.4291 26.4666C36.8273 26.0605 36.2032 26.1958 35.6683 26.1958C35.3563 26.4892 35.0888 26.7374 34.8436 26.963C34.8213 27.685 34.3087 28.2491 34.3978 28.9486C33.6177 30.7085 33.2834 32.6038 32.637 34.4088C32.3027 35.3339 32.1021 36.2816 31.8346 37.2292C31.5895 38.1769 31.0545 39.0343 31.0545 40.0496C30.2075 41.9675 29.7841 44.0208 29.16 46.0289C29.0039 46.5253 28.9148 46.9991 29.2268 47.4729C29.316 47.6083 29.2714 47.8114 29.2714 47.7888C29.628 48.1724 29.8955 48.4431 30.1184 48.7139C30.5419 48.7139 30.9877 48.7139 31.4557 48.7139C31.7678 48.3078 32.0798 47.9242 32.3696 47.5406C32.3027 46.2545 32.5702 45.3971 33.1497 44.0208C35.334 44.0208 37.5183 44.0208 39.7026 44.0208C39.8809 44.7428 39.97 45.4422 40.2152 46.0966C40.3267 46.3673 40.4381 46.6381 40.3935 46.9088C40.3267 47.7437 40.5941 48.398 41.5303 48.7139C41.7531 48.7365 42.0875 48.7365 42.4664 48.7365ZM47.682 48.7365C48.2838 48.6913 48.9747 48.8718 49.4651 48.3755C49.6434 48.1498 49.7994 47.9242 50.0223 47.6083C50.0223 45.352 50.0223 42.9829 50.0223 40.6137C51.6494 40.6137 53.2542 40.546 54.8367 40.6363C55.7951 40.6814 56.5752 40.3881 57.333 39.9143C57.6896 39.6886 58.0017 39.3502 58.3137 39.0343C59.1384 38.222 59.5396 37.2292 59.5619 36.056C59.5619 34.2058 59.5619 32.3782 59.5619 30.528C59.5619 30.2572 59.495 29.9639 59.4282 29.6931C59.183 28.7229 58.6703 28.0009 57.9794 27.3691C57.177 26.6245 56.2409 26.1733 55.1264 26.1733C52.6301 26.1733 50.156 26.1733 47.6374 26.1733C47.3922 26.444 47.147 26.7148 46.8573 26.9856C46.8573 33.935 46.8573 40.9296 46.8573 47.9468C47.147 48.1949 47.4145 48.4657 47.682 48.7365ZM63.7299 48.7365C65.2678 48.7365 66.828 48.7365 68.366 48.7365C68.6334 48.4657 68.9009 48.1949 69.1684 47.9468C69.1684 47.5181 69.1684 47.1119 69.1684 46.6832C69.1684 46.6381 69.1684 46.6155 69.1684 46.593C68.834 45.9612 68.3214 45.5776 67.6527 45.5099C67.6527 40.1173 67.6527 34.7473 67.6527 29.4901C68.1431 29.2419 68.5666 29.0162 69.0569 28.7455C69.1238 28.1588 69.1684 27.5496 69.213 27.1209C68.8563 26.7148 68.6112 26.4215 68.4106 26.1958C66.8058 26.1958 65.2455 26.1958 63.8636 26.1958C63.4847 26.5343 63.2173 26.7825 62.8829 27.0984C62.9498 27.6399 63.039 28.2491 63.1058 28.7681C63.6407 29.0388 64.0642 29.2644 64.4431 29.4675C64.4431 34.8375 64.4431 40.2076 64.4431 45.5325C64.2203 45.5776 63.9751 45.5325 63.8859 45.6453C63.5739 45.9612 63.039 46.0514 62.9275 46.5704C62.9275 47.0217 62.9275 47.4729 62.9275 47.9242C63.195 48.1949 63.4624 48.4657 63.7299 48.7365Z" fill="#00f5d4"/>
<path d="M38.5213 40.5683C37.2063 40.6134 35.8243 40.636 34.4424 40.6811C34.3979 40.6811 34.331 40.7714 34.1973 40.8842C34.2196 39.4853 34.9997 38.3571 35.0888 37.071C35.7575 35.9428 35.8243 34.6116 36.2701 33.3481C36.4039 33.4835 36.6045 33.6188 36.6045 33.7317C36.6267 34.7019 37.184 35.5367 37.3623 36.4618C37.496 37.0936 37.8526 37.7028 37.9418 38.3345C38.0309 39.1468 38.5659 39.756 38.5213 40.5683Z" fill="#00f5d4"/>
<path d="M56.4631 36.1917C56.3071 36.4399 56.1734 36.6881 55.9951 36.9138C55.683 37.2748 55.2818 37.4778 54.7692 37.4553C53.209 37.4327 51.6487 37.4553 50.0439 37.4553C50.0439 34.7703 50.0439 32.0852 50.0439 29.3325C51.671 29.3325 53.3427 29.31 54.9921 29.3325C55.7722 29.3551 56.4408 30.1674 56.4631 31.0248C56.4631 32.4463 56.4631 33.8677 56.4631 35.2892C56.4631 35.6051 56.4631 35.8984 56.4631 36.1917Z" fill="#00f5d4"/>
</svg>
