<svg width="100" height="104" viewBox="0 0 100 104" fill="none" xmlns="http://www.w3.org/2000/svg">
<path fill-rule="evenodd" clip-rule="evenodd" d="M88.3013 19.7049L81.2114 29.6354L74.1215 19.7049H77.9871C77.6924 12.3264 71.6079 6.42361 64.1713 6.42361C57.8961 6.42361 52.5743 10.6424 50.8929 16.3889C48.8474 15.7292 46.7325 15.3125 44.583 15.1215C44.8257 14.2014 45.1377 13.2812 45.5191 12.3958C46.5418 9.98264 47.998 7.8125 49.8528 5.95486C51.7076 4.09722 53.8744 2.62153 56.284 1.61458C58.7802 0.538194 61.4324 0 64.1713 0C66.9102 0 69.5624 0.538194 72.0586 1.59722C74.4682 2.62153 76.635 4.07986 78.4898 5.9375C80.3447 7.79514 81.8008 9.96528 82.8235 12.3785C83.8116 14.7049 84.349 17.1701 84.401 19.7049H88.3013Z" fill="#00f5d4"/>
<path fill-rule="evenodd" clip-rule="evenodd" d="M78.3854 74.9999V70.729H53.9434C54.1167 70.6422 54.2901 70.5728 54.4634 70.486C57.1156 69.2186 59.5598 67.5693 61.744 65.5554C62.0387 65.2776 62.3161 65.0172 62.5761 64.7568C62.8708 64.4617 63.1828 64.1492 63.4775 63.8193C63.8242 63.4374 64.1709 63.0381 64.4829 62.6387H78.3854V58.3679L89.9997 66.6839L78.3854 74.9999Z" fill="#00f5d4"/>
<path fill-rule="evenodd" clip-rule="evenodd" d="M69.3716 44.1493C69.3716 47.8473 68.6435 51.441 67.2221 54.8264C66.0087 57.7084 64.3099 60.3473 62.195 62.6563C61.9177 62.9514 61.6403 63.2466 61.3629 63.5417C61.1029 63.8021 60.8429 64.0452 60.5829 64.3056C58.5374 66.198 56.2492 67.7431 53.753 68.941C53.4063 69.1146 53.0422 69.2709 52.6782 69.4271C52.6609 69.4271 52.6609 69.4445 52.6435 69.4445C50.5634 70.3299 48.3272 70.7639 46.0563 70.7639H10V62.691H43.4735C53.597 62.691 61.9003 54.5834 62.039 44.4445C62.039 44.3577 62.039 44.2709 62.039 44.1841C62.039 33.1077 53.0596 24.1146 42 24.1146C30.9404 24.0799 21.961 33.0556 21.961 44.1493H26.6067L18.3034 55.7813L10 44.1493H14.6457C14.6457 40.4514 15.3738 36.8577 16.7952 33.4723C18.182 30.2084 20.1408 27.2743 22.6544 24.757C25.1679 22.2396 28.0975 20.2605 31.3564 18.8889C34.7367 17.4653 38.325 16.7361 42.0173 16.7361C42.7627 16.7361 43.4908 16.7709 44.2188 16.823C46.3684 16.9966 48.4659 17.4132 50.5114 18.0903C51.2394 18.3334 51.9502 18.5938 52.6609 18.9063C55.9198 20.2952 58.8494 22.257 61.3629 24.7743C63.8765 27.2917 65.8526 30.2257 67.2221 33.4896C68.6435 36.8577 69.3716 40.4514 69.3716 44.1493Z" fill="#00f5d4"/>
</svg>
