<svg width="34" height="43" viewBox="0 0 34 43" fill="none" xmlns="http://www.w3.org/2000/svg">
<path d="M1.47505 39.954C0.646734 39.9678 -0.0135738 40.6504 0.000207543 41.4787C0.0139889 42.307 0.696641 42.9673 1.52495 42.9536L1.47505 39.954ZM19.8268 0.0567381C19.0294 -0.167999 18.2008 0.296205 17.9761 1.09357L14.3138 14.0873C14.0891 14.8847 14.5533 15.7133 15.3506 15.938C16.148 16.1627 16.9766 15.6985 17.2013 14.9012L20.4567 3.35116L32.0067 6.60654C32.8041 6.83127 33.6326 6.36707 33.8574 5.56971C34.0821 4.77235 33.6179 3.94377 32.8205 3.71904L19.8268 0.0567381ZM1.52495 42.9536C11.4491 42.7884 20.0312 38.9028 24.2094 31.4629C28.3976 24.0052 27.8657 13.5068 20.7285 0.76734L18.1112 2.23364C24.974 14.4833 25.071 23.802 21.5937 29.9939C18.1064 36.2036 10.7286 39.8 1.47505 39.954L1.52495 42.9536Z" fill="#E15544"/>
</svg>
