<svg width="35" height="59" viewBox="0 0 35 59" fill="none" xmlns="http://www.w3.org/2000/svg">
<path d="M7.88361 1.12239C7.67493 0.320677 6.85584 -0.160068 6.05413 0.0486156C5.25241 0.257299 4.77167 1.07639 4.98035 1.8781L7.88361 1.12239ZM14.0094 8.96369L13.3658 10.3186L13.4639 10.3652L13.5676 10.3972L14.0094 8.96369ZM26.0092 3.31056L25.6201 1.8619V1.8619L26.0092 3.31056ZM26.0092 30.246L24.5236 30.039V30.039L26.0092 30.246ZM4.98549 58.0429C5.28517 58.8152 6.15419 59.1983 6.92652 58.8987L19.5123 54.0152C20.2846 53.7155 20.6678 52.8465 20.3681 52.0742C20.0684 51.3018 19.1994 50.9187 18.4271 51.2184L7.23972 55.5592L2.89886 44.3719C2.59918 43.5995 1.73015 43.2164 0.957829 43.5161C0.185503 43.8157 -0.197657 44.6848 0.102017 45.4571L4.98549 58.0429ZM4.98035 1.8781C6.24533 6.73782 9.85867 8.65252 13.3658 10.3186L14.6531 7.6088C11.1602 5.9495 8.7729 4.53881 7.88361 1.12239L4.98035 1.8781ZM13.5676 10.3972C17.2346 11.5273 20.4343 12.002 23.1608 12.0091L23.1686 9.00907C20.7815 9.00288 17.8781 8.58642 14.4512 7.53023L13.5676 10.3972ZM23.1608 12.0091C26.4127 12.0175 29.0193 11.36 30.9265 10.3281C32.798 9.31555 34.1353 7.85382 34.4962 6.20552C34.6809 5.3617 34.5995 4.48248 34.1871 3.68936C33.7767 2.90013 33.0956 2.30413 32.2627 1.91449C30.6369 1.15386 28.3573 1.12676 25.6201 1.8619L26.3983 4.75922C28.8093 4.1117 30.2759 4.29703 30.9915 4.63182C31.3293 4.7899 31.4677 4.96235 31.5254 5.07329C31.581 5.18036 31.6161 5.33305 31.5656 5.56386C31.4559 6.06481 30.9153 6.92319 29.4989 7.6895C28.1183 8.43645 26.0271 9.01648 23.1686 9.00907L23.1608 12.0091ZM25.6201 1.8619C23.5938 2.4061 22.3174 3.64011 21.756 5.39072C21.2445 6.98584 21.3724 8.87643 21.6851 10.7553L24.6444 10.2628C24.3463 8.47174 24.3317 7.18332 24.6127 6.30679C24.844 5.58576 25.2951 5.05549 26.3983 4.75922L25.6201 1.8619ZM21.6851 10.7553C21.9193 12.1627 22.2818 13.6899 22.6645 15.2525C23.0514 16.8321 23.461 18.4562 23.8141 20.1278C24.5219 23.4783 24.966 26.8638 24.5236 30.039L27.4948 30.453C28.0099 26.7569 27.4793 22.9632 26.7493 19.5077C26.3836 17.7762 25.9584 16.0906 25.5784 14.5389C25.1942 12.9702 24.8577 11.5447 24.6444 10.2628L21.6851 10.7553ZM24.5236 30.039C23.874 34.7002 20.6408 38.2767 16.5154 42.3715C12.5009 46.3559 7.71331 50.767 5.0114 56.8951L7.75642 58.1054C10.1801 52.6085 14.4763 48.6222 18.6287 44.5007C22.6701 40.4895 26.6868 36.2514 27.4948 30.453L24.5236 30.039Z" fill="#E15544"/>
</svg>
