<svg width="26" height="59" viewBox="0 0 26 59" fill="none" xmlns="http://www.w3.org/2000/svg">
<path d="M24.6843 2.98151C25.5023 2.85099 26.0597 2.082 25.9292 1.26392C25.7987 0.44584 25.0297 -0.11154 24.2116 0.0189773L24.6843 2.98151ZM16.5596 58.9926C17.3837 59.0762 18.1197 58.4759 18.2034 57.6518L19.567 44.2208C19.6507 43.3966 19.0504 42.6606 18.2262 42.577C17.402 42.4933 16.666 43.0936 16.5823 43.9178L15.3703 55.8564L3.43163 54.6443C2.60744 54.5606 1.87146 55.1609 1.78779 55.9851C1.70411 56.8093 2.30441 57.5453 3.1286 57.629L16.5596 58.9926ZM24.2116 0.0189773C15.0389 1.48241 8.77086 4.66562 4.89575 9.1072C1.00446 13.5673 -0.302164 19.0986 0.0569781 24.8869C0.768381 36.3524 8.02393 49.223 15.5487 58.4483L17.8734 56.5521C10.4984 47.5104 3.70509 35.2395 3.05122 24.7011C2.72772 19.4874 3.90937 14.8011 7.15632 11.0795C10.4195 7.3393 15.9397 4.37663 24.6843 2.98151L24.2116 0.0189773Z" fill="#E15544"/>
</svg>
